<?xml version="1.0" encoding="utf-8"?>
<!-- Generator: Adobe Illustrator 26.0.3, SVG Export Plug-In . SVG Version: 6.00 Build 0)  -->
<svg version="1.1" id="Layer_1" xmlns="http://www.w3.org/2000/svg" xmlns:xlink="http://www.w3.org/1999/xlink" x="0px" y="0px"
	 viewBox="0 0 2500 1600" enable-background="new 0 0 2500 1600" xml:space="preserve">
<g id="Background">
	<polyline fill="none" points="2500,0 2500,1600 0,1600 0,0 	"/>
</g>
<g id="Object">
	<g>
		<defs>
			<polyline id="SVGID_1_" points="2500,0 2500,1600 0,1600 0,0 			"/>
		</defs>
		<clipPath id="SVGID_00000046311464093475258230000017697186183779391663_">
			<use xlink:href="#SVGID_1_"  overflow="visible"/>
		</clipPath>
		<g clip-path="url(#SVGID_00000046311464093475258230000017697186183779391663_)">
			<path fill="#508750" d="M1227.85,1260.75l1585.83,187.57l-179.58-274.17l-52.37-79.94c0,0-63.46-58-104-39
				c0,0-2.42-29.62-48.47-49.25s-98.91,14.58-98.91,14.58s-12.56-94.83-119.83-117.66s-208.42,117-208.42,117
				s-12.1-25.88-57.25-20.4s-87.64,63.83-87.64,63.83s-14.52-33.06-81.69-15.14s-100.18,91.21-100.18,91.21s-5.87-23.66-63.55-13.22
				c-39.37,7.14-79,37.33-100.26,55.78c-9.87,8.58-15.75,14.63-15.75,14.63s-11.12-16.61-60.51-10.73
				S1227.85,1260.75,1227.85,1260.75z"/>
			<path opacity="0.15" enable-background="new    " d="M1504,1246c42.16-5,51.65,9.15,51.65,9.15s49.8-51.18,99-60.1
				s54.24,11.29,54.24,11.29s28.2-62.56,85.53-77.86s69.73,12.91,69.73,12.91s36.26-49.82,74.81-54.48s48.85,17.4,48.85,17.4
				s86.35-119.36,177.91-99.87c11.937,2.472,23.524,6.405,34.5,11.71c4.79-17.29,19.31-28.25,35.92-25.53
				c19.75,3.24,35,24.6,34,47.71c-0.57,13.27-6.35,24.21-14.91,30.53c10.65,19.73,12.82,36,12.82,36s45.13-29.21,84.43-12.45
				s41.37,42,41.37,42c34.62-16.21,88.79,33.31,88.79,33.31l198,302.27L1326.91,1310C1326.91,1310,1461.81,1251,1504,1246z"/>
			<path opacity="0.15" enable-background="new    " d="M2387.13,1286.41c0,0-76.77-69-156.45-71.81c0,0-3.78-37.62-67.82-35.43
				s-125,28-125,28s8.81-19.92-38.46-21.48s-81.1,12.33-81.1,12.33s-41.75-20.44-106.26-6.91s-129.77,46.76-129.77,46.76
				l673.21,97.41L2387.13,1286.41z"/>
			<path fill="#62A662" d="M1511.53,1181.94c1.967,0.848,3.76,2.051,5.29,3.55c0,0,19.12-26.77,63.92-38.75s72.91,1.23,72.91,1.23
				s1.78-6.83,16.52-6.9s18.34,6.53,18.34,6.53s20.87-52,30.88-50.7s13.08,21.59,13.08,21.59s16.68-56.24,39.77-57.5
				s32,11.36,32,11.36s21.55-19.42,35.71-14.78c12.17,4,12.43,27.64,12.27,34.19c0.39-5.14,2.82-20.82,17.83-29.28
				c18.12-10.21,31.09-8.25,31.09-8.25s-6.1-11.51,7-18s27.2-0.4,27.2-0.4s-9.87-24.19,20.76-19.33s43.67,28.74,43.67,28.74
				c25.07-53.89,77.54-82.06,78.36-82.49c-0.27,0.38-5.89,8.53,9.61,14.27c15.84,5.87,84.34,1.5,89.7-12.72S2162,944.43,2162,944.43
				s53-37,85.86-15.45c32.53,21.38,36,63.35,36.05,64.17c0.46-0.28,17-10.4,31.07,10c14.31,20.64,12.93,58.4,12.93,58.4
				s56.08-59.1,98.61-46.58c42.12,12.41,34.85,78.27,34.72,79.54c0.35-0.88,14.06-34.5,40.07-23.59c26.35,11,36.29,63.84,37,65
				c0,0,45.32,18.35,95.79,38.27l-52.37-79.94c0,0-63.46-58-104-39c0,0-2.42-29.62-48.47-49.25s-98.91,14.58-98.91,14.58
				s-12.56-94.83-119.83-117.66s-208.42,117-208.42,117s-12.1-25.92-57.25-20.44s-87.64,63.83-87.64,63.83s-14.52-33.06-81.69-15.14
				s-100.18,91.21-100.18,91.21s-5.87-23.66-63.55-13.22C1572.42,1133.3,1532.75,1163.49,1511.53,1181.94z"/>
			<path fill="#27AD48" d="M695.74,844.83c-65.72,56.34-163.67,0.67-163.67,0.67s28,68.11-58.06,71.82c-2.1,0.09-4.16,0.15-6.2,0.2
				C386.05,919.16,348,882,348,882s-46.36,33-152.55,35.26s-73.63-59.08-73.63-59.08s-144.2,16-205.18-0.8
				c-15.64-4.29-25.77-10.74-26.64-20.16c-4.33-46.22,56.87-109.15,56.87-109.15s-155.65-18.69-108.06-103.55
				c13.93-24.84,38.57-46.11,66.43-63.77c-6.64-37.19-4.73-79.54,30.64-97.68c36.48-18.71,80.4-23,113.88-22.79
				c14.39-26.25,44-53.7,91.45-63.15c115.58-23,89.7,21.58,89.7,21.58s137.56-54.66,194.59-21.58s-6.27,74.79-6.27,74.79
				s206.15-65.44,227.83-15.1s-60.77,76.95-60.77,76.95S728.76,569.86,702,633.14c-26.47,62.67-95,40.72-96.35,40.29
				C607.64,674.89,761,788.84,695.74,844.83z"/>
			<path fill="#1E8A39" d="M545.78,706.32c-13.08-31.82-70.2-48.54-70.2-48.54s93.59-54.48,58.71-85.22s-95.73-30.74-95.73-30.74
				s23.15-34.52-14.78-42.07s-80.31,14.56-82.46,14.56s8-54.48-47.78-46.92c-9.4,1.266-18.702,3.177-27.84,5.72
				c-22.67-14-51.52-24.57-75.12-9.5c-17.41,11.12-25.19,22.92-28.12,33.33c-18.75-0.37-40.75,1.62-59.91,9.82
				c-44.1,18.88-15.32,60.94-15.32,60.94s-76-18.33-94.63,21.58S14,652.92,14,652.92C-65.15,688-8.95,729-8.95,729
				s-35.42,21-11.82,52.32s103,5.39,103,5.39s-40,28.05,10,44.77s74.3,0,74.3,0s-17.36,30.2,1.17,37.21s102.79-28.58,102.79-28.58
				s111.93,24.81,147.65,13.48S401.26,812,401.26,812s46.2,14,88.3,0S505,754.86,505,754.86S558.86,738.14,545.78,706.32z"/>
			
				<ellipse transform="matrix(0.0061 -1 1 0.0061 -616.9059 932.2659)" fill="#16662A" cx="160.536" cy="776.476" rx="21.03" ry="52.23"/>
			
				<ellipse transform="matrix(0.0061 -1 1 0.0061 -414.1265 733.7089)" fill="#16662A" cx="162.039" cy="575.186" rx="17.89" ry="44.43"/>
			
				<ellipse transform="matrix(0.01 -0.9999 0.9999 0.01 -309.7024 1077.0292)" fill="#16662A" cx="389.075" cy="694.922" rx="17.891" ry="44.432"/>
			
				<ellipse transform="matrix(0.0061 -1 1 0.0061 -447.6143 1094.4916)" fill="#16662A" cx="326.792" cy="772.424" rx="11.06" ry="27.46"/>
			
				<ellipse transform="matrix(0.0061 -1 1 0.0061 -264.2014 953.7823)" fill="#16662A" cx="347.713" cy="609.801" rx="33.98" ry="84.39"/>
			
				<ellipse transform="matrix(0.0063 -1 1 0.0063 -495.01 894.8299)" fill="#16662A" cx="202.73" cy="696.48" rx="38.44" ry="94.24"/>
			<path fill="#424F2F" d="M475,598l-45.55,38l-3.72,3.1l-28.23,23.57l-4,3.35l0,0l-37.75,31.5l-3.28,2.74l-32.28,27l-5,4.19
				l-6.19,5.08c-0.236,0.196-0.454,0.414-0.65,0.65c-0.94,1.112-1.407,2.548-1.3,4l0.22,3.42l0.43,6.8l0.27,4.15l4.9,76.79l0.37,5.8
				l14.15,221.67l0,0l0.74,11.64l3.56,55.84l0.45,7l6.46,101.21H166.29l12.53-79.74l1.46-9.24l38.93-247.76l0.91-5.8l23.77-151.21
				v-0.08c0.215-1.476-0.142-2.979-1-4.2c-0.315-0.457-0.696-0.865-1.13-1.21l-24.08-19.65l-2.87-2.35l-42.62-34.76
				c-0.494-0.4-1.047-0.721-1.64-0.95l-117-44.07c-2.952-1.079-4.521-4.301-3.55-7.29l1.56-4.8c0.935-2.846,3.976-4.42,6.84-3.54
				l100.25,29.48c1.828,0.578,3.826,0.153,5.26-1.12c0.948-0.834,1.583-1.966,1.8-3.21c0.192-1.169,0.013-2.368-0.51-3.43
				l-10.38-21.71c-1.364-2.733-0.255-6.054,2.478-7.418c0.762-0.38,1.601-0.58,2.452-0.582h6.86c1.722,0.014,3.352,0.782,4.46,2.1
				l36.31,43c0.7,0.822,1.608,1.441,2.63,1.79l2.39,0.81l27.96,9.44l3.39,1.15c0.485,0.165,0.989,0.266,1.5,0.3
				c3.025,0.2,5.64-2.091,5.84-5.116c0.036-0.552-0.011-1.106-0.14-1.644l-13.79-61.3c-0.2-0.875-0.597-1.692-1.16-2.39
				l-54.24-66.32c-1.8-2.123-1.8-5.237,0-7.36l4.37-4.94c2.112-2.304,5.693-2.459,7.997-0.347c0.087,0.08,0.171,0.162,0.253,0.247
				l3.56,3.58l4.31,4.32L266.83,593c2.071,2.145,5.449,2.32,7.73,0.4c0.208-0.182,0.402-0.379,0.58-0.59l1.94-2.27l34.64-40.75
				c2.105-2.355,5.721-2.558,8.077-0.453c0.489,0.437,0.9,0.956,1.213,1.533c0.464,0.82,0.725,1.739,0.76,2.68
				c0.04,1.05-0.216,2.089-0.74,3l-29.24,50.81c-0.54,0.943-0.791,2.025-0.72,3.11l3.76,62.81c0.176,3.198,2.911,5.649,6.109,5.473
				c1.123-0.062,2.204-0.448,3.111-1.113l26.56-20.65l4.31-3.35L357.49,636l2-1.53c0.379-0.307,0.715-0.664,1-1.06
				c0.293-0.404,0.532-0.844,0.71-1.31l18.7-49.25c0.961-2.524,3.618-3.971,6.26-3.41l0.71,0.14c3.06,0.615,5.112,3.508,4.68,6.6
				l-5.39,35.45c-0.298,1.896,0.374,3.815,1.79,5.11c0.902,0.848,2.044,1.397,3.27,1.57c1.204,0.162,2.429-0.081,3.48-0.69l37-21.17
				l5.63-3.22l29.37-16.8c2.559-1.421,5.778-0.689,7.47,1.7l1.64,2.24C477.578,592.734,477.225,596.06,475,598z"/>
			<path fill="#2ECC55" d="M695.74,844.83c-65.72,56.34-163.67,0.67-163.67,0.67s28,68.11-58.06,71.82c-2.1,0.09-4.16,0.15-6.2,0.2
				c76.86-5.53,37.94-87.15,37.94-87.15c63.34,28,184.79,37.76,178.71-18.88S546.38,669.64,546.38,669.64s149.7-2.7,126.29-62.56
				s-135.14-85.76-135.14-85.76c91.41-38.3,80.84-83.6,25.33-85.22s-159.17,23.74-159.17,23.74s24.31-71.92-38.87-71.92
				S210,419.56,210,419.56s10-45.84-43.46-35.24S80.5,456.25,80.5,456.25S-41,449.05-70.08,485s3.55,90.16,3.55,90.16
				s-87.63,90.35-52.92,121.3S-30,723-30,723s-83.62,112.18-53.31,134.34c-15.69-4.25-25.82-10.7-26.69-20.12
				c-4.33-46.22,56.87-109.15,56.87-109.15s-155.65-18.69-108.06-103.55c13.93-24.84,38.57-46.11,66.43-63.77
				c-6.64-37.19-4.73-79.54,30.64-97.68c36.48-18.71,80.4-23,113.88-22.79c14.39-26.25,44-53.7,91.45-63.15
				c115.58-23,89.7,21.58,89.7,21.58s137.56-54.66,194.59-21.58s-6.27,74.79-6.27,74.79s206.15-65.44,227.83-15.1
				s-60.77,76.95-60.77,76.95S728.76,569.86,702,633.14c-26.47,62.67-95,40.72-96.35,40.29C607.64,674.89,761,788.84,695.74,844.83z
				"/>
			
				<ellipse transform="matrix(0.0072 -1 1 0.0072 -463.9716 477.7996)" fill="#2ECC55" cx="8.63" cy="472.552" rx="17.26" ry="40.09"/>
			
				<ellipse transform="matrix(0.0072 -1 1 0.0072 -35.8691 905.1713)" fill="#2ECC55" cx="437.901" cy="470.649" rx="17.26" ry="40.09"/>
			
				<ellipse transform="matrix(0.992 -0.1264 0.1264 0.992 -51.9013 34.9732)" fill="#2ECC55" cx="249.688" cy="426.543" rx="39.92" ry="17.33"/>
			
				<ellipse transform="matrix(0.4971 -0.8677 0.8677 0.4971 -182.9286 767.2405)" fill="#2ECC55" cx="570.449" cy="541.436" rx="12.15" ry="29.01"/>
			
				<ellipse transform="matrix(0.992 -0.1264 0.1264 0.992 -52.592 68.7177)" fill="#2ECC55" cx="515.297" cy="448.858" rx="39.92" ry="17.33"/>
			
				<ellipse transform="matrix(0.912 -0.4101 0.4101 0.912 -165.0179 83.6451)" fill="#2ECC55" cx="112.493" cy="426.529" rx="18.69" ry="8.23"/>
			
				<ellipse transform="matrix(0.912 -0.4101 0.4101 0.912 -136.8311 159.4467)" fill="#2ECC55" cx="303.302" cy="398.718" rx="18.69" ry="8.23"/>
			<path fill="#2ECC55" d="M550.93,473.63c2,4.1-4.06,10.89-13.45,15.17s-18.6,4.42-20.57,0.31s4.06-10.89,13.46-15.17
				S549,469.52,550.93,473.63z"/>
			
				<ellipse transform="matrix(0.7485 -0.6631 0.6631 0.7485 -230.0098 575.7087)" fill="#2ECC55" cx="643.974" cy="591.085" rx="8.01" ry="19.22"/>
			
				<ellipse transform="matrix(0.7485 -0.6631 0.6631 0.7485 -327.959 566.2621)" fill="#2ECC55" cx="582.546" cy="715.492" rx="8.01" ry="19.22"/>
			
				<ellipse transform="matrix(0.9105 -0.4134 0.4134 0.9105 -135.2357 187.147)" fill="#2ECC55" cx="364.811" cy="406.055" rx="35.9" ry="8.3"/>
			
				<ellipse transform="matrix(0.912 -0.4101 0.4101 0.912 -149.7492 99.2091)" fill="#2ECC55" cx="156.412" cy="398.715" rx="26.61" ry="11.72"/>
			<path fill="#58693E" d="M243.89,741.67l2.19-2.48c8.9-10.14,14.29-21.41,12.55-35.45c-1.51-12.3-7-23.65-13.38-34.27
				c-0.511-0.034-1.015-0.135-1.5-0.3l-3.39-1.17c4.341,6.734,8.025,13.871,11,21.31c4.91,13,6.16,27.09-1.35,39
				c-2.112,3.218-4.483,6.258-7.09,9.09c0.858,1.221,1.215,2.724,1,4.2L243.89,741.67z"/>
			<path fill="#58693E" d="M174.93,655.24c3.52,5.07,6.21,10.71,10.93,14.85c7.32,6.44,17.75,6.66,22.95-1
				c1.32,7.52,7.29,13.51,10,20.56c1.735,4.132,2.038,8.726,0.86,13.05c-1.16,4-3.26,7.62-4.82,11.46l2.87,2.35
				c2.73-7.37,7.33-13.93,5.95-22.36c-0.855-4.217-2.435-8.253-4.67-11.93c-2.39-4.28-5.73-8.35-6.69-13.22
				c-0.68-3.44-0.19-6.94,0.09-10.43l-2.39-0.81c-0.651-0.224-1.258-0.563-1.79-1c0,0.42,0,0.85,0,1.27
				c0,5.53-2.37,11.86-8.22,13.32c-6.34,1.58-12.27-3.42-15.86-8.21c-3.06-4.12-5.24-8.83-8.62-12.72
				c-2.674-2.954-6.063-5.172-9.84-6.44c-0.217,1.244-0.852,2.376-1.8,3.21C168.2,648.84,171.9,650.88,174.93,655.24z"/>
			<path fill="#58693E" d="M374.16,662.32c-6.27,0.67-12.23,3-16.23,8c-3.37,4.2-4.77,9.46-5.34,14.8
				c-0.49,4.71-0.22,9.94-0.15,15.2l3.28-2.74c0-0.93,0-1.85,0-2.75c0-6.14,0-12.7,2.58-18.33c3.11-6.84,9.69-10.1,17-10.71
				c6.08-0.5,12.17,0.07,18.17,0.29l0,0l4-3.35C389.8,662.71,381.86,661.51,374.16,662.32z"/>
			<path fill="#58693E" d="M431.71,606.42c-0.85,1.77-1.63,3.59-2.32,5.44c-2.82,7.51-3.54,15.06-3.55,23.11c0,1.4,0,2.79-0.12,4.15
				l3.72-3.1c0-4.59-0.12-9.2,0.69-13.67c1.304-6.745,3.742-13.22,7.21-19.15L431.71,606.42z"/>
			<path fill="#58693E" d="M278.05,651.06c-0.12,9.21,0.92,18.64,5.27,27c4.65,9,13.53,14.7,18.47,23.43
				c5.88,10.4,0.67,22.29,2.49,33.34c0.586,3.341,1.594,6.593,3,9.68l-0.22-3.42c-0.107-1.452,0.36-2.888,1.3-4
				c-0.669-2.678-1.005-5.429-1-8.19c0-5.82,1.13-11.57,0.82-17.4c-0.56-10.35-7-17.24-13.81-24.52c-7.47-8-11.6-16.78-12.5-27.59
				c-1.65-19.7,4.68-39.57-0.84-59.1c-0.989-3.411-2.295-6.722-3.9-9.89l-1.94,2.27c-0.178,0.211-0.372,0.408-0.58,0.59
				C282.87,611.94,278.32,631.48,278.05,651.06z"/>
			<path fill="#58693E" d="M329.45,670.79c-0.1,8.19,0.41,16.5-1,24.56c-1.33,7.51-4.54,14.34-7.65,21.19
				c-2.278,4.801-4.167,9.777-5.65,14.88l5-4.19c1.41-3.87,3.11-7.61,4.71-11.11c2.82-6.17,5.58-12.44,6.86-19.19
				c1.37-7.27,1.23-14.75,1.22-22.16c0-6.75,0.17-14.34,2-21.23l-4.31,3.35C329.863,661.484,329.468,666.132,329.45,670.79z"/>
			<path fill="#58693E" d="M319.89,1105.21c-6.27-16.67-9-34.26-13.47-51.39c-4.56-17.63-11.56-33.41-22.39-48.26
				c-11.19-15.34-24.32-29.87-30.41-48.1c-3-9.09-4.08-18.75-1.6-27.92c2.34-8.69,7.33-16.25,11.87-23.84
				c4.418-7.081,7.884-14.714,10.31-22.7c2.345-8.765,3.736-17.757,4.15-26.82c1.11-17.52-0.08-35.28,2.64-52.62
				c2.55-16.26,8.24-33.14,21-44c1.866-1.524,3.876-2.863,6-4l-0.27-4.15c-1.987,1.063-3.899,2.263-5.72,3.59
				c-10.71,8-17.27,20.14-21.09,32.88c-9.5,31.64-0.72,66.25-11.14,97.61c-5.22,15.69-17.52,28-21.41,44.21
				c-1.637,7.222-1.603,14.723,0.1,21.93c1.8,11.49,6.61,22.06,10.78,32.89c4.525,11.523,7.142,23.706,7.75,36.07
				c0.55,12.63-1.95,24.32-4.06,36.58c-2,11.44-0.49,22,2.9,33.15c3.65,12,7.18,23.45,6.59,36.06c-0.59,12.95-4.14,25.43-7.41,37.82
				c-2.91,11-4.82,21.92-1.79,33.34c2.86,10.76,8.55,20.54,11.9,31.13c0.704,2.21,1.258,4.465,1.66,6.75h3.41
				c-1.203-6.089-3.05-12.032-5.51-17.73c-4.66-11.1-10.13-22.2-9.61-34.4c0.56-13.34,5.9-26.17,8.53-39.11
				c2.45-12.06,3.44-24.44,0.79-36.7s-8.31-23.88-9-36.42c-0.69-12.72,4-25,4.93-37.6c0.971-13.736-0.568-27.535-4.54-40.72
				c-1.22-4-2.71-8-4.27-12c9,13.76,20.34,25.92,28.6,40.17c8.74,15.09,12.77,32,16.55,48.79c4.09,18,8.09,36.51,17.59,52.78
				c2.402,4.055,5.05,7.959,7.93,11.69l-0.45-7C326.896,1120.364,322.919,1112.989,319.89,1105.21z"/>
			<path fill="#58693E" d="M381.23,636.58c3.909-1.988,7.326-4.824,10-8.3c-1.226-0.173-2.368-0.722-3.27-1.57
				c-3.01,3.766-7.051,6.573-11.63,8.08c-3.435,1.155-7.131,1.287-10.64,0.38c-1.763-0.496-3.496-1.094-5.19-1.79
				c-0.285,0.396-0.621,0.753-1,1.06l-2,1.53c2.47,0.82,4.86,1.93,7.37,2.6C370.383,639.937,376.206,639.229,381.23,636.58z"/>
			<path fill="#58693E" d="M286,879.46c-1.74,9.59,0.4,19.1,2.51,28.56c1.348,5.233,2.182,10.585,2.49,15.98
				c0.064,5.351-1.139,10.642-3.51,15.44c-4.19,9.12-5.49,17.94-3.37,28s6.83,19.71,11.43,29c5.2,10.54,10.23,21.16,15,31.9
				c6.293,14.2,12.167,28.56,17.62,43.08l-0.74-11.64l0,0c-3.12-7.96-6.37-15.87-9.75-23.73c-4.4-10.26-9.013-20.433-13.84-30.52
				c-4.84-10.13-10.37-20.07-14-30.7s-4.75-21.27-0.24-31.45c2-4.53,4.07-8.77,4.68-13.79c0.458-4.473,0.28-8.988-0.53-13.41
				c-1.64-10.15-5.27-20.23-4.84-30.56s5.19-19.69,10.68-28.08c4.19-6.39,9.18-12.78,13.7-19.43l-0.37-5.8
				c-4.73,7.49-10.4,14.54-15.13,21.52C292.48,861.57,287.72,870.05,286,879.46z"/>
			<path fill="#58693E" d="M235.15,997.26c-0.57-1.86-1.17-3.7-1.79-5.54l-0.34-1c-0.11-0.53-0.21-1.05-0.28-1.59
				c-0.057-0.463-0.285-0.888-0.64-1.19c-4-12.23-7.28-24.18-7.56-37.2c-0.67-31.92,11.85-61.58,24.81-89.66
				c0.123-0.262,0.178-0.551,0.16-0.84c2.661-5.524,4.558-11.385,5.64-17.42c1.61-9.36,0-18.48-0.64-27.91
				c-0.78-11.08,2.84-20.34,6.86-30.29l11.91-29.45c3.62-9,7.4-18.06,8.6-27.81c1.12-9.15-0.74-17.71-4.33-26.27
				S269.77,684.26,268,675c-1.8-9.4-1.79-19-2-28.48c-0.36-17.47-1.85-34.82-12.75-49.55s-27-24.91-37.94-39.68
				c-6.417-8.659-10.876-18.608-13.07-29.16l-4.24-4.28c1.191,8.309,3.703,16.374,7.44,23.89c7.68,15.47,20.84,26.19,33,38
				c6,5.79,11.76,12,15.9,19.25c4.76,8.36,6.75,17.71,7.54,27.1c1.53,18.12-0.75,36.78,5.64,54.35c3.16,8.69,8,16.81,10.19,25.82
				c2.51,10.42,0.06,20.86-3.39,30.56c-3.59,10.08-7.88,19.91-11.89,29.81c-3.64,9-8.13,18.08-10.42,27.61
				c-2.34,9.74-0.14,19.45,0.4,29.33c0.434,9.253-1.303,18.478-5.07,26.94c-6.17,14.17-16.29,25.74-27.21,36.39l-0.91,5.8
				c6.471-5.993,12.525-12.422,18.12-19.24c-7.62,18.21-13.87,37-15.75,56.95c-1.417,13.615-0.312,27.375,3.26,40.59
				c1.4,5,3.21,9.93,4.91,14.89c0.428,1.726,0.987,3.418,1.67,5.06c2,6.42,3.6,12.92,3.63,19.67c0,7.29-1.7,14.38-3.45,21.35
				s-3.53,14-5.3,21c-3.07,12.16-5.17,25.55-11.37,36.53c-3.31,5.86-8.06,9.55-13.24,13.63c-4.451,3.484-7.946,8.039-10.16,13.24
				c-2.37,5.32-4.28,10.81-6.91,16c-1.36,2.71-2.83,5.37-4.35,8l-1.46,9.24c5.351-8.297,9.924-17.071,13.66-26.21
				c2.26-5.73,4.55-11.4,9.17-15.61s9.63-7,13.35-11.93c6.86-9,9.33-20.56,12.06-31.41c3.45-13.65,7.49-27.28,10.16-41.13
				c1.366-6.455,1.646-13.093,0.83-19.64c0-0.12,0-0.25-0.06-0.37c0.61,1.11,1.2,2.24,1.76,3.38c4.27,8.76,6.34,18.36,7.17,27.93
				c1.64,19-1,38-1.52,57c-0.51,19.78,0.15,39.74-2.44,59.35c-1.187,9.576-3.4,18.997-6.6,28.1c-3.51,9.68-8.28,18.82-12.13,28.36
				c-2.887,7.158-5.391,14.465-7.5,21.89h3.65c1.773-6.073,3.8-12.05,6.08-17.93c3.76-9.65,8.49-18.86,12.24-28.52
				c3.361-8.791,5.755-17.921,7.14-27.23c2.93-19,2.62-38.39,2.94-57.64c0.32-18.92,2.72-37.82,2.05-56.79
				c-0.36-10-1.74-20.26-5.29-29.81C243,1010.57,238.13,1004.14,235.15,997.26z"/>
			<path fill="#31DB5B" d="M2447,785.46c-85.24,70.72-210.62,1.56-210.62,1.56s35.19,85-75.57,90c-2.7,0.12-5.367,0.21-8,0.27
				c-105.26,2.44-153.81-43.88-153.81-43.88s-60,41.59-196.7,44.79s-94.06-73.54-94.06-73.54s-185.75,20.62-264-0.09
				c-20-5.3-33-13.32-34.06-25.09c-5-57.7,74.5-136.69,74.5-136.69s-200.08-22.69-137.84-129c18.23-31.12,50.18-57.81,86.25-80
				c-8.11-46.45-5.15-99.41,40.58-122.24c47.16-23.54,103.74-29.05,146.81-29c18.83-32.88,57.26-67.32,118.43-79.33
				c149-29.27,115.18,26.58,115.18,26.58s177.63-68.9,250.64-27.8s-8.95,93.51-8.95,93.51s266-82.7,293.35-19.88
				S2310,372.1,2310,372.1s182.68,69.49,147.52,148.72c-34.8,78.44-122.73,51.31-124.46,50.78
				C2335.59,573.41,2531.64,715.18,2447,785.46z"/>
			<path fill="#29B84C" d="M2255.61,613c-16.46-39.72-89.77-60.37-89.77-60.37s121.09-68.5,76.57-106.78s-122.83-38-122.83-38
				s30.2-43.25-18.52-52.53s-103.52,18.56-106.29,18.57s10.92-68.13-60.93-58.45c-12.112,1.628-24.101,4.06-35.89,7.28
				c-29-17.43-66-30.49-96.56-11.55c-22.53,14-32.69,28.76-36.58,41.79c-24.13-0.38-52.46,2.2-77.21,12.54
				c-57,23.79-20.44,76.25-20.44,76.25s-97.52-22.59-122,27.38s26.75,79.47,26.75,79.47c-102.24,44.17-30.4,95.16-30.4,95.16
				s-45.82,26.45-15.83,65.45s132.5,6.29,132.5,6.29s-51.86,35.24,12.36,55.92s95.62-0.33,95.62-0.33s-22.7,37.84,1.06,46.52
				s132.61-36.19,132.61-36.19s143.75,30.53,189.85,16.21s-21.28-51.84-21.28-51.84s59.3,17.33,113.64-0.38s20.54-71.54,20.54-71.54
				S2272.07,652.69,2255.61,613z"/>
			<ellipse fill="#208F3B" cx="1759.03" cy="702.31" rx="67.21" ry="26.29"/>
			<ellipse fill="#208F3B" cx="1763.34" cy="450.71" rx="57.17" ry="22.36"/>
			<ellipse fill="#208F3B" cx="2052.15" cy="596.02" rx="57.17" ry="22.36"/>
			<ellipse fill="#208F3B" cx="1973.01" cy="696.52" rx="35.33" ry="13.82"/>
			<ellipse fill="#208F3B" cx="2001.84" cy="493.15" rx="108.59" ry="42.48"/>
			<ellipse fill="#208F3B" cx="1814.26" cy="602.15" rx="121.26" ry="48.05"/>
			<path fill="#424F2F" d="M2165.79,477.89l-59.05,47.71l-4.83,3.9l-36.62,29.59l-5.17,4.2l0,0l-49,39.54l-4.26,3.45L1965,640.1
				l-6.52,5.27l-7.94,6.41c-0.31,0.245-0.594,0.519-0.85,0.82c-1.199,1.357-1.817,3.131-1.72,4.94l0.25,4.27l0.47,8.5l0.29,5.19
				l5.4,96l0.41,7.25l15.58,277l0,0l0.82,14.55l3.93,69.78l0.48,8.72l7.12,126.48L1761,1276l17.07-99.74l2-11.55l53-309.88
				l1.25-7.26l32.36-189.12v-0.1c0.308-1.839-0.131-3.726-1.22-5.24c-0.398-0.572-0.876-1.084-1.42-1.52l-30.76-24.45l-3.68-2.93
				L1775.22,581c-0.636-0.502-1.349-0.901-2.11-1.18l-150-54.58c-3.698-1.275-5.689-5.283-4.47-9l2.06-6
				c1.299-3.595,5.177-5.551,8.84-4.46l128.67,36.42c2.353,0.702,4.902,0.164,6.77-1.43c1.219-1.026,2.051-2.437,2.36-4
				c0.263-1.459,0.046-2.965-0.62-4.29l-13.1-27.09c-1.657-3.493-0.17-7.668,3.323-9.325c0.973-0.462,2.04-0.693,3.117-0.675h8.83
				c2.192-0.008,4.277,0.942,5.71,2.6l46.22,53.62c0.9,1.031,2.06,1.801,3.36,2.23l3.07,1l35.75,11.6l4.35,1.42
				c0.622,0.204,1.267,0.328,1.92,0.37c3.853,0.322,7.237-2.539,7.559-6.392c0.058-0.699,0.012-1.403-0.139-2.088l-17-76.56
				c-0.257-1.104-0.771-2.132-1.5-3l-69-82.66c-2.258-2.671-2.199-6.599,0.14-9.2l5.67-6.19c2.815-2.978,7.511-3.111,10.489-0.297
				c0.044,0.042,0.088,0.084,0.131,0.127l4.55,4.46l5.49,5.38l82.32,80.7c2.885,2.887,7.564,2.888,10.451,0.002
				c0.089-0.089,0.175-0.179,0.259-0.272l2.51-2.85l45.07-51.09c2.786-3.028,7.498-3.225,10.527-0.44
				c0.553,0.509,1.026,1.099,1.403,1.75c0.606,1.016,0.95,2.168,1,3.35c0.019,1.299-0.328,2.578-1,3.69l-38.22,63.64
				c-0.712,1.169-1.06,2.523-1,3.89l4.1,78.49c0.298,4.087,3.853,7.158,7.94,6.86c1.404-0.102,2.749-0.602,3.88-1.44l34.41-25.93
				l5.59-4.21l29.26-22.06l2.55-1.92c0.509-0.379,0.961-0.831,1.34-1.34c0.391-0.496,0.711-1.045,0.95-1.63l24.65-61.65
				c1.32-3.184,4.714-4.984,8.09-4.29l0.92,0.17c3.881,0.683,6.514,4.331,5.94,8.23l-7.35,44.34c-0.402,2.373,0.444,4.787,2.24,6.39
				c1.169,1.06,2.635,1.737,4.2,1.94c1.546,0.197,3.114-0.112,4.47-0.88L2110,488.6l7.29-4.06l38-21.12
				c3.274-1.793,7.368-0.901,9.6,2.09l2.08,2.79C2169.238,471.289,2168.715,475.54,2165.79,477.89z"/>
			<path fill="#39FF6A" d="M2447,785.46c-85.24,70.72-210.62,1.56-210.62,1.56s35.19,85-75.57,90c-2.7,0.12-5.367,0.21-8,0.27
				c99-7.24,49.85-109.1,49.85-109.1c81.18,34.78,237.35,46.39,230.2-24.38s-176-176.72-176-176.72s192.68-4,163.25-78.76
				s-172.89-106.61-172.89-106.61c118.09-48.27,105-104.85,33.61-106.64s-205.12,30.37-205.12,30.37s32.14-90-49.17-89.72
				S1826.93,256,1826.93,256s13.4-57.34-55.51-43.85s-111.59,90.28-111.59,90.28S1503.5,294,1465.71,339s3.5,112.69,3.5,112.69
				S1355.38,565,1399.68,603.57s114.73,32.83,114.73,32.83s-108.93,140.6-70.2,168.17c-20-5.3-33-13.32-34.06-25.09
				c-5-57.7,74.5-136.69,74.5-136.69s-200.08-22.69-137.84-129c18.23-31.12,50.18-57.81,86.25-80
				c-8.11-46.45-5.15-99.41,40.58-122.24c47.16-23.54,103.74-29.05,146.81-29c18.83-32.88,57.26-67.32,118.43-79.33
				c149-29.27,115.18,26.58,115.18,26.58s177.66-68.9,250.67-27.8s-8.95,93.51-8.95,93.51s266-82.7,293.35-19.88
				S2310,372.1,2310,372.1s182.68,69.49,147.52,148.72c-34.8,78.44-122.73,51.31-124.46,50.78
				C2335.59,573.41,2531.64,715.18,2447,785.46z"/>
			<ellipse fill="#39FF6A" cx="1567.14" cy="323.09" rx="51.58" ry="21.57"/>
			<ellipse fill="#39FF6A" cx="2119.56" cy="318.84" rx="51.58" ry="21.57"/>
			
				<ellipse transform="matrix(0.9919 -0.1272 0.1272 0.9919 -18.3766 241.0929)" fill="#39FF6A" cx="1877.934" cy="264.387" rx="51.43" ry="21.64"/>
			
				<ellipse transform="matrix(0.4802 -0.8771 0.8771 0.4802 833.115 2219.5305)" fill="#39FF6A" cx="2289.336" cy="406.806" rx="15.38" ry="36.88"/>
			
				<ellipse transform="matrix(0.9919 -0.1272 0.1272 0.9919 -18.9948 284.7666)" fill="#39FF6A" cx="2219.475" cy="291.063" rx="51.43" ry="21.64"/>
			
				<ellipse transform="matrix(0.9798 -0.2001 0.2001 0.9798 -39.3352 306.2035)" fill="#39FF6A" cx="1495.481" cy="347.739" rx="24.21" ry="10.23"/>
			
				<ellipse transform="matrix(0.9171 -0.3987 0.3987 0.9171 36.3126 702.4033)" fill="#39FF6A" cx="1706.729" cy="263.906" rx="24.127" ry="10.323"/>
			
				<ellipse transform="matrix(0.9171 -0.3987 0.3987 0.9171 69.9332 795.5273)" fill="#39FF6A" cx="1947.289" cy="229.655" rx="24.05" ry="10.29"/>
			
				<ellipse transform="matrix(0.9171 -0.3987 0.3987 0.9171 53.6508 921.9557)" fill="#39FF6A" cx="2243.062" cy="332.01" rx="24.05" ry="10.29"/>
			
				<ellipse transform="matrix(0.7373 -0.6756 0.6756 0.7373 309.68 1733.1597)" fill="#39FF6A" cx="2383.246" cy="468.409" rx="10.24" ry="24.19"/>
			<path fill="#39FF6A" d="M2319,642.27c-4.3,3.67-15.06-1.39-24-11.3s-12.73-20.91-8.43-24.57s15.06,1.39,24,11.29
				S2323.33,638.6,2319,642.27z"/>
			
				<ellipse transform="matrix(0.9147 -0.404 0.404 0.9147 76.3943 838.9906)" fill="#39FF6A" cx="2026.266" cy="238.472" rx="46.19" ry="10.38"/>
			<path fill="#39FF6A" d="M1789.5,216.26c3.53,7.29-7.62,19.42-24.9,27.09s-34.15,8-37.68,0.68s7.62-19.41,24.9-27.08
				S1786,209,1789.5,216.26z"/>
			
				<ellipse transform="matrix(0.7121 -0.702 0.702 0.7121 63.1397 1159.36)" fill="#39FF6A" cx="1445.327" cy="502.686" rx="42.53" ry="18.63"/>
			<path fill="#58693E" d="M1866.7,658.49c1-1,1.91-2.07,2.85-3.11c11.57-12.72,18.64-26.82,16.58-44.38
				c-1.8-15.36-8.73-29.52-16.82-42.77c-0.653-0.042-1.298-0.166-1.92-0.37l-4.35-1.42c5.35,8.54,10.36,17.24,13.9,26.59
				c6.16,16.22,7.61,33.84-2.2,48.72c-2.764,4.045-5.855,7.858-9.24,11.4c1.089,1.514,1.528,3.401,1.22,5.24L1866.7,658.49z"/>
			<path fill="#58693E" d="M1779,550.75c4.47,6.32,7.86,13.36,13.88,18.52c9.35,8,22.77,8.24,29.55-1.33
				c1.61,9.4,9.22,16.85,12.61,25.66c2.2,5.16,2.554,10.92,1,16.31c-1.53,5-4.28,9.53-6.34,14.34l3.68,2.93
				c3.59-9.22,9.59-17.45,7.91-28c-0.84-5.28-3.14-10.25-5.79-14.92c-3-5.34-7.29-10.41-8.47-16.5c-0.83-4.3-0.16-8.67,0.25-13
				l-3.07-1c-0.83-0.267-1.605-0.68-2.29-1.22c0,0.53,0,1.06,0,1.58c0,6.92-3.19,14.85-10.73,16.69c-8.18,2-15.75-4.22-20.31-10.2
				c-3.89-5.13-6.65-11-10.95-15.86c-3.46-3.91-7.78-6.26-12.58-8c-0.309,1.563-1.141,2.974-2.36,4
				C1770.4,542.78,1775.14,545.31,1779,550.75z"/>
			<path fill="#58693E" d="M2035.29,558.73c-8.09,0.86-15.78,3.79-21,10c-4.38,5.26-6.25,11.85-7,18.52
				c-0.69,5.89-0.41,12.43-0.38,19l4.26-3.45c0-1.16,0-2.3,0-3.44c0.06-7.67,0.19-15.87,3.54-22.91c4.09-8.57,12.59-12.68,22-13.47
				c7.83-0.66,15.66,0,23.38,0.28l0,0l5.17-4.2C2055.41,559.15,2045.2,557.68,2035.29,558.73z"/>
			<path fill="#58693E" d="M2110,488.6c-1.107,2.207-2.123,4.473-3.05,6.8c-3.71,9.41-4.73,18.85-4.84,28.91
				c0,1.75-0.07,3.48-0.2,5.19l4.83-3.9c0.09-5.73-0.06-11.49,1-17.08c1.772-8.486,4.989-16.604,9.51-24L2110,488.6z"/>
			<path fill="#58693E" d="M1911.74,545.07c-0.27,11.51,1,23.29,6.46,33.78c5.88,11.22,17.24,18.32,23.49,29.21
				c7.44,13,0.6,27.86,2.81,41.66c0.708,4.177,1.965,8.243,3.74,12.09l-0.25-4.27c-0.097-1.809,0.521-3.583,1.72-4.94
				c-0.844-3.347-1.26-6.788-1.24-10.24c0-7.28,1.59-14.46,1.26-21.76c-0.6-12.93-8.82-21.52-17.48-30.58
				c-9.52-10-14.72-20.93-15.76-34.44c-1.89-24.62,6.48-49.48-0.39-73.87c-1.227-4.266-2.868-8.403-4.9-12.35l-2.51,2.85
				c-0.236,0.261-0.49,0.505-0.76,0.73C1918.41,496.15,1912.31,520.59,1911.74,545.07z"/>
			<path fill="#58693E" d="M1977.65,569.51c-0.23,10.23,0.33,20.62-1.61,30.7c-1.8,9.4-6,17.95-10.09,26.52
				c-2.983,6.002-5.474,12.236-7.45,18.64l6.52-5.27c1.87-4.84,4.1-9.52,6.2-13.9c3.7-7.74,7.32-15.58,9-24
				c1.85-9.1,1.76-18.45,1.84-27.72c0.07-8.43,0.38-17.92,2.78-26.54l-5.59,4.21C1978.238,557.883,1977.702,563.689,1977.65,569.51z
				"/>
			<path fill="#58693E" d="M1960.21,1112.59c-7.88-20.8-11.23-42.78-16.73-64.18c-5.66-22-14.47-41.71-28.24-60.23
				c-14.21-19.12-31-37.22-38.56-60c-3.78-11.34-5-23.42-1.73-34.9c3.11-10.86,9.62-20.34,15.56-29.84
				c5.62-9,10.45-18.27,13.53-28.45c3.3-10.88,4.82-22.22,5.66-33.54c1.63-21.91,0.32-44.11,4-65.8c3.47-20.33,11-41.46,27.5-55.08
				c2.427-1.936,5.032-3.637,7.78-5.08l-0.29-5.19c-2.577,1.357-5.06,2.887-7.43,4.58c-13.88,10.11-22.47,25.26-27.53,41.2
				c-12.6,39.59-1.71,82.82-15.5,122.07c-6.9,19.63-22.87,35.07-28.07,55.35c-2.183,9.005-2.227,18.395-0.13,27.42
				c2.19,14.36,8.24,27.54,13.49,41.06c5.678,14.381,8.903,29.612,9.54,45.06c0.57,15.78-2.8,30.41-5.65,45.75
				c-2.67,14.31-0.89,27.47,3.34,41.42c4.55,15,9,29.28,8.06,45c-0.92,16.19-5.64,31.81-10,47.31c-3.88,13.83-6.47,27.42-2.7,41.7
				c3.55,13.43,10.76,25.63,14.95,38.85c0.871,2.761,1.556,5.577,2.05,8.43h4.39c-1.471-7.611-3.778-15.036-6.88-22.14
				c-5.86-13.85-12.77-27.71-12-43c0.88-16.67,7.9-32.73,11.44-48.92c3.29-15.08,4.71-30.56,1.45-45.88s-10.41-29.81-11.15-45.48
				c-0.74-15.9,5.47-31.28,6.79-47c1.413-17.15-0.409-34.413-5.37-50.89c-1.51-5-3.39-10-5.35-14.93
				c11.42,17.16,25.87,32.31,36.33,50.09c11.07,18.82,16.05,40,20.73,60.92c5,22.53,10,45.6,22,65.89
				c3.03,5.064,6.37,9.937,10,14.59l-0.48-8.72C1968.938,1131.545,1963.965,1122.325,1960.21,1112.59z"/>
			<path fill="#58693E" d="M2044.69,526.52c5.041-2.484,9.478-6.041,13-10.42c-1.565-0.203-3.031-0.88-4.2-1.94
				c-3.958,4.739-9.18,8.256-15.06,10.14c-4.426,1.459-9.174,1.643-13.7,0.53c-2.261-0.614-4.485-1.358-6.66-2.23
				c-0.379,0.509-0.831,0.961-1.34,1.34l-2.55,1.92c3.16,1,6.22,2.4,9.44,3.21C2030.723,530.76,2038.195,529.856,2044.69,526.52z"/>
			<path fill="#58693E" d="M1919.29,830.54c-2.36,12,0.29,23.88,2.89,35.7c1.44,6.56,2.86,13.19,3,19.89c0.1,7-1.69,13.1-4.7,19.33
				c-5.5,11.42-7.28,22.44-4.67,35s8.55,24.61,14.36,36.23c6.58,13.14,12.92,26.39,18.91,39.79
				c7.92,17.733,15.307,35.663,22.16,53.79l-0.82-14.55l0,0c-3.913-9.933-7.997-19.803-12.25-29.61
				c-5.553-12.8-11.37-25.497-17.45-38.09c-6.12-12.64-13.11-25-17.67-38.32s-5.87-26.56,0.06-39.31c2.64-5.67,5.34-11,6.19-17.26
				c0.634-5.583,0.455-11.228-0.53-16.76c-2-12.68-6.54-25.26-5.87-38.18s6.92-24.64,14.08-35.15c5.46-8,12-16,17.86-24.34
				l-0.41-7.25c-6.17,9.38-13.56,18.22-19.73,27C1927.82,808.16,1921.6,818.78,1919.29,830.54z"/>
			<path fill="#58693E" d="M1852.43,978c-0.7-2.31-1.45-4.62-2.24-6.91c-0.13-0.42-0.28-0.83-0.41-1.24c-0.14-0.66-0.26-1.31-0.35-2
				c-0.063-0.584-0.354-1.119-0.81-1.49c-5-15.28-9.08-30.2-9.28-46.47c-0.48-39.9,16-77,33-112.19c0.155-0.31,0.23-0.654,0.22-1
				c3.476-6.89,5.986-14.225,7.46-21.8c2.18-11.72,0.26-23.11-0.49-34.89c-0.88-13.84,3.89-25.44,9.19-37.9
				c5.22-12.287,10.443-24.573,15.67-36.86c4.76-11.22,9.74-22.61,11.4-34.8c1.55-11.45-0.75-22.14-5.27-32.82s-9.81-21-12-32.54
				c-2.21-11.74-2.09-23.74-2.23-35.59c-0.26-21.84-2-43.52-15.83-61.88s-34.39-31-48.35-49.43
				c-8.129-10.761-13.755-23.2-16.47-36.41l-5.49-5.38c1.432,10.39,4.571,20.473,9.29,29.84c9.7,19.31,26.51,32.64,42.07,47.33
				c7.65,7.21,15,14.91,20.23,24c6,10.43,8.47,22.11,9.38,33.84c1.76,22.65-1.4,46,6.62,67.92c4,10.85,10.11,21,12.8,32.23
				c3.11,13-0.17,26.07-4.72,38.22c-4.73,12.61-10.38,24.92-15.65,37.31c-4.8,11.3-10.68,22.64-13.74,34.56
				c-3.13,12.19-0.41,24.31,0.17,36.67c0.436,11.616-1.913,23.167-6.85,33.69c-8.11,17.74-21.26,32.25-35.43,45.61l-1.25,7.26
				c8.377-7.508,16.242-15.569,23.54-24.13c-10,22.79-18.28,46.34-20.93,71.25c-1.8,16.92-0.94,34.22,3.72,50.78
				c1.74,6.22,4,12.39,6.15,18.59c0.526,2.156,1.225,4.266,2.09,6.31c2.53,8,4.47,16.14,4.43,24.58c-0.06,9.11-2.36,18-4.68,26.71
				c-2.32,8.71-4.72,17.54-7.08,26.32c-4.09,15.21-6.95,32-15.06,45.71c-4.33,7.34-10.48,12-17.2,17.1
				c-5.734,4.33-10.285,10.036-13.23,16.59c-3.11,6.66-5.64,13.54-9.08,20.06c-1.79,3.4-3.7,6.73-5.7,10l-2,11.55
				c6.84-10.49,13.09-21.24,17.89-32.82c3-7.18,6-14.27,12-19.55c5.81-5.12,12.48-8.84,17.32-15c8.94-11.29,12.25-25.73,15.9-39.32
				c4.59-17.07,10-34.13,13.55-51.45c1.834-8.049,2.277-16.352,1.31-24.55c0-0.16,0-0.32-0.08-0.47c0.77,1.39,1.52,2.8,2.23,4.22
				c5.38,10.93,7.94,22.92,8.89,34.88c1.89,23.8-1.77,47.57-2.63,71.3c-0.89,24.73-0.28,49.67-3.85,74.2
				c-1.638,12.005-4.596,23.793-8.82,35.15c-4.63,12.13-10.87,23.56-15.94,35.51c-3.796,8.948-7.104,18.094-9.91,27.4h4.7
				c2.34-7.587,5.007-15.067,8-22.44c4.95-12.08,11.15-23.61,16.09-35.71c4.422-10.969,7.612-22.396,9.51-34.07
				c4-23.76,3.82-48,4.47-72.06c0.63-23.66,3.94-47.28,3.3-71c-0.34-12.57-2-25.32-6.45-37.25
				C1862.32,994.63,1856.19,986.61,1852.43,978z"/>
			<path fill="#508750" d="M1610.49,1304.31l-1999.23,148.06l241.24-320.22l70.35-93.38c0,0,82.97-66.52,132.71-41.77
				c0,0,4.77-35.42,63.65-56.74s123.15,22.3,123.15,22.3s21.32-113.17,157.15-135.36S654,977.7,654,977.7s16.64-30.42,72.94-21.67
				S833,1036.86,833,1036.86s20.14-38.95,103.3-14.18c83.16,24.77,120.28,114.32,120.28,114.32s8.75-28.11,80.45-12.78
				c48.94,10.48,96.91,48.63,122.43,71.8c11.87,10.77,18.88,18.31,18.88,18.31s14.92-19.39,76.49-9.93
				S1610.49,1304.31,1610.49,1304.31z"/>
			<path opacity="0.15" enable-background="new    " d="M1265.17,1273.23c-52.56-8.08-65.29,8.48-65.29,8.48
				s-59.43-63.83-120.64-76.92s-68.66,10.91-68.66,10.91s-31.68-76.43-102.66-97.57s-88.18,12.11-88.18,12.11s-42.53-61.54-90.59-69
				s-62.27,18.5-62.27,18.5s-101.26-147.39-217.2-128.46c-15.078,2.387-29.822,6.539-43.93,12.37c-5-21-22.56-34.82-43.54-32.36
				c-24.95,2.93-45.27,27.82-45.39,55.59c-0.07,15.94,6.54,29.36,16.89,37.35c-14.5,23.15-18.17,42.6-18.17,42.6
				s-54.88-37.25-105.14-19s-54.32,48.44-54.32,48.44c-42.46-21.14-113.29,35.64-113.29,35.64l-266,353.06l1706.6-126.39
				C1483.39,1358.58,1317.73,1281.3,1265.17,1273.23z"/>
			<path opacity="0.15" enable-background="new    " d="M48.1,1356.12c0,0,72-179.4,307.81-155.86c0,0,6.94-45,87.1-39.22
				s155,39.7,155,39.7s-9.87-24.32,49.49-23.9s101,18.72,101,18.72s53.55-22.49,133.64-3.12s159.94,62.4,159.94,62.4L192.31,1339
				L48.1,1356.12z"/>
			<path fill="#62A662" d="M1259.46,1196c-5,2.07-6.84,4-6.84,4s-22.41-33-77.87-49.59s-91.48-2.06-91.48-2.06
				s-1.83-8.28-20.31-9.08s-23.38,6.94-23.38,6.94s-23.11-63.38-35.73-62.33s-17.67,25.27-17.67,25.27s-17.62-68.29-46.49-70.92
				s-40.8,12.08-40.8,12.08S873,1025.94,855,1030.82c-15.5,4.21-17.21,32.56-17.39,40.42c-0.19-6.18-2.32-25.11-20.63-36
				c-22.12-13.13-38.5-11.4-38.5-11.4s8.32-13.52-7.73-21.89s-34.09-1.8-34.09-1.8s13.8-28.55-24.89-24.21s-56.44,32.37-56.44,32.37
				c-28.26-65.87-92.4-102.22-93.4-102.78c0.32,0.46,6.88,10.52-12.88,16.65c-20.2,6.28-105.83-2.29-111.72-19.62
				s20.62-23.12,20.62-23.12s-64.28-47-106.74-22.71c-42,24.07-48.82,74.26-49,75.24c-0.56-0.36-20.66-13.3-39.54,10.44
				c-19.16,24.07-19.65,69.45-19.65,69.45s-66.83-73.64-120.9-60.68C68.61,964,73.86,1043.41,74,1044.93
				c-0.39-1.06-15.6-42.07-48.85-30.25c-33.69,12-49.25,74.84-50.27,76.2c0,0-57.9,19.81-122.34,41.27l70.35-93.38
				c0,0,82.93-66.52,132.67-41.77c0,0,4.77-35.42,63.65-56.74s123.15,22.3,123.15,22.3s21.32-113.17,157.15-135.36
				S654,977.7,654,977.7s16.64-30.42,72.94-21.67S833,1036.86,833,1036.86s20.14-38.95,103.3-14.18
				c83.16,24.77,120.28,114.32,120.28,114.32s8.75-28.11,80.45-12.78C1186,1134.67,1233.94,1172.82,1259.46,1196z"/>
			<path fill="#31DB5B" d="M2978.54,1526.5l-63.84,331.18L-215.73,1968l-164.59-515.73c0,0,545.1-237.39,1516.5-256.71
				c36.26-0.72,73.117-1.13,110.57-1.23c217.318-0.548,434.422,13.641,649.82,42.47c42.38,5.68,83.713,11.777,124,18.29
				c15.713,2.527,31.267,5.11,46.66,7.75c190.48,32.64,355.75,73.07,491.28,112.39l6.46,1.88
				C2829.24,1454.22,2978.54,1526.5,2978.54,1526.5z"/>
			<path fill="#39FF6A" d="M2527.26,1398.62c-94.62-43-210.06-65.54-212.16-65.94c112.05,40.27,123.29,66.45,60,41.94
				s-238.66-65.36-238.66-65.36l-118-46.44l2.18-7.75c15.713,2.527,31.267,5.11,46.66,7.75c190.48,32.64,355.75,73.07,491.28,112.39
				l6.46,1.88C2566.74,1400.2,2557.66,1412.44,2527.26,1398.62z"/>
			<path fill="#39FF6A" d="M1774.82,1277.28c-33.45-2.72-60.93-0.62-61.36,4.68s26.35,11.79,59.81,14.5s60.93,0.61,61.36-4.68
				S1808.28,1280,1774.82,1277.28z"/>
			<path fill="#39FF6A" d="M1897.13,1248.49l-0.56-11.71c-215.398-28.829-432.502-43.018-649.82-42.47
				c-37.453,0.093-74.31,0.503-110.57,1.23l165.93,39.88c0,0,65,43.9,248.29,53.25c179.08,9.13,90.28-30.61-38-33.4
				c17.25,0,52.52-1,49.12-10.79c-4.49-12.84-158.7-13.67-158.7-13.67s104.85-11.09,196.08-8S1730,1235,1730,1235s-51.41-4.42-62,2
				s59.28,16.68,116.62,20.08S1897.13,1248.49,1897.13,1248.49z"/>
			<ellipse opacity="0.2" fill="#155C27" enable-background="new    " cx="1926.974" cy="1441.531" rx="401.6" ry="29.02"/>
			<ellipse opacity="0.2" fill="#155C27" enable-background="new    " cx="1250" cy="1495.42" rx="270.3" ry="30.06"/>
			<ellipse opacity="0.2" fill="#155C27" enable-background="new    " cx="680.82" cy="1383.09" rx="161.94" ry="18.01"/>
			<path fill="#FFFFFF" d="M373,1116L373,1116z"/>
			<path fill="#FFFFFF" d="M341.89,1116L341.89,1116z"/>
			<path fill="#FFFFFF" d="M42.07,729L42.07,729z"/>
			<path fill="#FFFFFF" d="M276.05,1268.4L276.05,1268.4z"/>
			<path fill="#FFFFFF" d="M210.43,1268.4L210.43,1268.4z"/>
			<path fill="#31DB5B" d="M1861.76,1480.26c0,0-23.59-23-22.61-38.66s17.31,9.35,23.59,33.64c0,0-8.24-39.36,1-54.86
				s11.72,27.64,2.37,55.69c0,0,8.37-33.35,20.52-35s-5.59,30-18.29,39.22S1861.76,1480.26,1861.76,1480.26z"/>
			<path fill="#39FF6A" d="M1491.31,1310c0,3-15.39,5.44-34.37,5.44s-34.37-2.43-34.37-5.44s15.39-5.44,34.37-5.44
				S1491.31,1307,1491.31,1310z"/>
			<ellipse opacity="0.2" fill="#155C27" enable-background="new    " cx="2030.81" cy="1515.91" rx="356.91" ry="29.77"/>
			<path opacity="0.2" fill="#155C27" enable-background="new    " d="M586.22,1474.1c-2.91,0-5.7,0.14-8.29,0.39
				c0.249-0.508,0.382-1.064,0.39-1.63c0-7.07-20.55-12.8-45.9-12.8s-45.9,5.73-45.9,12.8s20.55,12.79,45.9,12.79
				c9.978,0.113,19.937-0.893,29.69-3c2.59,3,12.4,5.31,24.11,5.31c13.69,0,24.79-3.1,24.79-6.91S599.91,1474.1,586.22,1474.1z"/>
			<ellipse opacity="0.2" fill="#155C27" enable-background="new    " cx="478.01" cy="1511.69" rx="218.1" ry="24.26"/>
			<path fill="#FFC718" d="M2132.38,1623.51c2.37,12.83,9.73,27.25,15.73,37.43c2-0.27,3.94-0.58,5.89-0.94s3.91-0.77,5.85-1.22
				c2-11.65,3.7-27.75,1.33-40.58c-4.21-22.82-18.51-19.67-18.51-19.67S2128.17,1600.69,2132.38,1623.51z"/>
			<path fill="#FFC718" d="M2204.26,1597.26c0.75,4.08,5,6.71,9.5,5.88s7.52-4.81,6.77-8.88s-5-6.71-9.5-5.88
				S2203.51,1593.18,2204.26,1597.26z"/>
			<path fill="#508750" d="M1978.63,1662.89l711.5-3.7l-109.72-133.78l-32-39c0,0-34.29-26.65-49.75-13.93c0,0-4.46-15.55-26.76-23
				s-41.35,14.18-41.35,14.18s-16.39-49.5-65.69-54.63s-77.19,75.64-77.19,75.64s-8.22-12.93-27.24-7.09s-30.77,39.57-30.77,39.57
				s-10.13-16.6-37.28-2.71s-33.07,54.91-33.07,54.91s-5.28-12.18-29.17-2.88c-16.31,6.35-30.09,25-37.19,36.12
				c-3.3,5.2-5.17,8.78-5.17,8.78s-6.75-8.08-27.55-1.75S1978.63,1662.89,1978.63,1662.89z"/>
			<path opacity="0.15" enable-background="new    " d="M2097.06,1637.1c17.76-5.41,23.52,1.49,23.52,1.49s15.76-30.39,36.16-38.33
				s24.89,2.46,24.89,2.46s5.06-35,28.24-46.88s31.82,2.32,31.82,2.32s10-28.8,26.26-33.78s23.26,6,23.26,6s23.81-68.94,65.89-64.56
				c5.611,0.577,11.116,1.922,16.36,4c0.09-9.48,5.14-16.24,12.68-15.88c9,0.44,18,10.78,20.28,23.1c1.28,7.08,0,13.26-3,17.17
				c4.045,5.631,7.318,11.779,9.73,18.28c0,0,16.26-18.44,35.3-12.1s22.84,19.61,22.84,19.61c13.19-10.86,42.46,11.89,42.46,11.89
				l121,147.49l-607.35,3.16C2027.4,1682.54,2079.29,1642.51,2097.06,1637.1z"/>
			<path opacity="0.15" enable-background="new    " d="M2485.91,1601.05c0,0-41.35-31.62-76.33-27.92c0,0-6-19.71-33.59-14.38
				s-51.13,23-51.13,23s1.54-11.14-19.21-8.89s-33.86,11.82-33.86,11.82s-20.52-8.13-47,3.25s-51.07,33.26-51.07,33.26l304.1,7.86
				L2485.91,1601.05z"/>
			<path fill="#62A662" d="M2093,1602.61c0.989,0.346,1.906,0.868,2.71,1.54c0,0,5.23-15.45,23.34-24.72s31.86-4.09,31.86-4.09
				s0-3.74,6.39-4.74s8.74,2.27,8.74,2.27s3.08-28.94,7.58-28.91s8.18,10.61,8.18,10.61s0.78-30.93,10.68-33.1
				s15.23,3.94,15.23,3.94s7.14-11.71,13.83-10.16c5.76,1.33,8.6,13.85,9.28,17.34c-0.42-2.75-1.17-11.23,4.38-16.7
				c6.71-6.59,12.58-6.4,12.58-6.4s-4-5.71,1-10s11.79-2,11.79-2s-7.09-12.2,6.8-11.61s22.31,12.4,22.31,12.4
				c4.69-30.22,24.28-48.58,24.58-48.86c-0.07,0.21-1.58,4.91,5.82,6.94c7.57,2.09,36.87-4.69,37.56-12.59s-9-9.55-9-9.55
				s18.79-23.09,35.57-13.78c16.62,9.22,22.95,31.27,23.08,31.7c0.17-0.18,6.18-6.63,14.66,3.26s12.36,30.14,12.36,30.14
				s17.59-35,37.53-31.13c19.76,3.84,24.18,39.26,24.27,39.94c0-0.49,2.14-19.22,14.71-15.13c12.74,4.15,23.15,31.51,23.61,32.08
				c0,0,21.83,6.79,46.08,14.07l-32-39c0,0-34.29-26.65-49.75-13.93c0,0-4.46-15.55-26.76-23s-41.35,14.18-41.35,14.18
				s-16.39-49.5-65.69-54.63s-77.19,75.64-77.19,75.64s-8.22-12.93-27.24-7.09s-30.77,39.57-30.77,39.57s-10.13-16.6-37.28-2.71
				s-33.07,54.91-33.07,54.91s-5.28-12.18-29.17-2.88C2113.84,1572.84,2100.06,1591.44,2093,1602.61z"/>
			<path opacity="0.2" fill="#155C27" enable-background="new    " d="M1554,1559.21c-23.09,0-45.18,1.07-65.51,3
				c-5.59-4.61-32.22-8.1-64.25-8.1c-36.09,0-65.34,4.43-65.34,9.9c0,5.24,27,9.53,61,9.87c-29.76,8.08-47.92,18.86-47.92,30.7
				c0,25.08,81.48,45.4,182,45.4s182-20.32,182-45.4S1654.5,1559.21,1554,1559.21z"/>
			<path opacity="0.2" fill="#155C27" enable-background="new    " d="M1671.25,1554.14c28.56,0,51.72-5.12,51.72-11.45
				s-23.16-11.45-51.72-11.45s-51.73,5.13-51.73,11.45S1642.68,1554.14,1671.25,1554.14z"/>
			<ellipse opacity="0.2" fill="#155C27" enable-background="new    " cx="1852.77" cy="1590.72" rx="95.74" ry="36.58"/>
		</g>
	</g>
	<g>
		<defs>
			<rect id="SVGID_00000044154246761982157990000001531078978843595444_" x="-2641.56" width="2500" height="1600"/>
		</defs>
		<clipPath id="SVGID_00000123411001460082388480000014508381871078826662_">
			<use xlink:href="#SVGID_00000044154246761982157990000001531078978843595444_"  overflow="visible"/>
		</clipPath>
		<g clip-path="url(#SVGID_00000123411001460082388480000014508381871078826662_)">
			<path fill="#508750" d="M-1413.71,1260.75l1585.83,187.57L-7.46,1174.15l-52.37-79.94c0,0-63.46-58-104-39
				c0,0-2.42-29.62-48.47-49.25s-98.91,14.58-98.91,14.58s-12.56-94.83-119.83-117.66s-208.42,117-208.42,117
				s-12.07-25.85-57.23-20.38s-87.64,63.83-87.64,63.83s-14.52-33.06-81.68-15.14s-100.19,91.21-100.19,91.21
				s-5.87-23.66-63.55-13.22c-39.37,7.14-79,37.33-100.26,55.78c-9.87,8.58-15.75,14.63-15.75,14.63s-11.12-16.61-60.51-10.73
				S-1413.71,1260.75-1413.71,1260.75z"/>
			<path opacity="0.15" enable-background="new    " d="M-1137.59,1246c42.16-5,51.65,9.15,51.65,9.15s49.8-51.18,99-60.1
				s54.24,11.29,54.24,11.29s28.2-62.56,85.53-77.86s69.73,12.91,69.73,12.91s36.26-49.82,74.81-54.48s48.85,17.4,48.85,17.4
				s86.38-119.31,177.94-99.85c11.937,2.472,23.524,6.405,34.5,11.71c4.79-17.29,19.31-28.25,35.92-25.53
				c19.75,3.24,35,24.6,34,47.71c-0.56,13.27-6.35,24.21-14.91,30.53c10.65,19.73,12.82,36,12.82,36s45.13-29.21,84.43-12.45
				s41.37,42,41.37,42c34.62-16.21,88.79,33.31,88.79,33.31l198,302.27L-1314.65,1310C-1314.65,1310-1179.75,1251-1137.59,1246z"/>
			<path fill="#31DB5B" d="M337,1526.5l-63.84,331.18L-2857.29,1968l-164.59-515.73c0,0,545.1-237.39,1516.5-256.71
				c36.26-0.72,73.117-1.13,110.57-1.23c217.314-0.555,434.415,13.628,649.81,42.45c42.38,5.68,83.713,11.777,124,18.29
				c15.713,2.527,31.267,5.11,46.66,7.75c190.48,32.64,355.75,73.07,491.28,112.39l6.46,1.88C187.68,1454.22,337,1526.5,337,1526.5z
				"/>
			<path fill="#508750" d="M-662.93,1662.89l711.51-3.7l-109.72-133.78l-32-39c0,0-34.29-26.65-49.75-13.93c0,0-4.46-15.55-26.76-23
				s-41.35,14.2-41.35,14.2s-16.39-49.5-65.69-54.63s-77.18,75.64-77.18,75.64s-8.23-12.93-27.25-7.09s-30.77,39.57-30.77,39.57
				s-10.12-16.6-37.28-2.71s-33.07,54.91-33.07,54.91s-5.28-12.18-29.17-2.88c-16.31,6.35-30.09,25-37.19,36.12
				c-3.3,5.2-5.16,8.78-5.16,8.78s-6.76-8.08-27.56-1.75S-662.93,1662.89-662.93,1662.89z"/>
		</g>
	</g>
</g>
</svg>
