<?xml version="1.0" encoding="utf-8"?>
<!-- Generator: Adobe Illustrator 26.0.3, SVG Export Plug-In . SVG Version: 6.00 Build 0)  -->
<svg version="1.1" id="Layer_1" xmlns="http://www.w3.org/2000/svg" xmlns:xlink="http://www.w3.org/1999/xlink" x="0px" y="0px"
	 viewBox="0 0 2500 1600" enable-background="new 0 0 2500 1600" xml:space="preserve">
<g id="Background">
	<rect fill="#7FDCFF" width="2500" height="1600"/>
	<path fill="#94DCFF" d="M1852.28,676.24c-21.08,0.61-27.63,22.79-10.2,34.51c9.139,5.982,19.006,10.771,29.36,14.25
		c198.76,67.4,412.15,90.68,606.38,168.76c7.387,2.973,14.78,6.017,22.18,9.13V779.77c-10.893-3.853-21.81-7.617-32.75-11.29
		C2268.69,702,2057.43,670.32,1852.28,676.24z"/>
	<path fill="#94DCFF" d="M2024.28,830.26c-47.26-18-91.15-43.49-139.65-58.2c-41-12.43-83.75-16.73-126.05-20.93
		c-27.84-2.767-55.81-5.477-83.91-8.13c14.52-7.749,28.389-16.662,41.47-26.65c11.27-8.63,22.5-19.4,22.94-31.55
		c0.77-21.31-29.53-29.67-54.25-32.75L1431,620.45c-85.73-10.67-173.45-21.31-261.54-7.07c-84.72,13.7-164.21,49.5-245.17,78.26
		s-169.55,51.1-250.23,35.72c-13.22-2.52-26.9-6.55-34-15.89c-11.31-14.79-0.74-37.27,17.12-49.59s40.71-17.08,62.56-21.42
		L1018,581.29c17.36-3.46,26.17-20.75,16.23-31.91l-8.69-9.76c-7.57-8.51-4.5-21.41,6.85-28.27
		c95.59-57.73,216.62-74.7,329.85-77.65c121.41-3.15,243,6.77,364-15.2l0.53-0.1c22.61-4.15,28.53-29.86,8.6-37.28
		c-258.7-96.26-573.86-69-871.42-39.46c-42.3,4.2-85.09,8.5-126,20.93c-48.5,14.71-92.39,40.21-139.65,58.2
		c-111.73,42.49-236.7,41.21-348.69,82.9c-59.68,22.23-113.94,56.11-174.84,75.15c-24.218,7.649-49.383,11.89-74.77,12.6v354.83
		c112.935-33.369,228.646-56.499,345.73-69.11c67-7.19,135.1-10.77,199.06,0.4c50.06,8.75,98,26.51,150.46,23.54
		c70.14-4,131.71-43.25,196-74.4c1.455,0.506,2.946,0.901,4.46,1.18l0.53,0.09c121,22,242.54,12,364,15.21
		c113.24,2.94,234.26,19.91,329.85,77.65c11.35,6.85,14.42,19.76,6.85,28.26l-8.69,9.76c-9.94,11.16-1.13,28.46,16.23,31.91
		l298.32,59.17c21.85,4.34,44.7,9.08,62.56,21.42s28.43,34.8,17.13,49.59c-7.13,9.34-20.81,13.38-34,15.89
		c-80.68,15.38-169.26-6.94-250.23-35.71s-160.45-64.57-245.17-78.27c-88.09-14.24-175.81-3.6-261.54,7.07l-253.84,31.61
		c-24.72,3.07-55,11.43-54.25,32.75c0.44,12.14,11.68,22.91,22.94,31.54c103.78,79.47,254,83.5,385.15,72.78
		s269.4-29.94,395.58,18.23c81.1,31,154.2,88.88,240.16,93.75c52.44,3,100.4-14.8,150.46-23.55c64-11.17,132-7.58,199.06-0.4
		c75.054,8.062,149.577,20.48,223.19,37.19v-353.5c-42.61-18.36-83.41-40.88-127.1-57.16
		C2260.91,871.44,2135.94,872.75,2024.28,830.26z"/>
	<path fill="#94DCFF" d="M0,0v546.14c5.4-3.35,10.83-6.59,16.29-9.77c43.36-15.12,85.91-35,128.4-52.1
		c194.23-78.09,407.62-101.36,606.38-168.76c10.351-3.477,20.218-8.259,29.36-14.23c17.43-11.72,10.89-33.9-10.2-34.51
		c-38.853-1.12-77.883-0.9-117.09,0.66c68.07-46.17,135.37-94.17,209.47-121.43c199.18-73.27,412.37,13.69,619.87,1.85
		c91.22-5.21,182.07-29.64,273.1-20.61c264.51,26.25,482.88,327.11,744.42,324.36V0H0z"/>
	<path fill="#FFFFFF" d="M2500,238.46v133.79c-109.81-33.37-260.88-72.69-443-103.55c-394.23-66.78-570.81-49.81-570.81-49.81
		s132.44-31.69,249-31.69c0,0,45.28-79.24,100.74-77s95.07,32.85,95.07,32.85s26.33-87.16,133.72-83.76
		c107.39,3.4,173,81.5,173,81.5s31.58-136,115.12-81.6S2467,252.85,2467,252.85S2480.79,240.41,2500,238.46z"/>
	<path fill="#FFFFFF" d="M2500,675.47V801c-27.407-5.673-56.207-11.087-86.4-16.24c-255.88-43.34-370.49-32.32-370.49-32.32
		s86-20.58,161.63-20.58c0,0,29.39-51.42,65.39-50s61.72,21.3,61.72,21.3s17.08-56.57,86.78-54.37
		C2452.93,649.88,2480.67,662.71,2500,675.47z"/>
	<path fill="#FFFFFF" d="M901.28,474c0,0-148.07-14.24-478.63,41.76C239.27,546.78,93.48,588.07,0,618.69v-77.31
		c4.63-17.6,13-38.49,27.59-46.27c27.05-14.45,51.25,7.33,51.25,7.33s25.63-116.75,95.68-162.39S271,408.47,271,408.47
		s55.1-65.47,145.14-68.34s112.12,70.24,112.12,70.24s33.22-25.63,79.73-27.53s84.48,64.55,84.48,64.55
		C790.23,447.39,901.28,474,901.28,474z"/>
	<path fill="#FFFFFF" d="M165.6,246.28c0,0,115.57-49.47,298.83-80.51s265.36-23.16,265.36-23.16S668.22,127.88,614,127.88
		c0,0-21-36.84-46.83-35.78c-15.863,0.843-31.169,6.131-44.17,15.26c0,0-12.24-40.52-62.16-38.94s-80.45,37.88-80.45,37.88
		s-14.69-63.23-53.52-37.93s-53.05,90-53.05,90s-13.41-12.07-28.41-4.06s-18.16,41-18.16,41S199.45,214.18,165.6,246.28z"/>
	<path fill="#FFFFFF" d="M787.25,287.11c0,0,118.15-43,302.86-63.75s266.23-8.36,266.23-8.36s-60.65-18.14-114.76-21.16
		c0,0-19-38-44.77-38.33c-15.901-0.051-31.496,4.375-45,12.77c0,0-10-41.14-59.89-42.34s-82.43,33.35-82.43,33.35
		s-11.14-63.95-51.32-40.85s-58,86.93-58,86.93s-12.73-12.8-28.15-5.63s-20.41,39.93-20.41,39.93S822.84,257,787.25,287.11z"/>
	<path fill="#FFFFFF" d="M1768.29,515.71c0,0-91.79-33.37-235.3-49.52s-206.84-6.49-206.84-6.49s47.12-14.09,89.17-16.43
		c0,0,14.73-29.49,34.78-29.78c12.367-0.045,24.496,3.393,35,9.92c0,0,7.74-32,46.53-32.89s64,25.91,64,25.91
		s8.65-49.69,39.87-31.74s45,67.54,45,67.54s9.89-10,21.87-4.38s15.86,31,15.86,31S1740.64,492.28,1768.29,515.71z"/>
</g>
</svg>
