<svg xmlns="http://www.w3.org/2000/svg" viewBox="0 0 544.714 343.598"><path fill="#90CDA5" d="M544.714 130.809l-3.108 4.681-.835-7.753-6.052 7.753-.723-6.188-4.39 6.817-2.609-5.133-3.652 7.753v-7.753l-2.4 7.857-1.474-5.448-3.287 6.495-2.447-3.981-2.087 4.632-.759-2.386-.607 2.894-.506-2.386-.759 3.656-1.669-2.445-.86 4.374-1.264-3.859-1.669 5.28-3.57-4.084-.568 2.781-.852-2.567-1.726 2.282-1.186-4.207-1.776 4.065-1.279-2.924s-.349 4.673-.363 5.348c-.123-.389-1.484-1.569-1.484-1.569l-1.492 6.703-1.989-3.138v5.134l-1.154-2.82-1.486 4.55s-1.04-3.581-1.189-3.282c-.149.298-.966 4.177-.966 4.177l-1.263-4.177-.669 3.431-.966-3.431-.446 4.774-1.709-3.679v5.618l-1.857-4.998v7.236l-1.412-3.655-.371 5.072-.892-3.581-1.264 4.91-1.67-2.328-.557 3.632-.927-3.166-.928 3.539-1.113-3.539-.742 4.563-1.577-6.425-.742 8.381-1.299-5.773v8.753l-1.113-5.122v5.308l-2.041-2.794-1.577 7.269-1.762-4.289-.649 5.68-1.555-3.829-.904 5.219-1.733-3.479-.829 5.597-1.13-6.278-1.431 5.673-1.13-4.841-1.431 5.446-1.431-3.101-1.733 4.311-1.697-2.037-1.604 6.787-2.143-4.801-1.319 7.78-1.979-5.297v10.098l-2.308-5.959-.66 12.085-2.308-8.678-.989 15.135-2.956-9.932-1.166 8.939-2.144-8.939-1.649 8.443-2.337-6.366-1.126 5.869-2.144-5.132-2.143 12.085-1.979-12.822-2.638 11.994-2.143-9.767-2.638 12.416-2.143-9.105-2.638 11.091-2.473-8.443-1.57 14.154-2.058-6.042-1.822 9.025-2.169-2.982-2.191 6.859-1.67-4.086-2.4 5.856-2.087-4.494-2.609 4.494-.73-4.598-2.609 2.829-1.738-5.28-4.533 9.818-3.302-9.818-3.549 8.911-4.81-6.959-2.13 10.534-3.415-9.323-2.437 14.721-5.054-10.151-2.079 13.63-3.345-10.635-7.618 11.497-2.863-9.165-3.993 8.373-3.573-8.946-4.034 9.37-2.061-8.798-4.373 12.3-4.663-6.495-5.044 2.993-71.194 98.52h318.137V130.809z"/><path fill="#69AD64" d="M544.714 157.625l-2.064 3.107-.835-7.753-6.052 7.753-.723-6.189-4.39 6.817-2.609-5.133-3.652 7.753v-7.753l-2.4 7.857-1.474-5.448-3.287 6.495-2.447-3.981-2.087 4.632-.759-2.386-.607 2.894-.506-2.386-.759 3.656-1.669-2.445-.86 4.374-1.264-3.859-1.669 5.28-3.57-4.084-.568 2.781-.852-2.567-1.726 2.282-1.186-4.207-1.776 4.065-1.278-2.924s-.349 4.673-.363 5.348c-.123-.389-1.484-1.569-1.484-1.569l-1.492 6.703-1.989-3.138v5.134l-1.154-2.82-1.486 4.55s-1.04-3.581-1.189-3.282c-.149.298-.966 4.177-.966 4.177l-1.263-4.177-.669 3.431-.966-3.431-.446 4.774-1.709-3.679v5.618l-1.857-4.998v7.236l-1.412-3.655-.372 5.072-.892-3.581-1.264 4.91-1.67-2.328-.556 3.632-.928-3.166-.928 3.539-1.113-3.539-.742 4.563-1.577-6.425-.742 8.381-1.299-5.773v8.753l-1.113-5.122v5.308l-2.041-2.794-1.577 7.269-1.762-4.289-.649 5.68-1.555-3.829-.904 5.219-1.733-3.479-.829 5.597-1.13-6.278-1.431 5.673-1.13-4.841-1.431 5.446-1.431-3.101-1.733 4.311-1.697-2.037-1.604 6.787-2.144-4.801-1.319 7.78-1.979-5.297v10.098l-2.308-5.959-.66 12.085-2.308-8.678-.989 15.135-2.956-9.932-1.166 8.939-2.143-8.939-1.649 8.443-2.337-6.366-1.126 5.869-2.143-5.132-2.144 12.085-1.979-12.822-2.638 11.994-2.144-9.767-2.638 12.416-2.144-9.105-2.638 11.091-2.473-8.443-1.57 14.154-2.058-6.042-1.822 9.025-2.169-2.982-2.191 6.859-1.67-4.086-2.4 5.856-2.087-4.494-2.609 4.494-.73-4.598-2.609 2.829-1.738-5.28-4.533 9.818-3.302-9.818-3.549 8.911-4.81-6.959-2.13 10.534-3.415-9.324-2.437 14.721-5.054-10.151-2.079 13.63-3.345-10.635-7.618 11.497-2.863-9.165-3.993 8.373-3.573-8.946-4.034 9.37-2.061-8.798-4.373 12.3-4.663-6.495-5.044 2.993-71.194 73.277h317.092V157.625z"/><path fill="#90CDA5" d="M0 343.598h321.36l-71.194-94.422-5.044-2.52-4.663 5.47-4.373-10.359-2.061 7.409-4.034-7.892-3.573 7.534-3.993-7.052-2.863 7.719-7.618-9.683-3.345 8.957-2.079-11.479-5.054 8.549-2.437-12.398-3.415 7.852-2.13-8.872-4.81 5.861-3.549-7.505-3.302 8.269-4.533-8.269-1.738 4.447-2.609-2.382-.73 3.873-2.609-3.785-2.087 3.785-2.4-4.932-1.67 3.441-2.191-5.776-2.169 2.512-1.822-7.601-2.058 5.089-1.57-11.921-2.473 7.11-2.638-9.341-2.144 7.668-2.638-10.457-2.144 8.226-2.638-10.102-1.979 10.799-2.143-10.178-2.144 4.322-1.126-4.943-2.337 5.361-1.649-7.11-2.144 7.529-1.166-7.529-2.956 8.365-.989-12.746-2.308 7.309-.66-10.178-2.308 5.019v-8.505l-1.979 4.461-1.319-6.553-2.144 4.043-1.604-5.716-1.697 1.715-1.733-3.631-1.431 2.612-1.431-4.587-1.13 4.077-1.431-4.778-1.13 5.287-.829-4.714-1.733 2.93-.904-4.395-1.555 3.225-.649-4.784-1.762 3.612-1.577-6.122-2.041 2.353v-4.47l-1.113 4.314v-7.372l-1.299 4.863-.742-7.058-1.577 5.411-.742-3.843-1.113 2.98-.928-2.98-.928 2.667-.557-3.059-1.67 1.961-1.264-4.135-.892 3.016-.371-4.272-1.412 3.078v-6.094l-1.857 4.209v-4.732l-1.709 3.098-.446-4.021-.966 2.89-.669-2.89-1.263 3.518s-.817-3.267-.966-3.518c-.149-.251-1.189 2.764-1.189 2.764l-1.486-3.832-1.154 2.375v-4.324l-1.989 2.643-1.492-5.645s-1.361.994-1.484 1.321c-.014-.569-.363-4.504-.363-4.504l-1.278 2.462-1.776-3.423-1.186 3.543-1.726-1.922-.852 2.162-.568-2.342-3.57 3.44-1.669-4.447-1.264 3.25-.86-3.684-1.669 2.059-.759-3.079-.506 2.01-.607-2.437-.759 2.01-2.087-3.901-2.447 3.353-3.287-5.47-1.474 4.588-2.4-6.618v6.529l-3.652-6.529-2.609 4.323-4.39-5.741-.723 5.212-6.052-6.529-.835 6.529L0 148.85v194.748z"/></svg>