<svg xmlns="http://www.w3.org/2000/svg" xmlns:xlink="http://www.w3.org/1999/xlink" viewBox="0 0 544.714 343.598"><path fill="#192F3A" d="M167.102 239.883c-1.105.529-2.209 1.085-3.168 1.848-.76.604-2.943 2.955-4.332 4.49-.424.469-.869.952-1.452 1.193-.942.389-2.402.361-2.513 1.378-.028.255.059.51.046.766-.05.97-1.318 1.279-2.286 1.287-1.631.015-3.347-.023-4.784.752-.739.398-1.355.988-1.943 1.588a44.117 44.117 0 00-5.223 6.428 92.954 92.954 0 017.007-5.338c.482-.332.974-.663 1.528-.849.571-.192 1.181-.221 1.783-.243a77.516 77.516 0 017.199.082l.366 1.951a34.345 34.345 0 014.983-4.034l-2.931-1.327c-.14-.064-.294-.141-.347-.286-.058-.156.024-.326.105-.472 1.168-2.098 3.326-5.402 4.085-6.042.545-.46 1.163-.825 1.776-1.187 2.455-1.451 2.938-1.996 5.393-3.447l.101-.792c-2.497.952-2.983 1.1-5.393 2.254z"/><path fill="#5E8A14" d="M132.152 262.778c.1-2.967-.547-5.963-1.839-8.525-.452-.896-1.022-1.779-1.843-2.188-.821-.41-1.94-.165-2.344.761.431-1.228-.416-2.519-1.201-3.481l-3.126-3.83c-1.147-1.405-2.569-2.93-4.219-2.661.065-1.722-.839-3.44-2.187-4.159-.633-.338-1.338-.466-1.968-.812-1.515-.829-2.338-2.725-3.55-4.067-1.212-1.342-3.511-1.913-4.35-.23-.708-2.066-2.704-3.218-4.616-3.325-1.911-.107-3.775.63-5.583 1.356-1.284.516-2.659 1.11-3.417 2.42-1.334-.345-2.826.605-3.293 2.097-1.612-.526-3.491.652-3.998 2.506-2.301-.128-4.522 2.057-4.793 4.714-2.605-.467-5.315 2.038-5.508 5.092-2.378-.135-4.606 2.425-4.517 5.189-1.31-.161-2.545.918-3.183 2.258-.638 1.339-.808 2.902-.985 4.419-.183 1.569-.384 3.175-.093 4.722.29 1.547 1.19 3.047 2.511 3.438"/><path fill="#7BB81C" d="M74.733 253.328c-.137-1.594.823-2.869 1.646-3.985.549-.478 1.509-1.116 2.058-.159-.274-2.232 2.333-3.507 3.43-4.623 1.921-1.913 4.802-2.869 7.135-4.144.823-.478.96-1.913 1.646-2.71 1.098-1.116 2.607-1.594 4.116-1.275.137 0 .137.319.137.478 1.509-2.391 4.939-3.029 6.86-.956.274.478 1.098 1.275.549 1.913 2.881-2.55 7.684-.797 9.193 2.71-.137-.319.137-.478.274-.478 2.195.319 4.253 3.029 3.842 5.738 2.094-1.46 4.545-1.076 6.637.241l-.46-.563c-1.147-1.405-2.569-2.93-4.219-2.661.065-1.722-.839-3.44-2.187-4.159-.633-.338-1.338-.466-1.968-.812-1.514-.829-2.338-2.725-3.55-4.067-1.212-1.342-3.511-1.913-4.35-.23-.708-2.066-2.704-3.218-4.616-3.325-1.911-.107-3.775.63-5.583 1.357-1.284.516-2.659 1.11-3.417 2.42-1.334-.345-2.826.605-3.293 2.097-1.612-.526-3.491.652-3.999 2.506-2.301-.128-4.522 2.057-4.793 4.714-2.605-.467-5.315 2.038-5.508 5.092-2.378-.135-4.606 2.425-4.517 5.189-1.31-.161-2.545.918-3.183 2.258-.421.883-.637 1.863-.787 2.862 1.264-1.035 2.737-1.775 4.241-2.079 1.099-.161 2.471-4.465 4.666-3.349z"/><path fill="#5E8A14" d="M85.238 276.511c.125-3.735-.688-7.507-2.315-10.732-.569-1.128-1.286-2.239-2.32-2.755-1.034-.516-2.442-.208-2.951.958.543-1.545-.523-3.171-1.512-4.382a9176.859 9176.859 0 01-3.935-4.822c-1.443-1.768-3.234-3.688-5.311-3.35.081-2.168-1.056-4.33-2.753-5.236-.797-.425-1.684-.587-2.477-1.022-1.907-1.044-2.943-3.431-4.469-5.12-1.526-1.689-4.42-2.408-5.476-.289-.891-2.6-3.404-4.051-5.81-4.186-2.406-.135-4.752.793-7.029 1.708-1.617.65-3.347 1.398-4.302 3.047-1.68-.434-3.558.761-4.146 2.64-2.029-.662-4.395.821-5.034 3.155-2.897-.161-5.693 2.589-6.034 5.934-3.279-.588-6.69 2.566-6.934 6.41-2.993-.17-5.799 3.053-5.687 6.532-1.65-.203-3.204 1.156-4.008 2.842-.804 1.686-1.017 3.653-1.239 5.562-.23 1.975-.483 3.997-.118 5.944s1.499 3.836 3.161 4.328"/><path fill="#7BB81C" d="M12.956 264.615c-.173-2.007 1.036-3.612 2.073-5.016.691-.602 1.9-1.405 2.591-.201-.345-2.809 2.936-4.415 4.318-5.819 2.418-2.408 6.045-3.612 8.982-5.217 1.036-.602 1.209-2.408 2.073-3.411 1.382-1.405 3.282-2.007 5.182-1.605.173 0 .173.401.173.602 1.9-3.01 6.218-3.813 8.636-1.204.345.602 1.382 1.605.691 2.408 3.627-3.211 9.673-1.003 11.573 3.411-.173-.401.173-.602.345-.602 2.764.401 5.354 3.813 4.836 7.224 2.636-1.838 5.722-1.354 8.356.303l-.579-.709c-1.443-1.768-3.234-3.688-5.311-3.35.081-2.168-1.056-4.33-2.753-5.236-.797-.425-1.684-.587-2.477-1.022-1.907-1.044-2.943-3.431-4.469-5.12-1.526-1.689-4.42-2.408-5.476-.289-.891-2.6-3.404-4.051-5.81-4.186-2.406-.135-4.752.793-7.029 1.708-1.617.65-3.347 1.398-4.302 3.047-1.68-.434-3.558.761-4.146 2.64-2.029-.662-4.395.821-5.034 3.155-2.897-.161-5.693 2.589-6.034 5.934-3.279-.588-6.69 2.566-6.934 6.41-2.993-.17-5.799 3.053-5.687 6.532-1.65-.203-3.204 1.156-4.008 2.842-.53 1.111-.802 2.345-.991 3.603 1.591-1.303 3.445-2.234 5.339-2.617 1.381-.202 3.109-5.619 5.872-4.215z"/><path fill="#5E8A14" d="M199.492 271.556c9.895-19.349 1.575-29.636-3.495-32.969-.863-.568-1.359-1.741-2.436-1.769-1.077-.028-2.286 1.447-1.653 2.277-.218-.639-.458-1.309-.974-1.698s-1.401-.361-1.837.248c-.546-.507-1.591-.304-2.081.404.007-.658-.482-1.214-1.103-1.254l-1.2 1.287c.318-.832-.747-1.453-1.516-1.04-.769.413-1.164 1.347-1.384 2.2.109-1.467.204-3.01-.4-4.235-.604-1.226-2.172-1.954-3.439-1.145-1.103.704-1.485 2.16-1.748 3.436-.272-.696-.569-1.425-1.168-1.823s-1.596-.298-2.03.411c.036-.729-.848-1.062-1.519-.764-.671.298-1.143.973-1.57 1.608.079-.785-.824-1.084-1.552-1.166-1.352-.153-2.751-.302-4.124.147-1.372.448-2.717 1.663-2.919 3.122-.414-.957-1.712-1.122-2.732-.656-1.019.466-1.82 1.385-2.577 2.271-.665.779-1.341 1.573-1.781 2.493-1.372 2.875-.074 5.967 1.457 8.326a37.793 37.793 0 008.41 9.205M452.001 248.552c5.27-6.977 5.944-17.748 1.544-24.689-.528-.834-1.15-1.639-1.997-2.021s-1.97-.229-2.603.608-.434 2.347.46 2.589c-.343-2.141-3.083-2.29-4.819-1.153-2.288 1.498-3.865 4.413-3.962 7.325-1.037-1.063-2.5-1.743-3.924-1.311s-2.613 2.262-2.17 3.792c-1.717-2.684-5.524-3.197-8.046-1.084-3.097 2.594-3.505 7.884-1.903 11.554 1.602 3.67 4.673 6.103 7.636 8.399"/><path fill="#7BB81C" d="M448.579 223.659c-1.028-.737-2.761-.578-3.992.228-2.288 1.498-3.865 4.413-3.962 7.325-1.037-1.063-2.5-1.743-3.924-1.311s-2.613 2.262-2.17 3.792c-1.717-2.684-5.524-3.197-8.046-1.084-2.102 1.761-2.964 4.762-2.801 7.657.067-.228.143-.453.23-.675.857-2.555 3.408-4.272 5.729-4.563.809-.012 1.683.437 2.102 1.202 1.329-1.176 3.315-1.876 4.587-.478.182-1.252-.131-2.455 1.148-3.033 1.13-.619 2.031.187 2.343 1.389.033-1.293 1.381-.364 1.631-.109-.618-1.844.098-3.88 1.973-4.294a.963.963 0 01.832.343c-.033-.667.137-1.279.832-1.746 1.766-1.189 3.938-1.521 5.442.009-.265-1.375 1.155-2.473 2.151-2.013 1.857.789 2.932 2.699 3.514 4.962-.399-2.683-1.278-5.225-2.652-7.394-.528-.834-1.15-1.639-1.997-2.021-.847-.382-1.97-.229-2.603.608-.255.334-.373.778-.367 1.206M156.045 245.194c.535-.121.719-1.281 1.584-1.547.597-.205 1.432.025 1.495.849.358-1.549 1.665-2.264 2.942-2.484a1.873 1.873 0 011.629.819c-.465-.733-.806-1.634-.601-2.519.245-1.244 1.511-2.509 2.747-2.37 1.426.203 3.526.563 3.728 2.303.086-.067.249-.06.324-.077 1.06-.38 2.246-.02 2.659.935.072.054-.041.359.042.55.247-.335.493-.671.844-.541.423.184.475.871.167 1.29.976-1.479 3.121-.148 4.132.601.505.375.547.924.528 1.558.617-.839 1.543-1.188 2.336-1.508.988-.434 2.358-.325 2.391.995.257-.198-.176-.519.287-.694 1.112-.601 2.584-.935 3.091.348.298-.557.761-.732 1.184-.548a2.072 2.072 0 011.186 2.211c.255-.618.928-1.013 1.484-1.139.742-.098 1.659.323 1.66 1.231.997-1.204 2.82-1.408 4.15-.941.289.214.639.344.475.871.308-.419.833-.678 1.173-.685.937-.212 2.226.614 1.713 1.918a.487.487 0 01.546.016c.852.88 1.191 2.456.517 3.667.186-.098.365-.292.57-.14 1.545 1.829 2.508 4.064 3.025 6.472.671-9.934-4.494-15.707-8.055-18.048-.863-.568-1.359-1.741-2.436-1.769-.889-.023-1.867.978-1.826 1.795.062.159.118.322.173.483a.852.852 0 01-.173-.483c-.184-.476-.415-.924-.801-1.215-.516-.389-1.401-.361-1.837.248-.546-.507-1.591-.305-2.081.404.007-.658-.482-1.214-1.103-1.254l-1.2 1.287c.318-.832-.747-1.453-1.516-1.04-.769.413-1.164 1.347-1.384 2.2.109-1.467.204-3.01-.4-4.235-.604-1.226-2.172-1.954-3.439-1.145-1.103.704-1.485 2.16-1.748 3.436-.272-.696-.569-1.425-1.168-1.823-.598-.398-1.596-.298-2.03.411.036-.729-.848-1.062-1.519-.764-.671.298-1.143.973-1.57 1.608.079-.785-.824-1.084-1.552-1.166-1.352-.153-2.751-.302-4.124.147-1.372.448-2.717 1.663-2.919 3.122-.414-.957-1.712-1.122-2.732-.656-1.019.466-1.82 1.385-2.577 2.271-.665.779-1.341 1.573-1.781 2.493-.561 1.176-.675 2.388-.51 3.571.484-.799 1.595-1.159 2.3-1.319z"/><path fill="#5E8A14" d="M523.876 236.132c3.498-5.789 1.033-14.056-3.048-19.305-1.941-2.497-4.433-4.746-7.325-4.926-2.892-.179-6.008 2.568-5.695 5.914-1.221-3.339-5.57-4.358-7.809-1.829.091-2-.82-4.02-2.288-5.069l-2.72-5.166c-1.021-1.939-2.087-3.935-3.692-5.237-1.604-1.302-3.905-1.73-5.491-.398-1.586 1.332-1.702 4.674.055 5.674-1.25-1.337-2.613-2.738-4.297-3.001-1.684-.263-3.661 1.24-3.446 3.199-.885-2.441-4.766-1.639-4.872 1.007-2.573-.913-5.604.398-7.037 3.042s-1.14 6.387.68 8.688c-1.282-1.475-3.516-1.646-4.953-.378-1.437 1.268-1.896 3.813-1.018 5.644-4.351-2.048-9.417 3.061-9.437 8.516-.02 5.454 3.703 10.165 8.02 12.309s9.151 2.252 13.846 2.326"/><path fill="#7BB81C" d="M457.751 229.656c.728-.169 1.566-.079 2.009.56-.17-1.223.991-2.268 1.627-3.005.574-.445 1.722-.667 1.914.445-.574-2.223 1.722-4.002 3.253-4.669.957-.222 1.722.222 2.296 1.112-.574-2.668 1.531-6.225 4.019-6.003-1.148-.445-1.722-2.001-1.34-3.112 1.34-3.112 4.784-4.224 7.655-3.112-.574-1.779.957-2.668 1.914-3.335 1.265-.63 2.869-.069 3.044 1.679.667-1.043 2.031-1.196 3.079-.79.172.1.303.247.397.436-.078-.987.172-2.046.751-2.214 6.315-2.445 8.037 8.003 10.334 12.894.574-2.89 3.636-2.89 5.55-2.223.765.222 2.105 1.334 1.722 2.668.837-.194 1.381.121 1.889.65-.144-.293.254-.472.408-.65 1.34-.445 2.679-.667 4.019 0-.957-2.89 1.914-4.891 4.019-5.113 1.267-.227 2.683-.162 3.97.276-1.854-2.213-4.149-4.085-6.776-4.248-2.892-.179-6.008 2.568-5.695 5.914-1.221-3.339-5.57-4.358-7.809-1.829.091-2-.82-4.019-2.288-5.069l-2.72-5.166c-1.021-1.939-2.087-3.935-3.692-5.237-1.604-1.302-3.905-1.73-5.491-.398-1.256 1.055-1.589 3.369-.801 4.784.292.291.577.592.856.89a2.276 2.276 0 01-.856-.89c-1.018-1.015-2.133-1.906-3.441-2.111-1.684-.263-3.661 1.24-3.446 3.199-.885-2.441-4.766-1.639-4.872 1.007-2.573-.913-5.604.398-7.037 3.042-1.433 2.644-1.14 6.387.68 8.688-1.282-1.475-3.516-1.646-4.953-.378-1.437 1.268-1.896 3.813-1.018 5.644-4.351-2.048-9.417 3.061-9.437 8.516a12.146 12.146 0 00.423 3.202 9.131 9.131 0 01.68-1.605c1.337-2.226 2.867-3.782 5.164-4.449z"/><path fill="#5E8A14" d="M257.161 268.809c.1-2.967-.547-5.963-1.839-8.525-.452-.896-1.022-1.779-1.843-2.188-.821-.41-1.94-.165-2.344.761.431-1.228-.416-2.519-1.201-3.481l-3.126-3.83c-1.147-1.405-2.569-2.93-4.219-2.661.065-1.722-.839-3.44-2.187-4.159-.633-.338-1.338-.467-1.968-.812-1.515-.829-2.338-2.725-3.55-4.067-1.212-1.342-3.511-1.913-4.35-.23-.708-2.066-2.704-3.218-4.616-3.325s-3.775.63-5.583 1.356c-1.284.516-2.659 1.11-3.417 2.42-1.334-.345-2.826.605-3.293 2.097-1.612-.526-3.491.652-3.999 2.506-2.301-.128-4.522 2.057-4.793 4.714-2.605-.467-5.315 2.038-5.508 5.092-2.378-.135-4.606 2.425-4.517 5.189-1.31-.161-2.545.918-3.183 2.258s-.808 2.902-.984 4.419c-.183 1.569-.384 3.175-.094 4.722.29 1.547 1.19 3.047 2.511 3.438"/><path fill="#7BB81C" d="M199.742 259.359c-.137-1.594.823-2.869 1.646-3.985.549-.478 1.509-1.116 2.058-.159-.274-2.232 2.333-3.507 3.43-4.623 1.921-1.913 4.802-2.869 7.135-4.144.823-.478.96-1.913 1.646-2.71 1.098-1.116 2.607-1.594 4.116-1.275.137 0 .137.319.137.478 1.509-2.391 4.939-3.029 6.86-.956.274.478 1.098 1.275.549 1.913 2.881-2.55 7.684-.797 9.193 2.71-.137-.319.137-.478.274-.478 2.195.319 4.253 3.029 3.842 5.738 2.094-1.46 4.545-1.076 6.637.241l-.46-.563c-1.147-1.405-2.569-2.93-4.219-2.661.065-1.722-.839-3.44-2.187-4.159-.633-.338-1.338-.466-1.968-.812-1.514-.829-2.338-2.725-3.55-4.067-1.212-1.342-3.511-1.913-4.35-.23-.708-2.066-2.704-3.218-4.616-3.325s-3.775.63-5.583 1.356c-1.284.516-2.659 1.11-3.417 2.42-1.334-.345-2.826.605-3.293 2.097-1.612-.526-3.491.652-3.999 2.506-2.301-.128-4.522 2.057-4.793 4.714-2.605-.467-5.315 2.038-5.508 5.092-2.378-.135-4.606 2.425-4.517 5.189-1.31-.161-2.545.918-3.183 2.258-.421.883-.637 1.862-.787 2.862 1.264-1.035 2.737-1.775 4.241-2.079 1.098-.16 2.47-4.464 4.666-3.348z"/><path fill="#5E8A14" d="M116.711 272.896c-4.605-17.76 11.7-34.714 13.336-35.929 1.636-1.215 3.477-2.34 5.411-2.144 1.934.196 3.83 2.27 3.413 4.473 1.32-1.21 3.649.344 3.414 2.279 1.22-1.557 3.941-.28 3.888 1.825 1.003-1.371 2.87-1.759 4.22-.875 1.349.883 2.031 2.94 1.541 4.647 1.119-2.678 2.419-5.349 4.408-7.226 1.989-1.876 4.814-2.814 7.175-1.658 2.361 1.156 3.767 4.808 2.42 7.34 1.707-1.414 4.25-.603 5.643 1.217 1.392 1.82 1.864 4.348 2.042 6.774 1.017 13.856-6.805 27.946-18.09 32.585"/><path fill="#7BB81C" d="M139.245 247.17c1.148-1.334 3.062-.889 4.401-.445 1.148.667 1.531 2.001 1.722 3.112-.191-1.779 1.531-2.223 2.488-1.556 1.914 1.556 2.105 4.224 3.445 6.225 0-3.779 3.062-8.67 6.506-7.559 2.488.889 2.488 3.779 3.062 6.003.191-3.779 4.401-4.224 6.889-3.779 2.663.516 4.867 2.493 5.908 5.212a39.33 39.33 0 00-.046-.766c-.178-2.426-.649-4.954-2.042-6.774-1.392-1.82-3.936-2.63-5.643-1.217 1.347-2.532-.059-6.184-2.42-7.34-2.361-1.156-5.186-.219-7.175 1.658-1.989 1.876-3.289 4.548-4.408 7.226.49-1.707-.192-3.763-1.541-4.647-1.349-.883-3.217-.496-4.219.875.053-2.105-2.667-3.381-3.888-1.825.235-1.935-2.093-3.489-3.414-2.279.417-2.203-1.478-4.277-3.413-4.473-1.934-.196-3.775.929-5.411 2.144-.659.489-3.695 3.53-6.787 8.147 1.643-.845 3.402-1.383 5.268-1.5 3.638-.443 8.613-.221 10.718 3.558z"/><path fill="#5E8A14" d="M238.504 289.86c-.304-3.533 4.975-27.329 8.012-26.934-.44-.536-.675-1.292-.629-2.031 1.04-.68 1.132-2.326 1.402-3.677.27-1.35 1.399-2.85 2.441-2.175l-.365-2.609c.586-.515 1.354-.742 2.08-.614-2.325-1.32-3.521-4.965-2.314-7.624 1.207-2.659 4.749-3.467 6.577-1.341-.431-1.014.122-2.293.951-2.886.829-.592 1.846-.674 2.818-.74 2.029-.138 4.086-.274 6.078.197 3.061.724 5.793 2.872 7.808 5.645.356-2.453 2.668-4.269 4.76-3.739 2.092.53 3.544 3.299 2.988 5.702 1.257-1.642 3.531-.369 5.156.754a22.548 22.548 0 004.743 2.513c1.353.519 2.788.923 3.897 1.961s1.77 2.967 1.034 4.384c1.261-1.426 3.408.254 4.036 2.164.629 1.91.678 4.203 1.942 5.626.674.76 1.603 1.145 2.307 1.867 1.033 1.06 1.463 2.846 1.054 4.375-.169.632-.468 1.223-.529 1.881-.144 1.567 1.049 2.803 1.707 4.181 1.476 3.094-.992 16.727-3.976 17.433"/><path fill="#7BB81C" d="M252.2 257.005c-.482-1.308 0-2.802.965-3.549.482-.374 1.286-1.121 1.769-.374-.643-1.121-1.126-2.989 0-3.736.941-.546 2.138-.59 3.029.082-.616-.995-.878-2.175-.295-3.257.804-1.868 2.251-3.549 4.341-3.923 4.824-.56 9.165 2.989 10.612 8.219-.482-1.681 0-3.549 1.126-4.857.965-1.121 2.412-1.308 3.698-.747 1.769.56 2.09 3.549.965 5.417 1.447-.187 3.055.374 4.341.934 1.182.686 4.261.114 5.004 2.043 4.01-2.586 6.897 2.633 8.181 6.363 0-1.121 1.126-1.681 1.93-1.868.573 0 1.203.067 1.788.317-.858-1.559-2.617-2.659-3.711-1.422.736-1.417.075-3.345-1.034-4.384-1.109-1.039-2.544-1.442-3.897-1.961a22.526 22.526 0 01-4.743-2.513c-1.625-1.124-3.9-2.396-5.156-.754.555-2.403-.896-5.172-2.988-5.702-2.092-.53-4.404 1.286-4.76 3.739-2.015-2.773-4.747-4.922-7.808-5.645-1.992-.471-4.049-.335-6.078-.197-.972.066-1.988.148-2.818.74-.829.592-1.382 1.872-.951 2.886-1.829-2.126-5.37-1.318-6.577 1.341-1.207 2.659-.011 6.304 2.314 7.624-.727-.128-1.494.099-2.08.614l.365 2.609c-1.042-.676-2.171.824-2.441 2.175-.074.37-.135.763-.206 1.151 1.556-1.047 3.261-1.724 5.115-1.365z"/><path fill="#5E8A14" d="M381.911 293.525c1.985-11.698-13.475-35.274-15.479-39.02-1.216-2.273-2.788-4.393-4.868-5.543-2.08-1.15-4.74-1.15-6.54.521.815-2.704-.964-6.019-3.412-6.36-.528-1.289-1.125-2.664-2.213-3.327-1.088-.663-2.776-.107-2.927 1.31-.593-3.193-4.801-4.379-6.588-1.857-.7-1.673-2.634-2.471-4.086-1.686s-2.171 3.017-1.52 4.717l-1.308-1.652c-1.148 1.928-1.797 4.252-1.84 6.596-.926-1.579-3.577-.112-3.106 1.718-.037-4.229-2.775-8.226-6.313-9.219-1.169-.328-2.479-.329-3.488.43s-1.545 2.448-.902 3.628c-.634-1.436-2.12-2.291-3.488-2.006-1.368.285-2.506 1.686-2.671 3.288a2.253 2.253 0 00-3.034.073c-.843.805-1.125 2.304-.649 3.445-.653-1.568-2.873-1.198-3.702.254-.829 1.451-.687 3.347-.514 5.077-1.566-.331-3.27.589-4.061 2.193-.792 1.604-.615 3.777.421 5.18-1.764.012-3.234 1.767-3.782 3.716-.547 1.949-.375 4.058-.197 6.097-2.268 2.185-2.786 6.439-1.13 9.27-1.113.266-1.817 1.671-1.804 2.991.013 1.32.583 2.545 1.236 3.626 3.019 4.997 8.244 8.089 13.498 7.987"/><path fill="#7BB81C" d="M296.472 274.819c1.148-1.112 2.488-1.779 3.827-.667-1.148-.889-1.148-2.668-.765-4.002.765-2.668 2.296-5.113 4.784-6.003-1.34-2.223-.191-4.891 1.148-6.669.765-.889 1.914-1.779 3.062-1.112-.574-1.112-.191-2.445.574-3.335 2.035-1.934 4.964-4.907 7.924-3.093.282-.561 1.134-1.056 1.645-1.353 1.914-.667 4.21-1.112 5.55.445 1.531 1.334 2.488 3.557 2.105 6.003.383-2.223 2.296-2.89 3.827-3.779.408-.158.816-.09 1.086.282-.469-1.746 1.348-3.24 2.55-3.839.383-.222.383.667.765.667-.383-1.112-.574-2.223.191-3.112 1.34-1.112 3.062-1.779 4.593-.667.016.009.029.02.042.03.313-.434.824-.811 1.106-.92 1.531-.445 3.827-1.112 4.593 1.334 1.531-1.334 3.827.222 4.593 1.779.211.613.305 1.699.123 2.551 3.061-.252 5.15 3.207 6.575 5.897.191-2.89 3.445-3.557 5.55-3.335 1.571.397 2.947 1.106 4.197 2.015-1.17-2.053-2.647-3.92-4.552-4.974-2.08-1.15-4.74-1.15-6.54.521.815-2.704-.964-6.019-3.412-6.36-.528-1.289-1.125-2.664-2.213-3.327-1.088-.663-2.776-.107-2.927 1.31-.593-3.193-4.801-4.379-6.588-1.857-.7-1.673-2.634-2.471-4.086-1.686-1.452.785-2.171 3.017-1.52 4.717l-1.308-1.652c-1.148 1.928-1.797 4.252-1.84 6.596-.803-1.369-2.901-.448-3.138 1.014.019.234.03.469.032.704a1.69 1.69 0 01-.032-.704c-.314-3.961-2.94-7.578-6.281-8.515-1.169-.328-2.479-.329-3.488.43s-1.545 2.448-.902 3.628c-.634-1.436-2.12-2.291-3.488-2.006-1.368.285-2.506 1.686-2.671 3.288a2.253 2.253 0 00-3.034.073c-.843.805-1.125 2.304-.649 3.445-.653-1.568-2.873-1.198-3.702.254-.829 1.451-.687 3.347-.514 5.077-1.566-.331-3.269.589-4.061 2.193s-.615 3.777.421 5.18c-1.764.012-3.234 1.767-3.782 3.716-.547 1.949-.375 4.058-.197 6.097-1.77 1.706-2.474 4.671-1.911 7.237a16.675 16.675 0 012.738-3.516z"/><path fill="#45660F" d="M444.055 283.306c2.424-5.088 3.054-11.291 1.715-16.895-.4-1.673-1.039-3.397-2.296-4.337-2.378-1.777-5.465.073-7.819 1.894-.09-1.91.959-3.602 1.876-5.191s1.781-3.51 1.286-5.334-3.092-2.596-3.731-.833c1.268-1.131 2.595-2.353 3.158-4.091.563-1.738-.02-4.114-1.563-4.599.892-2.849-1.655-6.053-4.26-5.873-2.605.181-4.693 2.935-5.202 5.908.638-4.909-3.345-8.819-6.954-11.477-2.683-1.975-6.808-3.561-8.529-.459-1.639 2.955.97 6.835.389 10.285-.453-1.995-2.39-3.358-4.122-2.901-1.732.457-2.971 2.66-2.637 4.686-1.019-.959-2.681-.8-3.551.339-.871 1.139-.81 3.075.129 4.137-1.083-3.643-6.064-4.275-8.054-1.191-1.99 3.084-.485 8.135 2.613 9.514-1.186-.86-2.76.714-2.836 2.335s.744 3.087 1.404 4.518 1.182 3.197.526 4.631c-.313.686-.853 1.185-1.304 1.758-1.813 2.303-2.077 6.055-.611 8.67 1.467 2.615 4.528 3.849 7.074 2.852-1.931 2.33-.279 6.195 1.635 8.544 3.122 3.83 6.898 6.938 11.044 9.089"/><path fill="#659617" d="M443.473 262.074c-2.378-1.777-5.465.073-7.819 1.894-.09-1.91.959-3.602 1.876-5.191.917-1.588 1.781-3.51 1.286-5.334-.343-1.263-1.692-2.02-2.703-1.783-.336.329-.684.643-1.028.95.197-.543.579-.844 1.028-.95.903-.883 1.719-1.875 2.13-3.141.563-1.738-.02-4.114-1.563-4.599.892-2.849-1.655-6.053-4.26-5.873-2.605.181-4.693 2.935-5.202 5.908.638-4.909-3.345-8.819-6.954-11.477-2.683-1.975-6.808-3.561-8.529-.459-1.639 2.955.97 6.835.389 10.285-.453-1.995-2.39-3.358-4.122-2.901-1.732.457-2.971 2.66-2.637 4.686-1.019-.959-2.681-.8-3.551.339-.574.751-.741 1.847-.52 2.812.277.384.501.825.65 1.325-.32-.362-.536-.826-.65-1.325-1.745-2.42-5.687-2.527-7.405.134-1.91 2.96-.6 7.729 2.247 9.328.124.04.247.1.365.186a4.469 4.469 0 01-.365-.186c-1.12-.357-2.402 1.062-2.471 2.521-.077 1.621.744 3.087 1.404 4.518.66 1.431 1.182 3.197.526 4.631-.313.686-.853 1.185-1.304 1.758-1.813 2.303-2.077 6.055-.611 8.67a6.412 6.412 0 001.392 1.71c-.34-2.303-.14-4.731.604-7.107.957-2.89 2.488-5.113 4.976-6.447-1.722-1.556-2.679-4.002-1.148-6.225.574-.889 1.531-1.779 2.488-1.112-.765-1.334-.383-3.112.191-4.446.765-1.334 1.722-3.335 3.445-2.89-.957-1.112-.765-2.89.191-4.002.765-.667 1.34-1.334 2.296-1.556 1.154-.268 1.89.434 2.251 1.424.411-.788 1.108-1.542 1.577-1.868 1.722-.889 3.253.222 4.976.667-2.488-2.668-1.722-7.114-.191-10.004.765-1.334 2.679-1.334 4.019-.445 2.091 1.214 3.704 4.455 2.677 7.039 2.234.337 2.085 4.768 3.446 6.744-.383-1.779-.765-3.779.383-5.336 1.722-2.001 4.401-2.668 6.506-.889.383.222.957 1.112.957 2.001 0 2.223-1.722 3.557-3.445 4.224.765.445 1.722.889 1.914 2.001.158 1.287.577 2.878-.04 4.145.827-.939 2.026-1.481 3.102-.588.191.222.383.667.383 1.112-.574 3.557-2.679 6.225-3.636 9.56 1.722.445 3.636.222 5.167 1.112.765-3.779 4.593-4.891 6.889-2.668.163.126.308.266.438.418-.41-1.316-1.018-2.555-2.015-3.3z"/><path fill="#45660F" d="M331.7 289.638c-1.526-1.481-2.818-3.417-3.214-5.681-.396-2.264.271-4.864 1.938-6.123 1.667-1.259 4.282-.669 5.112 1.43.441-1.532.255-3.29-.492-4.653 1.158.287 2.425-.104 3.308-1.021.54-.562 1.108-1.371 1.815-1.181.698.188 1.113 1.321 1.821 1.19.697-.129.749-1.239.968-2.018.383-1.361 1.736-2.088 2.967-2.025s2.37.736 3.465 1.394c-.612-3.231 1.021-7.045 3.798-7.776s5.871 2.685 4.918 5.802c.9-2.414 2.296-5.226 4.56-5.193 1.582.023 2.9 1.583 3.408 3.323.509 1.74.383 3.633.252 5.464 1.609.586 2.72 2.425 3.018 4.353.298 1.928-.106 3.92-.751 5.73-1.991 5.587-6.42 9.914-11.5 11.235"/><path fill="#659617" d="M334.056 279.406c1.148-.445 2.105.445 2.679 1.556-.383-.667-.383-1.334 0-1.779.574-.445 1.34-.445 2.105 0-.383-.222-.383-.667-.383-.889.574-1.556 2.296-1.779 3.062-.222-.383-2.668 1.914-3.112 3.636-3.779.765-.222 2.105.222 2.105 1.334 0-1.334 1.34-1.556 2.105-1.779.765 0 1.722 0 1.914 1.112-.574-2.445 2.296-3.779 4.019-3.335.412.16.724.549.798 1.085.955-.856 2.273-.628 3.03.472-.383-2.445 1.34-5.558 3.636-4.669 2.105.889.574 4.002.765 6.225 2.202-2.558 4.662.29 5.893 2.867a8.196 8.196 0 00-.076-.681c-.298-1.928-1.409-3.767-3.018-4.353.131-1.831.256-3.724-.252-5.464-.509-1.74-1.827-3.3-3.408-3.323-2.264-.033-3.661 2.779-4.56 5.193.952-3.118-2.141-6.533-4.918-5.802s-4.411 4.545-3.798 7.776c-1.095-.658-2.234-1.33-3.465-1.394s-2.585.664-2.967 2.025c-.219.779-.271 1.889-.968 2.018-.708.131-1.123-1.001-1.821-1.19-.706-.191-1.274.619-1.815 1.181-.882.917-3.345-1.688-3.308 1.021.747 1.363.933 3.121.492 4.653-.83-2.099-3.445-2.688-5.112-1.43-1.667 1.259-2.334 3.859-1.938 6.123.151.862.432 1.676.806 2.436.365-3.131 2.101-6.012 4.762-6.988z"/><g><path fill="#45660F" d="M397.05 297.696c1.688-4.99 1.939-10.619.705-15.784-.557-2.331-1.628-4.811-3.612-5.548-1.984-.736-4.551 1.761-3.534 3.873-1.221-3.279-3.337-6.098-5.966-7.951l-.838 2.906c-.242-2.11-1.524-4.017-3.228-4.8-1.031 1.39-1.779 3.064-2.163 4.844-.09-2.56-3.068-3.951-5.017-2.753-1.95 1.198-2.797 4.006-2.725 6.567-2.001-1.24-4.132-2.515-6.397-2.373-2.265.142-4.597 2.314-4.339 4.932-1.576-3.082-5.614-3.085-8.243-1.207-4.827 3.449-6.277 11.419-4.124 17.51s7.165 10.329 12.533 12.441c5.368 2.112 11.125 2.38 16.79 2.554"/></g><g><path fill="#659617" d="M348.791 291.856c.765-1.334 1.722-2.445 3.062-3.335.702-.408 1.688-.482 2.35-.124.175-.403.365-.806.712-1.21 2.105-1.556 5.741-4.224 7.655-1.334-.191-3.335 3.445-4.669 5.741-4.002 1.148.222 2.488 1.112 2.87 2.668-.383-2.001.765-4.002 2.296-4.891 1.148-.667 4.019-1.112 4.019 1.112.957-1.334 2.679-.445 4.019-.222.742 0 1.56.466 1.946 1.273.347-1.211 1.536-2.315 2.456-2.162 2.679.445 4.21 3.557 6.698 4.669-.957-2.445 1.914-3.779 3.445-4.002.576 0 1.029.202 1.399.532-.613-1.971-1.636-3.84-3.313-4.463-1.892-.702-4.312 1.537-3.65 3.578.039.098.079.196.116.295a2.282 2.282 0 01-.116-.295c-1.236-3.152-3.3-5.86-5.85-7.656l-.838 2.906c-.242-2.11-1.524-4.017-3.228-4.8-1.031 1.39-1.779 3.064-2.163 4.844-.09-2.56-3.068-3.951-5.017-2.753-1.95 1.198-2.797 4.006-2.725 6.567-2.001-1.24-4.132-2.515-6.397-2.373-2.265.142-4.597 2.314-4.339 4.932-1.576-3.082-5.614-3.085-8.243-1.207-4.827 3.449-6.277 11.419-4.124 17.51l.052.141c-.264-2.103.159-4.295 1.167-6.198z"/></g><g><path fill="#45660F" d="M538.943 268.704c-7.44-39.562-34.693-45.668-47.595-45.038-2.197.107-4.528-1.088-6.41.055-1.883 1.143-2.097 4.658.037 5.193-1.182-.708-2.437-1.437-3.813-1.447-1.376-.01-2.86 1.005-2.838 2.386-1.577-.153-3.114 1.297-3.061 2.887-.819-.984-2.358-1.271-3.474-.647l-.434 3.227c-.505-1.583-3.115-1.333-3.912.124-.798 1.457-.297 3.276.402 4.783-1.664-2.294-3.447-4.686-6.03-5.839s-6.191-.509-7.344 2.082c-1.004 2.256.178 4.835 1.337 7.015-1.345-.733-2.776-1.487-4.304-1.42-1.529.068-3.115 1.312-2.965 2.841-.859-1.119-2.795-.641-3.57.537s-.733 2.699-.663 4.11c-.856-1.25-2.782-.701-4.134-.023-2.512 1.259-5.101 2.577-6.889 4.75-1.788 2.173-2.563 5.452-1.068 7.837-1.918-.965-4.352.219-5.514 2.03s-1.374 4.053-1.555 6.199c-.159 1.886-.316 3.806.092 5.654 1.273 5.77 7.403 8.928 13.005 10.741a91.264 91.264 0 0026.042 4.404"/><path fill="#659617" d="M431.147 277.375c.765-.769-.383-2.69.765-4.035.765-.961 2.488-1.537 3.636-.384-1.34-2.69 0-5.187 1.914-6.917 1.148-.768 2.488-.961 3.827-.576-1.722-.576-3.445-1.537-4.21-3.074-1.148-2.113-.574-5.38 1.722-6.532 2.702-1.266 6.759-3.041 9.301-.682.063-.195.351-.363.458-.471 1.34-1.729 3.827-2.498 5.741-1.537.191 0 .383.576.765.769 0-.769 0-1.537.765-1.729.957-.192 1.914.769 1.914 1.729-.191-3.266 5.167-3.65 7.846-3.65 1.34 0 2.105.769 2.87 1.729 0-1.921 1.148-3.458 2.105-4.803 1.148-1.729 3.636-3.074 5.358-1.153.191-.576-.957-.576-.383-1.345 1.148-2.113 3.253-4.227 5.741-2.882-.191-1.153.383-1.921 1.34-2.113 1.85-.338 3.847.364 4.824 1.974-.344-1.197.315-2.522 1.109-3.319 1.148-.961 3.253-1.345 4.401 0 .191-2.882 3.062-5.187 5.932-5.956.765 0 1.531-.192 1.914.769 0-.961.574-1.921 1.148-2.306 1.34-1.345 4.593-1.537 5.358.961.191-.384.574-.576.957-.576 2.572.369 5.143 2.332 5.514 4.869.196-.35.257-.835.801-.835 4.958 1.014 9.43 3.269 13.355 6.271-11.384-15.465-27.527-18.347-36.59-17.904-2.197.107-4.528-1.088-6.41.055-1.554.943-1.97 3.502-.868 4.668.307.169.608.348.905.526a1.831 1.831 0 01-.905-.526c-.915-.503-1.878-.914-2.908-.921-1.376-.01-2.86 1.005-2.838 2.386-1.577-.153-3.114 1.297-3.061 2.887-.819-.984-2.358-1.271-3.474-.647l-.434 3.227c-.505-1.583-3.115-1.333-3.912.124s-.297 3.276.402 4.783c-1.664-2.294-3.447-4.686-6.03-5.839-2.583-1.153-6.191-.509-7.344 2.082-1.004 2.256.178 4.835 1.337 7.015-1.345-.733-2.776-1.487-4.304-1.42-1.529.068-3.115 1.312-2.965 2.841-.859-1.119-2.795-.641-3.57.537-.776 1.179-.733 2.699-.663 4.11-.856-1.25-2.782-.701-4.134-.023-2.512 1.259-5.101 2.577-6.889 4.75-1.788 2.173-2.563 5.452-1.068 7.837-1.918-.965-4.352.219-5.514 2.03s-1.374 4.053-1.555 6.199c-.159 1.886-.316 3.806.092 5.654.521 2.36 1.854 4.283 3.632 5.855-.18-1.716 1.271-3.47 2.28-4.482z"/><path fill="#45660F" d="M81.925 253.462c-.246-2.918-.535-5.968-2.115-8.43-1.579-2.462-4.89-4.072-7.498-2.76 2.033-3.244.979-7.703-1.453-10.658-2.432-2.955-5.952-4.748-9.368-6.459-1.839-.921-4.457-1.669-5.621.031.096-1.919.153-3.986-.902-5.589-1.055-1.603-3.688-2.253-4.855-.731.204-2.079-1.953-3.771-4.032-3.863-2.079-.092-4.025.934-5.853 1.931 1.576-2.964 3.183-6.472 1.818-9.539-1.568-3.524-6.475-4.399-9.987-2.832-3.513 1.568-5.937 4.821-8.2 7.941.951-2.049 1.632-4.523.547-6.505-1.085-1.981-4.634-2.322-5.32-.169l-.59-4.388c-1.518-.848-3.611-.458-4.725.88.072-2.161-2.018-4.133-4.162-3.926.029-1.878-1.989-3.258-3.86-3.245-1.401.01-2.711.569-3.955 1.253 1.499-1.586.934-5.065-1.18-6.347a4.584 4.584 0 00-.244-.138v83.312l28.331 8.515a124.044 124.044 0 0035.414-5.989c7.619-2.466 15.955-6.76 17.686-14.607.554-2.512.34-5.123.124-7.688z"/><path fill="#659617" d="M81.925 253.462c-.246-2.918-.535-5.968-2.115-8.43-1.579-2.462-4.89-4.072-7.498-2.76 2.033-3.244.979-7.703-1.453-10.658-2.432-2.955-5.952-4.748-9.368-6.459-1.839-.921-4.457-1.669-5.621.031.096-1.919.153-3.986-.902-5.589-1.055-1.603-3.688-2.253-4.855-.731.204-2.079-1.953-3.771-4.032-3.863-2.079-.092-4.025.934-5.853 1.931 1.576-2.964 3.183-6.472 1.818-9.539-1.568-3.524-6.475-4.399-9.987-2.832-3.513 1.568-5.937 4.821-8.2 7.941.951-2.049 1.632-4.523.547-6.505-1.085-1.981-4.634-2.322-5.32-.169l-.59-4.388c-1.518-.848-3.611-.458-4.725.88.072-2.161-2.018-4.133-4.162-3.926.029-1.878-1.989-3.258-3.86-3.245-1.401.01-2.711.569-3.955 1.253a2.503 2.503 0 01-1.231.715c.404-.242.813-.485 1.231-.715 1.499-1.586.934-5.065-1.18-6.347a4.584 4.584 0 00-.244-.138v22.123a6.912 6.912 0 013.389-.231c1.301.261 2.082 1.306 1.822 2.874 3.383-1.829 6.246 1.045 7.807 3.919.781 1.045-.781 1.045-.52 1.829 2.342-2.613 5.725-.784 7.287 1.568 1.301 1.829 2.863 3.919 2.863 6.532 1.041-1.306 2.082-2.351 3.904-2.351 3.643 0 10.93.523 10.67 4.964 0-1.306 1.301-2.613 2.602-2.351 1.041.261 1.041 1.306 1.041 2.351.52-.261.781-1.045 1.041-1.045 2.602-1.306 5.985-.261 7.807 2.09.146.147.537.375.623.64 3.457-3.208 8.975-.794 12.649.928 3.123 1.568 3.904 6.009 2.342 8.883-1.041 2.09-3.383 3.397-5.725 4.18 1.822-.523 3.643-.261 5.205.784 2.602 2.351 4.424 5.748 2.602 9.406 1.561-1.568 3.904-.784 4.945.523 1.561 1.829 0 4.442 1.041 5.487 1.372 1.377 3.345 3.762 3.099 6.092 2.417-2.139 4.231-4.753 4.939-7.963.552-2.513.338-5.124.122-7.689z"/><path fill="#45660F" d="M426.85 282.203c3.498-5.003 1.033-12.147-3.048-16.684-1.941-2.158-4.433-4.102-7.325-4.257-2.892-.155-6.008 2.22-5.695 5.111-1.221-2.886-5.57-3.766-7.809-1.581.091-1.728-.82-3.474-2.288-4.381l-2.72-4.464c-1.021-1.676-2.087-3.401-3.692-4.526-1.604-1.125-3.905-1.495-5.491-.344-1.586 1.151-1.702 4.039.055 4.904-1.25-1.156-2.613-2.366-4.297-2.594-1.684-.227-3.661 1.072-3.446 2.764-.885-2.11-4.766-1.416-4.872.87-2.573-.789-5.604.344-7.037 2.629-1.433 2.285-1.14 5.52.68 7.508-1.282-1.275-3.516-1.422-4.953-.327-1.437 1.096-1.896 3.295-1.018 4.878-4.351-1.77-9.417 2.646-9.437 7.359s3.703 8.785 8.02 10.638c4.317 1.853 9.151 1.946 13.846 2.011"/><path fill="#659617" d="M360.724 276.606c.728-.146 1.566-.069 2.009.484-.17-1.057.991-1.96 1.627-2.597.574-.384 1.722-.576 1.914.384-.574-1.921 1.722-3.458 3.253-4.035.957-.192 1.722.192 2.296.961-.574-2.306 1.531-5.38 4.019-5.187-1.148-.384-1.722-1.729-1.34-2.69 1.34-2.69 4.784-3.65 7.655-2.69-.574-1.537.957-2.306 1.914-2.882 1.265-.544 2.869-.06 3.044 1.451.667-.902 2.032-1.034 3.079-.683a.927.927 0 01.397.377c-.078-.853.172-1.768.751-1.914 6.315-2.113 8.037 6.917 10.334 11.143.574-2.498 3.636-2.498 5.55-1.921.765.192 2.105 1.153 1.722 2.306.837-.168 1.381.105 1.889.562-.144-.253.254-.408.408-.562 1.34-.384 2.679-.576 4.019 0-.957-2.498 1.914-4.227 4.019-4.419 1.267-.196 2.683-.14 3.97.239-1.854-1.912-4.149-3.53-6.776-3.671-2.892-.155-6.008 2.22-5.695 5.111-1.221-2.886-5.57-3.766-7.809-1.581.091-1.728-.82-3.474-2.288-4.381l-2.72-4.464c-1.021-1.676-2.087-3.401-3.692-4.526-1.604-1.125-3.905-1.495-5.491-.344-1.256.912-1.589 2.912-.801 4.134.292.252.577.512.856.769a2.13 2.13 0 01-.856-.769c-1.018-.877-2.133-1.648-3.441-1.824-1.684-.227-3.661 1.072-3.446 2.764-.885-2.11-4.766-1.416-4.872.87-2.573-.789-5.604.344-7.037 2.629-1.433 2.285-1.14 5.52.68 7.508-1.282-1.275-3.516-1.422-4.953-.327-1.437 1.095-1.896 3.295-1.018 4.878-4.351-1.77-9.417 2.646-9.437 7.359a9.166 9.166 0 00.423 2.767 7.37 7.37 0 01.68-1.387c1.337-1.92 2.868-3.265 5.164-3.842z"/><path fill="#45660F" d="M357.407 287.49c4.022-8.702 1.315-20.017-6.206-25.935-.903-.711-1.908-1.366-3.046-1.52s-2.428.323-2.912 1.367.247 2.547 1.395 2.543c-1.108-2.114-4.43-1.489-6.134.178-2.246 2.197-3.179 5.655-2.346 8.69-1.586-.803-3.555-1.09-5.117-.24-1.561.85-2.385 3.078-1.357 4.532-2.927-2.284-7.643-1.732-9.968 1.166-2.855 3.559-1.618 9.137 1.494 12.472 3.112 3.335 7.574 4.976 11.864 6.505"/><path fill="#659617" d="M345.199 262.753c-1.469-.469-3.488.188-4.696 1.369-2.246 2.197-3.179 5.655-2.346 8.69-1.586-.803-3.555-1.09-5.117-.24-1.561.85-2.385 3.078-1.357 4.532-2.927-2.284-7.643-1.732-9.968 1.166-1.938 2.415-1.989 5.76-.85 8.703.006-.255.023-.509.055-.762.191-2.882 2.679-5.38 5.358-6.34.963-.242 2.153-.027 2.904.644 1.205-1.592 3.349-2.879 5.325-1.797-.191-1.345-.957-2.498.383-3.458 1.148-.961 2.488-.384 3.253.769-.383-1.345 1.531-.769 1.914-.576-1.34-1.729-1.148-4.035.957-4.995.327-.11.779-.093 1.107.118-.258-.68-.253-1.36.424-2.039 1.722-1.729 4.21-2.69 6.506-1.537-.765-1.345.574-2.882 1.914-2.69 2.477.287 4.384 1.955 5.817 4.126-1.352-2.658-3.231-5.033-5.581-6.882-.903-.711-1.908-1.366-3.046-1.52-1.137-.154-2.428.323-2.912 1.367-.194.42-.189.913-.044 1.352"/><path fill="#45660F" d="M141.511 286.652a19.055 19.055 0 00-2.565-10.275c-.63-1.08-1.425-2.144-2.571-2.638-1.146-.494-2.705-.199-3.269.917.601-1.48-.58-3.036-1.675-4.196l-4.36-4.617c-1.599-1.693-3.583-3.531-5.885-3.208.09-2.075-1.17-4.146-3.051-5.013-.883-.407-1.866-.562-2.745-.978-2.112-1-3.26-3.285-4.951-4.902-1.691-1.617-4.897-2.306-6.067-.277-.987-2.49-3.771-3.879-6.437-4.008-2.666-.129-5.265.759-7.787 1.635-1.791.622-3.708 1.338-4.766 2.917-1.861-.416-3.942.729-4.593 2.528-2.248-.633-4.869.786-5.577 3.02-3.209-.155-6.308 2.479-6.685 5.682-3.633-.563-7.413 2.457-7.682 6.137-3.316-.163-6.425 2.923-6.301 6.254-1.828-.194-3.55 1.107-4.44 2.721-.89 1.614-1.127 3.497-1.373 5.326-.255 1.891-.536 3.827-.13 5.691.405 1.864 1.66 3.673 3.502 4.144"/><path fill="#659617" d="M61.428 275.261c-.191-1.921 1.148-3.458 2.296-4.803.765-.576 2.105-1.345 2.87-.192-.383-2.69 3.253-4.227 4.784-5.572 2.679-2.306 6.698-3.458 9.951-4.995 1.148-.576 1.34-2.306 2.296-3.266 1.531-1.345 3.636-1.921 5.741-1.537.191 0 .191.384.191.576 2.105-2.882 6.889-3.65 9.568-1.153.383.576 1.531 1.537.765 2.306 4.019-3.074 10.716-.961 12.821 3.266-.191-.384.191-.576.383-.576 3.062.384 5.932 3.65 5.358 6.917 2.921-1.759 6.34-1.297 9.257.291l-.641-.679c-1.599-1.693-3.583-3.531-5.885-3.208.09-2.075-1.17-4.146-3.051-5.013-.883-.407-1.866-.562-2.745-.978-2.112-1-3.26-3.285-4.951-4.902-1.691-1.617-4.897-2.306-6.067-.277-.987-2.49-3.771-3.879-6.437-4.008-2.666-.129-5.265.759-7.787 1.635-1.791.622-3.708 1.338-4.766 2.917-1.861-.416-3.942.729-4.593 2.528-2.248-.633-4.869.786-5.577 3.02-3.209-.155-6.307 2.479-6.685 5.682-3.633-.563-7.413 2.457-7.682 6.137-3.316-.163-6.425 2.923-6.301 6.254-1.828-.194-3.55 1.107-4.44 2.721-.587 1.064-.889 2.245-1.098 3.45 1.763-1.248 3.817-2.139 5.915-2.506 1.535-.192 3.449-5.379 6.51-4.035z"/><path fill="#45660F" d="M41.073 271.035c-.178-2.097-.649-4.281-2.042-5.854-1.392-1.573-3.936-2.273-5.643-1.051 1.347-2.188-.059-5.344-2.42-6.344s-5.186-.189-7.175 1.433c-1.989 1.622-3.289 3.93-4.408 6.244.49-1.475-.192-3.252-1.541-4.016-1.349-.763-3.217-.429-4.22.756.053-1.819-2.667-2.922-3.888-1.577.235-1.672-2.093-3.015-3.414-1.969.417-1.904-1.478-3.696-3.413-3.865-.998-.088-1.974.132-2.909.508v37.087l22.983 6.809c11.285-4.01 19.107-16.187 18.09-28.161z"/><path fill="#659617" d="M41.073 271.035c-.178-2.097-.649-4.281-2.042-5.854-1.392-1.573-3.936-2.273-5.643-1.051 1.347-2.188-.059-5.344-2.42-6.344s-5.186-.189-7.175 1.433c-1.989 1.622-3.289 3.93-4.408 6.244.49-1.475-.192-3.252-1.541-4.016-1.349-.763-3.217-.429-4.22.756.053-1.819-2.667-2.922-3.888-1.577.235-1.672-2.093-3.015-3.414-1.969.417-1.904-1.478-3.696-3.413-3.865-.998-.088-1.974.132-2.909.508v6.997c2.676.197 5.31 1.014 6.698 3.167 1.148-1.153 3.062-.768 4.401-.384 1.148.576 1.531 1.729 1.722 2.69-.191-1.537 1.531-1.921 2.488-1.345 1.914 1.345 2.105 3.65 3.445 5.38 0-3.266 3.062-7.493 6.506-6.532 2.488.768 2.488 3.266 3.062 5.187.191-3.266 4.401-3.65 6.889-3.266 2.663.446 4.867 2.155 5.908 4.505a28.424 28.424 0 00-.046-.664z"/><path fill="#45660F" d="M124.853 287.58c-.361-3.634 3.89-9.516 7.505-9.11a2.781 2.781 0 01-.748-2.089c1.238-.7 1.347-2.393 1.668-3.782s1.665-2.932 2.906-2.237l-.434-2.684a3.32 3.32 0 012.476-.632c-2.767-1.357-4.19-5.107-2.754-7.841 1.437-2.734 5.651-3.566 7.828-1.379-.513-1.043.145-2.359 1.132-2.968.987-.609 2.197-.693 3.353-.762 2.415-.142 4.863-.282 7.234.202 3.643.744 6.895 2.954 9.293 5.806.424-2.523 3.175-4.391 5.665-3.846 2.49.545 4.217 3.393 3.557 5.865 1.495-1.688 4.203-.38 6.136.776a28.472 28.472 0 005.644 2.584c1.61.534 3.318.949 4.638 2.017 1.32 1.068 2.107 3.052 1.231 4.509 1.501-1.467 4.055.261 4.804 2.226.748 1.964.807 4.323 2.311 5.787.802.781 1.908 1.178 2.746 1.921 1.229 1.09 1.741 2.927 1.254 4.5-.201.65-.557 1.258-.629 1.935-.171 1.612 1.249 2.883 2.032 4.3 1.756 3.182-.362 7.795-3.913 8.52"/><path fill="#659617" d="M139.123 272.38c-.574-1.345 0-2.882 1.148-3.65.574-.384 1.531-1.153 2.105-.384-.765-1.153-1.34-3.074 0-3.843 1.12-.562 2.545-.607 3.605.084-.733-1.023-1.045-2.237-.352-3.35.957-1.921 2.679-3.65 5.167-4.035 5.741-.576 10.908 3.074 12.63 8.454-.574-1.729 0-3.65 1.34-4.995 1.148-1.153 2.87-1.345 4.401-.768 2.105.576 2.488 3.65 1.148 5.572 1.722-.192 3.636.384 5.167.961 1.406.706 5.071.117 5.955 2.101 4.772-2.66 8.208 2.708 9.737 6.545 0-1.153 1.34-1.729 2.296-1.921.682 0 1.431.069 2.128.326-1.021-1.604-3.114-2.735-4.416-1.463.876-1.457.089-3.441-1.231-4.509-1.32-1.068-3.028-1.484-4.638-2.017a28.446 28.446 0 01-5.644-2.584c-1.934-1.156-4.641-2.464-6.136-.776.661-2.471-1.066-5.319-3.557-5.865-2.49-.545-5.242 1.323-5.665 3.846-2.398-2.852-5.65-5.062-9.293-5.806-2.371-.484-4.818-.344-7.234-.202-1.156.068-2.366.152-3.353.762-.987.609-1.645 1.925-1.132 2.968-2.176-2.187-6.391-1.356-7.828 1.379-1.437 2.734-.013 6.484 2.754 7.841a3.32 3.32 0 00-2.476.632l.434 2.684c-1.24-.695-2.584.848-2.906 2.237-.088.381-.161.784-.245 1.184 1.855-1.081 3.884-1.778 6.091-1.408z"/><path fill="#45660F" d="M276.805 305.837c1.985-10.109-13.475-30.484-15.479-33.721-1.216-1.964-2.788-3.796-4.868-4.79-2.08-.994-4.74-.994-6.54.45.815-2.337-.964-5.201-3.412-5.497-.528-1.114-1.125-2.302-2.213-2.875s-2.776-.092-2.927 1.132c-.593-2.76-4.801-3.785-6.588-1.605-.7-1.446-2.634-2.136-4.086-1.457-1.452.679-2.171 2.608-1.52 4.077l-1.308-1.428a10.51 10.51 0 00-1.84 5.7c-.926-1.364-3.577-.097-3.106 1.485-.037-3.655-2.775-7.109-6.313-7.967-1.169-.283-2.479-.285-3.488.372-1.009.656-1.545 2.116-.902 3.135-.634-1.241-2.12-1.98-3.488-1.734-1.368.246-2.506 1.457-2.671 2.842-.871-.66-2.192-.632-3.034.063-.843.696-1.125 1.992-.649 2.977-.653-1.355-2.873-1.035-3.702.219-.829 1.254-.687 2.893-.514 4.388-1.566-.286-3.27.509-4.061 1.895-.792 1.386-.615 3.264.421 4.476-1.764.011-3.234 1.527-3.782 3.211-.547 1.684-.375 3.507-.197 5.269-2.268 1.889-2.786 5.565-1.13 8.011-1.113.23-1.817 1.444-1.804 2.585.013 1.141.583 2.2 1.236 3.134 3.019 4.319 8.244 6.99 13.498 6.903"/><path fill="#659617" d="M191.366 289.671c1.148-.961 2.488-1.537 3.827-.576-1.148-.769-1.148-2.306-.765-3.458.765-2.306 2.296-4.419 4.784-5.187-1.34-1.921-.191-4.227 1.148-5.764.765-.768 1.914-1.537 3.062-.961-.574-.961-.191-2.113.574-2.882 2.035-1.672 4.964-4.241 7.924-2.673.282-.485 1.134-.913 1.645-1.169 1.914-.576 4.21-.961 5.55.384 1.531 1.153 2.488 3.074 2.105 5.187.383-1.921 2.296-2.498 3.827-3.266.408-.137.816-.078 1.086.243-.469-1.509 1.348-2.8 2.55-3.318.383-.192.383.576.765.576-.383-.961-.574-1.921.191-2.69 1.34-.961 3.062-1.537 4.593-.576.016.008.029.017.042.026.313-.375.824-.701 1.106-.795 1.531-.384 3.827-.961 4.593 1.153 1.531-1.153 3.827.192 4.593 1.537.211.53.305 1.469.123 2.204 3.061-.218 5.15 2.771 6.575 5.097.191-2.498 3.445-3.074 5.55-2.882 1.571.343 2.947.956 4.197 1.742-1.17-1.774-2.647-3.388-4.552-4.298-2.08-.994-4.74-.994-6.54.45.815-2.337-.964-5.201-3.412-5.497-.528-1.114-1.125-2.302-2.213-2.875s-2.776-.092-2.927 1.132c-.593-2.76-4.801-3.785-6.588-1.605-.7-1.446-2.634-2.136-4.086-1.457-1.452.679-2.171 2.608-1.52 4.077l-1.308-1.428a10.51 10.51 0 00-1.84 5.7c-.803-1.183-2.901-.387-3.138.876.019.202.03.405.032.609a1.27 1.27 0 01-.032-.609c-.314-3.423-2.94-6.549-6.281-7.359-1.169-.283-2.479-.285-3.488.372-1.009.656-1.545 2.116-.902 3.135-.634-1.241-2.12-1.98-3.488-1.734s-2.506 1.457-2.671 2.842c-.871-.66-2.192-.632-3.034.063-.843.696-1.125 1.992-.649 2.977-.653-1.355-2.873-1.035-3.702.219-.829 1.254-.687 2.893-.514 4.388-1.566-.286-3.27.509-4.061 1.895-.792 1.386-.615 3.264.421 4.476-1.764.011-3.234 1.527-3.782 3.211-.547 1.684-.375 3.507-.197 5.269-1.77 1.474-2.474 4.037-1.911 6.254a14.991 14.991 0 012.738-3.035z"/><path fill="#45660F" d="M311.507 296.691c2.424-4.397 3.054-9.758 1.715-14.601-.4-1.446-1.039-2.936-2.296-3.748-2.378-1.536-5.465.064-7.819 1.636-.09-1.651.959-3.113 1.876-4.486s1.781-3.033 1.286-4.61c-.495-1.577-3.092-2.243-3.731-.72 1.268-.978 2.595-2.034 3.158-3.535.563-1.502-.02-3.555-1.563-3.974.892-2.462-1.655-5.231-4.26-5.075-2.605.156-4.693 2.536-5.203 5.106.638-4.243-3.345-7.622-6.954-9.918-2.683-1.707-6.808-3.077-8.529-.397-1.639 2.553.97 5.907.389 8.888-.453-1.724-2.39-2.902-4.122-2.507-1.732.395-2.971 2.299-2.637 4.05-1.019-.828-2.681-.692-3.551.293-.871.984-.81 2.657.129 3.575-1.083-3.149-6.064-3.694-8.054-1.029-1.99 2.665-.485 7.03 2.613 8.222-1.186-.743-2.76.617-2.836 2.018-.077 1.401.744 2.667 1.404 3.904.66 1.237 1.182 2.763.526 4.002-.313.592-.853 1.024-1.304 1.519-1.813 1.99-2.077 5.233-.611 7.492s4.528 3.326 7.074 2.465c-1.931 2.014-.279 5.354 1.635 7.384a34.788 34.788 0 0011.044 7.854"/><path fill="#659617" d="M310.925 278.343c-2.378-1.536-5.465.064-7.819 1.636-.09-1.651.959-3.113 1.876-4.486.917-1.373 1.781-3.033 1.286-4.61-.343-1.091-1.692-1.746-2.703-1.541-.336.284-.684.556-1.028.821.197-.469.579-.73 1.028-.821.903-.763 1.719-1.62 2.13-2.715.563-1.502-.02-3.555-1.563-3.974.892-2.462-1.655-5.231-4.26-5.075-2.605.156-4.693 2.536-5.202 5.106.638-4.243-3.345-7.621-6.954-9.918-2.683-1.707-6.808-3.077-8.529-.397-1.639 2.553.97 5.907.389 8.888-.453-1.724-2.39-2.902-4.122-2.507-1.732.395-2.971 2.299-2.637 4.05-1.019-.828-2.681-.692-3.551.293-.574.649-.741 1.596-.52 2.43.277.332.501.713.65 1.145a2.479 2.479 0 01-.65-1.145c-1.745-2.091-5.687-2.184-7.405.116-1.91 2.558-.6 6.68 2.247 8.061.124.034.247.087.365.161a4.587 4.587 0 01-.365-.161c-1.12-.309-2.402.918-2.471 2.179-.077 1.401.744 2.667 1.404 3.904.66 1.237 1.182 2.763.526 4.002-.313.592-.853 1.024-1.304 1.519-1.813 1.99-2.077 5.233-.611 7.492.372.574.848 1.07 1.392 1.478-.34-1.99-.14-4.088.604-6.142.957-2.498 2.488-4.419 4.975-5.572-1.722-1.345-2.679-3.458-1.148-5.38.574-.768 1.531-1.537 2.488-.961-.765-1.153-.383-2.69.191-3.843.765-1.153 1.722-2.882 3.445-2.498-.957-.961-.765-2.498.191-3.458.765-.576 1.34-1.153 2.296-1.345 1.154-.232 1.89.375 2.251 1.23.411-.681 1.108-1.332 1.577-1.615 1.722-.769 3.253.192 4.976.576-2.488-2.306-1.722-6.148-.191-8.646.765-1.153 2.679-1.153 4.019-.384 2.091 1.049 3.704 3.85 2.677 6.083 2.234.291 2.085 4.121 3.446 5.829-.383-1.537-.765-3.266.383-4.611 1.722-1.729 4.401-2.306 6.506-.768.383.192.957.961.957 1.729 0 1.921-1.722 3.074-3.445 3.65.765.384 1.722.768 1.914 1.729.158 1.112.577 2.488-.04 3.582.827-.811 2.026-1.28 3.102-.508.191.192.383.576.383.961-.574 3.074-2.679 5.38-3.636 8.261 1.722.384 3.636.192 5.167.961.765-3.266 4.593-4.227 6.889-2.306.163.109.308.23.438.361-.409-1.132-1.017-2.202-2.014-2.846z"/><path fill="#45660F" d="M199.152 302.164c-1.526-1.28-2.818-2.953-3.214-4.909-.396-1.956.271-4.203 1.938-5.291 1.667-1.088 4.282-.579 5.112 1.235a4.794 4.794 0 00-.492-4.021 3.831 3.831 0 003.308-.883c.54-.485 1.108-1.185 1.815-1.02.698.163 1.113 1.141 1.821 1.028.697-.112.749-1.071.968-1.744.383-1.176 1.736-1.805 2.967-1.75 1.231.055 2.37.636 3.465 1.204-.612-2.792 1.021-6.088 3.798-6.72 2.777-.631 5.871 2.32 4.918 5.014.9-2.086 2.296-4.516 4.56-4.488 1.582.02 2.9 1.368 3.408 2.872.509 1.504.383 3.139.252 4.722 1.609.507 2.72 2.096 3.018 3.762s-.106 3.388-.751 4.952c-1.991 4.829-6.42 8.568-11.5 9.709"/><path fill="#659617" d="M201.508 293.321c1.148-.384 2.105.384 2.679 1.345-.383-.576-.383-1.153 0-1.537.574-.384 1.34-.384 2.105 0-.383-.192-.383-.576-.383-.768.574-1.345 2.296-1.537 3.062-.192-.383-2.306 1.914-2.69 3.636-3.266.765-.192 2.105.192 2.105 1.153 0-1.153 1.34-1.345 2.105-1.537.765 0 1.722 0 1.914.961-.574-2.113 2.296-3.266 4.019-2.882.412.138.724.475.798.937.955-.739 2.273-.543 3.03.408-.383-2.113 1.34-4.803 3.636-4.035 2.105.768.574 3.458.765 5.38 2.202-2.211 4.662.251 5.893 2.478a6.2 6.2 0 00-.076-.589c-.298-1.666-1.409-3.255-3.018-3.762.131-1.583.256-3.218-.252-4.722-.509-1.504-1.827-2.852-3.408-2.872-2.264-.028-3.661 2.401-4.56 4.488.952-2.694-2.141-5.646-4.918-5.014-2.777.631-4.411 3.928-3.798 6.72-1.095-.569-2.234-1.15-3.465-1.204-1.231-.055-2.585.574-2.967 1.75-.219.673-.271 1.633-.968 1.744-.708.113-1.123-.865-1.821-1.028-.706-.165-1.274.535-1.815 1.02-.882.793-3.345-1.458-3.308.883a4.795 4.795 0 01.492 4.021c-.83-1.814-3.445-2.323-5.112-1.236-1.667 1.088-2.334 3.335-1.938 5.291a7.11 7.11 0 00.806 2.105c.365-2.706 2.102-5.196 4.762-6.04z"/><path fill="#45660F" d="M264.503 309.128a21.804 21.804 0 00.705-13.641c-.557-2.015-1.628-4.158-3.612-4.794-1.984-.636-4.551 1.522-3.534 3.347a15.104 15.104 0 00-5.966-6.871l-.838 2.511c-.242-1.824-1.524-3.471-3.228-4.148a10.288 10.288 0 00-2.163 4.186c-.09-2.213-3.068-3.415-5.017-2.379-1.95 1.035-2.797 3.462-2.725 5.675-2.001-1.071-4.132-2.173-6.397-2.051-2.265.123-4.597 2-4.339 4.262-1.576-2.664-5.614-2.666-8.243-1.043-4.827 2.98-6.277 9.869-4.124 15.132 2.153 5.263 7.165 8.926 12.533 10.751 5.368 1.825 11.125 2.057 16.79 2.207"/><path fill="#659617" d="M216.243 304.081a8.868 8.868 0 013.062-2.882c.702-.352 1.688-.417 2.35-.107.175-.348.365-.697.712-1.045 2.105-1.345 5.741-3.65 7.655-1.153-.191-2.882 3.445-4.035 5.741-3.458 1.148.192 2.488.961 2.87 2.306-.383-1.729.765-3.458 2.296-4.227 1.148-.576 4.019-.961 4.019.961.957-1.153 2.679-.384 4.019-.192.741 0 1.56.402 1.946 1.1.347-1.046 1.536-2.001 2.456-1.869 2.679.384 4.21 3.074 6.698 4.035-.957-2.113 1.914-3.266 3.445-3.458.576 0 1.029.175 1.399.46-.613-1.704-1.636-3.319-3.313-3.857-1.892-.607-4.312 1.328-3.65 3.092.039.085.079.169.116.255a1.809 1.809 0 01-.116-.255 15.096 15.096 0 00-5.85-6.616l-.838 2.511c-.242-1.824-1.524-3.471-3.228-4.148a10.288 10.288 0 00-2.163 4.186c-.09-2.213-3.068-3.415-5.017-2.379-1.95 1.035-2.797 3.462-2.725 5.675-2.001-1.071-4.132-2.173-6.397-2.051-2.265.123-4.597 2-4.339 4.262-1.576-2.664-5.614-2.666-8.243-1.043-4.827 2.98-6.277 9.869-4.124 15.132l.052.122c-.264-1.818.159-3.713 1.167-5.357z"/></g><g><path fill="#4D9929" d="M311.251 343.598l-71.622-33.918c-58.265-16.601-119.283-26.196-180.675-28.411-19.657-.71-39.454-.656-58.954 1.376v60.953h311.251z"/></g><g><path fill="#3B751F" d="M544.714 269.709c-87.016-6.192-174.364 8.145-258.823 29.297-42.718 10.698-85.888 23.639-123.942 44.592h382.765v-73.889z"/></g><g><path fill="#732719" d="M60.186 292.148c-1.388-2.524-3.795-3.39-5.248-.998.956-4.873-2.165-8.741-3.828-12.891-1.739-4.338-1.951-10.118-2.096-15.539L43.568 60.017l-19.593-8.458-4.629 222.084c-2.19.74-4.422 1.507-6.383 3.483s-3.64 5.399-3.934 9.536c-.095 1.335-.12 2.95-.742 3.624-.297.322-.659.324-1.002.338-2.539.104-5.052 1.402-7.285 3.666v5.891c1.562.046 3.141.337 4.699.449 3.106.222 6.523-.54 8.685-4.729.589-1.141 1.086-2.534 1.852-3.209 1.412-1.243 3.014.429 4.423 1.685 7.619 6.793 16.53 1.62 24.901-.334 1.945-.454 3.981-.707 5.811.609.984.707 1.892 1.858 2.934 2.146.838.232 1.688-.117 2.533-.217 2.505-.296 5.059 1.742 6.682 5.333-.364-3.56-.946-7.242-2.334-9.766z"/><path fill="#A63724" d="M39.914 60.017l5.446 202.704c.146 5.421.358 11.2 2.096 15.539 1.664 4.15 4.784 8.018 3.828 12.891 1.016-1.672 2.498-1.751 3.772-.785.501-4.508-2.374-8.181-3.947-12.106-1.739-4.338-1.951-10.118-2.096-15.539L43.567 60.017l-19.593-8.458-.033 1.563 15.973 6.895z"/><path fill="#8F301F" d="M60.186 292.148c-1.266-2.304-3.382-3.225-4.847-1.55.44.398.848.922 1.193 1.55.736 1.339 1.244 3.006 1.615 4.806 1.687.741 3.252 2.48 4.373 4.961-.364-3.561-.946-7.243-2.334-9.767zM52.735 296.555c.186.105.376.189.57.243.317.088.635.092.954.059a4.472 4.472 0 00-1.524-.302z"/><g><defs><path id="a" d="M43.568 60.017l5.446 202.704c.146 5.421.357 11.2 2.096 15.539 1.664 4.15 4.784 8.018 3.828 12.891 1.453-2.392 3.86-1.526 5.248.998 1.388 2.524 1.97 6.206 2.334 9.766-1.623-3.591-4.177-5.629-6.682-5.333-.846.1-1.695.449-2.533.217-1.042-.289-1.951-1.439-2.934-2.146-1.831-1.316-3.866-1.063-5.811-.609-8.372 1.954-17.282 7.127-24.901.334-1.409-1.256-3.01-2.928-4.423-1.685-.766.674-1.263 2.068-1.852 3.209-2.161 4.188-5.579 4.951-8.685 4.728-3.106-.222-1.729-4.257-4.699-2.543 2.922-6.434 2.78-7.278 7.285-7.462.343-.014.705-.016 1.002-.338.622-.674.647-2.289.742-3.624.295-4.137 1.974-7.56 3.934-9.536 1.96-1.976 4.192-2.743 6.383-3.483L23.975 51.56"/></defs><clipPath id="b"><use overflow="visible" xlink:href="#a"/></clipPath><g fill="#852D1D" clip-path="url(#b)"><path d="M38.987 41.814c-1.784 16.929.529 33.995-.007 50.969-.272 8.625-.793 17.244-.348 25.873.441 8.548 1.558 17.056 1.668 25.622.11 8.527-1.323 16.963-1.361 25.485-.038 8.609.754 17.227 1.487 25.797.368 4.304.771 8.605 1.209 12.903.421 4.131.935 8.264 1.03 12.419.098 4.263-.56 8.432-.878 12.669-.319 4.25-.07 8.508.235 12.751.612 8.508.819 16.933-.21 25.422-.496 4.091-.909 8.826-3.536 12.18-1.854 2.367-4.198 4.041-5.357 6.924-.639 1.589-.898 3.251-.825 4.958.005.123.196.123.19 0-.177-3.997 1.637-7.094 4.35-9.828 1.057-1.065 2.067-2.158 2.793-3.484.854-1.559 1.309-3.308 1.658-5.042 1.616-8.028 1.93-16.452 1.514-24.612-.221-4.345-.678-8.677-.801-13.028-.12-4.227.346-8.357.74-12.555.789-8.408-.643-16.856-1.43-25.215-.805-8.551-1.582-17.129-1.94-25.712-.181-4.349-.201-8.704.081-13.049.271-4.175.761-8.332.99-12.51.469-8.559-.427-17.093-1.094-25.615-.675-8.621-.661-17.178-.331-25.814.328-8.591.419-17.134.093-25.728-.322-8.474-.776-16.962-.379-25.442.099-2.117.253-4.229.467-6.337.002-.006-.007-.006-.008-.001z"/><path d="M36.431 41.316c-.747 9.722-.101 19.489-.35 29.225-.125 4.865-.594 9.686-1.132 14.519-.538 4.838-.922 9.672-.991 14.541-.139 9.776.659 19.529 1.221 29.28.521 9.05 1.014 18.264-.372 27.263-.602 3.91-1.532 8.052-3.54 11.5-.832 1.429-2.301 3.562-4.208 3.406-1.776-.146-2.873-2.27-3.789-3.556-.467-.657-.954-1.302-1.552-1.846-.113-.103-.283.066-.169.169 1.321 1.198 2.101 2.852 3.294 4.163.92 1.011 2.119 1.636 3.461 1.062 1.599-.683 2.692-2.395 3.469-3.874.906-1.726 1.548-3.602 2.067-5.479 2.359-8.53 2.22-17.664 1.853-26.433-.422-10.071-1.359-20.117-1.54-30.198-.089-4.989.01-9.984.447-14.956.44-5.008 1.153-9.989 1.451-15.01.593-9.988-.086-19.995.284-29.988.047-1.264.111-2.528.186-3.791.003-.055-.086-.055-.09.003z"/><path d="M34.758 42.578c-.583 2.762-.849 5.609-1.059 8.421-.22 2.94-.331 5.888-.409 8.835-.156 5.863-.185 11.736-.7 17.582-.522 5.93-1.835 11.791-1.773 17.766.061 5.893 1.169 11.8.251 17.677-.203 1.302-.495 2.601-.97 3.832-.406 1.052-.971 2.162-1.862 2.883-.846.686-1.943.833-2.919.342-1.178-.593-1.923-1.806-2.398-2.995-.05-.126-.256-.07-.205.057.652 1.613 1.981 3.533 3.945 3.427 1.878-.102 2.975-2.048 3.583-3.604.915-2.342 1.222-4.929 1.328-7.427.131-3.064-.144-6.129-.358-9.184-.223-3.168-.354-6.33-.094-9.5.256-3.122.768-6.214 1.168-9.319.78-6.057.912-12.164 1.047-18.262.135-6.126.263-12.28 1.131-18.355.103-.724.215-1.446.318-2.17.002-.015-.02-.022-.024-.006z"/><path d="M32.383 43.445c-.697 4.567-1.373 9.141-1.781 13.744-.423 4.771-.387 9.524-.326 14.307.03 2.345.032 4.692-.105 7.034-.137 2.349-.399 4.688-.663 7.025-.261 2.3-.523 4.6-.674 6.91-.152 2.326-.139 4.642-.021 6.969.118 2.325.279 4.667.035 6.989-.189 1.8-.677 3.984-2.1 5.237-.565.497-1.287.676-1.891.139-.638-.567-.924-1.489-1.111-2.294-.482-2.076-.42-4.271-.344-6.387.169-4.716.841-9.397 1.281-14.091.436-4.654.744-9.319.928-13.99.371-9.413.248-18.847-.38-28.246a165.45 165.45 0 00-.267-3.447c-.011-.121-.199-.123-.19 0 .687 9.679.988 19.364.695 29.066-.145 4.803-.42 9.603-.825 14.391-.41 4.846-1.09 9.672-1.386 14.528-.137 2.246-.241 4.541.03 6.781.158 1.307.454 3.367 1.768 4.065 1.153.612 2.201-.657 2.715-1.54 1.013-1.736 1.277-3.773 1.348-5.75.086-2.377-.139-4.75-.228-7.123-.09-2.415.016-4.83.227-7.236.417-4.758 1.157-9.483 1.272-14.265.118-4.92-.198-9.84.023-14.759.219-4.88.83-9.731 1.524-14.562.167-1.16.333-2.32.501-3.479.005-.036-.049-.052-.055-.016z"/><path d="M29.93 45.937c-1.244 7.714-1.604 15.548-1.954 23.344-.361 8.027-.693 16.055-1.037 24.082-.086 2.011-.175 4.021-.262 6.032l-.132 3.064-.061 1.436c-.01.241.016.733-.391.482-.171-.105-.288-.422-.356-.595-.323-.816-.367-1.71-.433-2.576a47.053 47.053 0 01-.126-2.859 69.681 69.681 0 01.192-5.923c.28-3.918.795-7.813 1.152-11.723.362-3.965.456-7.929.41-11.909-.088-7.648-.546-15.497 1.263-22.999.197-.818.424-1.628.685-2.428.042-.128-.158-.182-.2-.055-1.164 3.499-1.647 7.195-1.883 10.863-.26 4.042-.18 8.094-.116 12.141.065 4.114.098 8.228-.207 12.335-.301 4.044-.837 8.066-1.183 12.107-.174 2.034-.301 4.073-.322 6.115-.019 1.912 0 3.882.289 5.775.088.573.239 1.369.665 1.805.192.196.543.278.696-.033.056-.113.022-.297.028-.425l.032-.766.069-1.628c.045-1.053.087-2.106.13-3.16.341-8.298.696-16.596 1.037-24.895.336-8.179.63-16.374 1.647-24.503.129-1.031.263-2.062.41-3.091.004-.029-.037-.041-.042-.013zM22.131 120.265c.628 1.393 1.676 3.998 3.661 3.333.929-.311 1.653-1.126 2.234-1.879.659-.854 1.224-1.776 1.871-2.638.323-.431.669-.856 1.066-1.222.275-.253.612-.531.963-.256.199.157.303.48.382.712.367 1.078.395 2.281.494 3.406.223 2.536.36 5.08.41 7.626.099 5.088-.13 10.184-.699 15.241a108.25 108.25 0 01-1.115 7.539c-.446 2.418-.898 4.896-1.804 7.19-.458 1.159-1.065 2.387-2.037 3.201-1.012.847-2.186.711-3.161-.123-.983-.842-1.623-2.042-2.142-3.21-.591-1.329-1.041-2.725-1.493-4.107-.031-.096-.18-.056-.152.042.666 2.302 1.412 4.828 2.969 6.703.556.669 1.293 1.318 2.181 1.453.81.123 1.538-.271 2.108-.821 1.687-1.627 2.351-4.243 2.877-6.446.604-2.53 1.056-5.103 1.434-7.676a115.654 115.654 0 001.206-15.883c.021-2.703-.049-5.409-.211-8.107a110.443 110.443 0 00-.317-4.061c-.083-.856-.134-1.935-.653-2.66-.603-.843-1.433.101-1.884.62-.841.967-1.482 2.09-2.234 3.124-.722.994-1.985 2.586-3.409 2.133-1.284-.408-1.955-2.165-2.477-3.273-.021-.047-.088-.007-.068.039z"/><path d="M22.264 124.551c.458 1.107 1.23 2.328 2.45 2.678 1.266.363 2.34-.589 3.11-1.483.242-.281.469-.576.69-.875.13-.176.25-.441.436-.553.397-.239.531.057.642.368.279.782.262 1.677.332 2.495.17 1.978.314 3.959.411 5.942.191 3.866.196 7.756-.292 11.601-.23 1.815-.568 3.62-1.073 5.379-.453 1.577-1.005 3.276-1.974 4.616-.589.813-1.459 1.345-2.326.583-.669-.589-1.089-1.466-1.458-2.262-.905-1.951-1.606-3.991-2.364-6.001-.022-.06-.116-.037-.097.027.549 1.892 1.268 3.744 2.053 5.549.351.808.74 1.625 1.287 2.321.328.417.757.844 1.304.927 1.403.211 2.26-1.842 2.694-2.836.697-1.592 1.184-3.272 1.547-4.97.834-3.906 1.027-7.923.956-11.907a122.816 122.816 0 00-.299-6.333c-.074-1.067-.144-2.134-.226-3.2-.054-.704-.066-1.508-.37-2.161-.277-.595-.71-.498-1.077-.03-.65.828-1.229 1.733-2.125 2.322-1.85 1.215-3.421-.656-4.11-2.249-.029-.068-.15-.018-.121.052z"/><path d="M22.145 131.687a30.28 30.28 0 002.043.952c.519.218 1.084.381 1.63.162 1.028-.412 1.64-1.692 2.151-2.594h-.185c.705 1.421.773 3.136.685 4.692-.096 1.711-.423 3.398-.639 5.095-.211 1.665-.363 3.373-.888 4.976-.371 1.131-1.639 3.541-2.985 1.976-.602-.7-1.024-1.599-1.445-2.416a43.64 43.64 0 01-1.234-2.628c-.048-.11-.243-.03-.196.083.364.877.761 1.738 1.199 2.581.411.792.827 1.627 1.374 2.334.339.438.802.854 1.395.756.53-.088.947-.519 1.25-.935 1.026-1.409 1.275-3.304 1.502-4.987.263-1.942.573-3.886.781-5.835.203-1.901.268-4.049-.614-5.802-.036-.072-.147-.068-.185 0-.482.862-1.013 2.031-1.939 2.496-.666.335-1.386-.003-2.006-.277-.551-.243-1.1-.49-1.662-.709-.044-.016-.075.058-.032.08z"/><path d="M22.188 135.443c.083.848.684 1.666 1.574 1.724.504.032 1.084-.266 1.548.007.596.352.629 1.458.685 2.071.063.684.08 1.446-.217 2.081-.144.308-.382.615-.718.721-.42.131-.853-.111-1.187-.346-1.028-.723-1.734-1.846-2.288-2.954-.042-.085-.162-.01-.125.073.533 1.209 1.31 2.433 2.452 3.149.469.294 1.026.454 1.513.112.457-.321.662-.897.745-1.427.104-.664.04-1.346-.058-2.007-.08-.537-.158-1.287-.663-1.616-.423-.276-.917-.084-1.373-.043-1.09.099-1.507-.658-1.834-1.554-.008-.027-.057-.025-.054.009zM20.442 169.631c1.085 1.55 1.576 3.464 2.802 4.921.944 1.121 2.327 1.863 3.816 1.623 1.618-.261 2.934-1.516 3.913-2.754.603-.763 1.07-1.609 1.63-2.401.253-.358.574-.811.976-1.019.644-.333 1.041.276 1.265.806.4.945.611 1.995.809 2.998.226 1.143.387 2.299.516 3.457.257 2.306.41 4.625.567 6.94.321 4.729.552 9.463.775 14.197.419 8.913 1.018 18.04-.792 26.846-.868 4.22-2.358 8.26-3.756 12.323-1.306 3.795-2.348 7.66-3.419 11.526-1.014 3.663-2.057 7.371-3.697 10.811-.724 1.52-1.577 2.997-2.672 4.281-1.27 1.49-2.842 2.643-4.555 3.568-.78.421-1.582.805-2.38 1.19-.111.054-.014.215.096.165 1.668-.763 3.32-1.578 4.785-2.697 1.433-1.095 2.62-2.452 3.578-3.979 1.91-3.045 3.057-6.543 4.078-9.968 1.137-3.813 2.072-7.685 3.246-11.487 1.27-4.111 2.872-8.114 4.022-12.263 2.423-8.743 2.193-17.876 1.792-26.858-.213-4.771-.433-9.542-.716-14.309-.14-2.36-.298-4.719-.483-7.076-.174-2.218-.36-4.443-.776-6.631-.197-1.038-.416-2.125-.827-3.103-.209-.496-.579-1.139-1.212-1.041-.638.099-1.1.8-1.436 1.289-.604.882-1.114 1.81-1.802 2.634-1.154 1.384-2.832 2.751-4.753 2.393-2-.373-3.077-2.227-3.904-3.908-.425-.865-.832-1.743-1.398-2.528-.037-.053-.128-.002-.088.054z"/><path d="M20.541 174.443c.581 2.352 1.823 5.217 4.199 6.243 2.695 1.164 4.731-1.609 7.158-2.176 1.111-.26 1.51.767 1.718 1.662.194.839.304 1.7.44 2.551.3 1.877.571 3.76.77 5.65.39 3.709.53 7.441.274 11.164-.496 7.199-2.327 14.192-3.681 21.253-1.393 7.262-1.956 14.654-3.354 21.915-.642 3.336-1.46 6.668-2.725 9.826-.569 1.421-1.236 2.81-2.063 4.099-.84 1.309-1.903 2.673-3.342 3.349-.674.317-1.418.426-2.146.255-.081-.019-.114.101-.034.125 2.791.853 5.034-2.427 6.204-4.479 1.604-2.814 2.61-5.959 3.397-9.089 1.839-7.316 2.385-14.878 3.582-22.31 1.155-7.174 3.104-14.205 3.989-21.425.466-3.797.585-7.613.341-11.432-.235-3.686-.676-7.408-1.374-11.036-.211-1.099-.62-2.6-2.042-2.247-1.46.362-2.671 1.441-4.03 2.047-1.29.576-2.567.566-3.749-.24-1.172-.799-1.999-2.059-2.594-3.327a15.202 15.202 0 01-.866-2.397c-.013-.047-.083-.028-.072.019z"/><path d="M20.771 179.427c.693 1.986 1.913 4.223 3.972 5.045.987.394 1.905.235 2.892-.077.731-.232 1.526-.502 2.278-.199.591.238 1.003.755 1.319 1.292.715 1.215 1.059 2.655 1.287 4.035.256 1.553.349 3.132.331 4.705-.036 3.14-.509 6.261-1.201 9.318-.691 3.049-1.583 6.046-2.33 9.081a72.087 72.087 0 00-1.607 9.086c-.715 6.279-.857 12.626-1.938 18.861-.479 2.764-1.12 5.53-2.168 8.137-.46 1.146-1.007 2.265-1.692 3.293-.74 1.11-1.707 2.274-2.993 2.749a2.615 2.615 0 01-1.864 0c-.085-.032-.121.104-.037.136 2.342.902 4.319-1.597 5.376-3.357 1.346-2.24 2.159-4.789 2.776-7.316 1.492-6.118 1.752-12.443 2.295-18.693.286-3.294.64-6.589 1.292-9.833.636-3.162 1.54-6.259 2.345-9.379.783-3.038 1.443-6.109 1.73-9.238.278-3.031.267-6.196-.501-9.16-.296-1.142-.714-2.4-1.542-3.274-.888-.938-1.994-.758-3.116-.401-1.17.372-2.206.513-3.324-.094-1.089-.591-1.912-1.602-2.527-2.661a12.708 12.708 0 01-.953-2.082c-.023-.063-.122-.037-.1.026z"/><path d="M20.665 183.594c.726 1.92 1.767 3.783 3.269 5.203.594.562 1.266 1.05 2.014 1.384.783.349 1.634.534 2.224 1.208.836.954.967 2.414 1.021 3.627a20.749 20.749 0 01-.208 3.834c-.335 2.364-.999 4.661-1.633 6.958-.647 2.345-1.192 4.699-1.535 7.11-.351 2.467-.553 4.953-.716 7.439-.327 5.017-.479 10.063-1.316 15.03-.422 2.504-1.01 5.013-2.008 7.354-.508 1.19-1.133 2.373-2.011 3.332-.704.769-1.64 1.435-2.73 1.29-.073-.01-.09.117-.017.129 1.795.301 3.143-1.409 3.966-2.773 1.167-1.935 1.86-4.164 2.38-6.352 1.157-4.869 1.428-9.905 1.715-14.885.303-5.254.601-10.542 1.899-15.663.612-2.415 1.371-4.793 1.865-7.237.473-2.342.814-4.923.339-7.292-.203-1.011-.618-1.994-1.525-2.553-.823-.507-1.787-.689-2.601-1.233-2.068-1.383-3.372-3.696-4.317-5.941-.018-.042-.091-.012-.075.031z"/><path d="M20.932 189.826a6.806 6.806 0 001.023 3.488c.595.961 1.41 1.748 2.037 2.685.783 1.17 1.278 2.513 1.253 3.936-.027 1.545-.631 3.058-.981 4.549-.736 3.137-1.166 6.339-1.357 9.555-.197 3.313-.187 6.656-.735 9.937-.272 1.63-.706 3.273-1.45 4.754-.531 1.056-1.332 2.299-2.581 2.532-.1.019-.057.169.042.152.924-.156 1.607-.86 2.115-1.607.749-1.102 1.222-2.396 1.573-3.674.863-3.142.933-6.459 1.07-9.694.147-3.482.426-6.938 1.115-10.359.313-1.554.779-3.064 1.125-4.608.308-1.376.25-2.768-.286-4.081-.497-1.218-1.335-2.146-2.141-3.157-1.018-1.275-1.734-2.75-1.781-4.409 0-.026-.041-.026-.041.001z"/><path d="M20.702 197.556c1.331 3.241 1.682 6.707 1.233 10.175-.245 1.89-.579 3.761-.755 5.66-.174 1.875-.287 3.759-.559 5.624-.277 1.901-.681 3.897-1.677 5.565-.047.079.075.15.123.072.874-1.421 1.291-3.087 1.576-4.717.325-1.86.457-3.747.616-5.627.17-2.017.465-4.004.749-6.006.26-1.832.358-3.668.17-5.512-.183-1.793-.559-3.657-1.391-5.269-.024-.046-.105-.014-.085.035zM18.289 272.221c2.723-.17 4.93-2.129 6.565-4.166 2.19-2.73 3.689-5.969 4.917-9.229 2.797-7.431 4.25-15.294 6.238-22.961 1.095-4.222 2.312-8.431 4.075-12.427h-.156c.633 1.018.713 2.341.668 3.51-.05 1.335-.338 2.636-.611 3.938a50.714 50.714 0 00-.986 7.497c-.306 5.265 0 10.541.083 15.807.083 5.257-.076 10.528-1.262 15.67-1.059 4.59-2.821 8.956-4.602 13.3-2.026 4.941-3.98 9.919-4.931 15.2-.018.102.136.146.156.043.92-4.811 2.592-9.393 4.43-13.916 1.777-4.373 3.622-8.731 4.802-13.315 1.29-5.012 1.618-10.146 1.59-15.306-.029-5.341-.379-10.681-.186-16.021.106-2.935.379-5.878 1.013-8.749.313-1.419.679-2.847.71-4.309.024-1.155-.09-2.443-.717-3.443-.033-.052-.127-.066-.156 0-3.057 6.973-4.609 14.511-6.4 21.879-.91 3.746-1.863 7.489-3.081 11.148-1.148 3.449-2.518 6.877-4.52 9.925-1.736 2.643-4.266 5.601-7.637 5.882-.029.003-.029.045-.002.043z"/><path d="M24.86 300.434c1.139-6.939 3.037-13.699 5.03-20.43 1.96-6.62 3.942-13.248 5.137-20.06.346-1.971.63-3.954.833-5.944.204-1.996.302-4.028-.084-6.008-.014-.072-.121-.081-.154-.02-1.845 3.373-3.245 6.976-4.306 10.67-.567 1.973-.985 3.98-1.489 5.969-.484 1.914-1.092 3.789-2.192 5.445-1.057 1.591-2.444 2.974-3.832 4.273-1.387 1.298-2.913 2.401-4.371 3.611-1.333 1.107-2.443 2.402-3.23 3.955-.726 1.433-1.21 2.983-1.577 4.544-.965 4.102-1.247 8.399-1.375 12.6-.003.101.148.099.155 0 .266-3.821.423-7.659 1.17-11.426.683-3.445 1.857-6.771 4.546-9.154 1.363-1.209 2.873-2.236 4.229-3.457 1.377-1.24 2.731-2.565 3.862-4.039 2.375-3.096 2.881-6.962 3.829-10.642 1.094-4.248 2.609-8.417 4.726-12.263l-.154-.02c.35 1.82.279 3.685.108 5.522a77.768 77.768 0 01-.725 5.482c-.568 3.422-1.335 6.807-2.213 10.161-1.722 6.575-3.864 13.031-5.583 19.607-1 3.827-1.852 7.689-2.41 11.608-.006.042.063.062.07.016z"/><path d="M16.459 296.263c.219-2.839.635-5.711 1.499-8.429.38-1.194.854-2.367 1.501-3.441.718-1.191 1.695-2.145 2.675-3.115 3.425-3.391 5.32-8 7.396-12.272 1.189-2.447 2.416-4.9 4.005-7.114l-.166-.07c-.978 4.937-2.342 9.807-4.22 14.477-.94 2.338-1.982 4.637-2.779 7.031-.779 2.34-1.327 4.751-1.772 7.175-.52 2.83-.966 5.694-1.249 8.558-.007.067.107.083.118.016.839-5.017 1.323-10.074 2.837-14.954.739-2.383 1.739-4.666 2.687-6.969a76.937 76.937 0 002.48-6.933 86.824 86.824 0 002.074-8.352c.021-.104-.106-.154-.166-.07-2.922 4.071-4.677 8.849-7.039 13.242-1.124 2.09-2.38 4.123-4.046 5.825-.942.962-1.936 1.87-2.689 2.999-.644.966-1.125 2.036-1.515 3.128-1.061 2.969-1.483 6.137-1.68 9.271-.004.03.046.029.049-.003z"/><path d="M20.64 293.458c.444-3.285 1.247-6.589 2.765-9.551.138-.269.282-.689.498-.902.358-.353.181.251.162.432a101.626 101.626 0 01-1.361 9.049c-.39 1.976-.844 3.939-1.34 5.891-.023.089.113.127.137.038 1.417-5.132 2.302-10.422 2.822-15.719.005-.053-.046-.086-.091-.091-.337-.042-.5.324-.642.576-.227.403-.435.816-.632 1.235-.41.875-.763 1.778-1.066 2.695a29.932 29.932 0 00-1.333 6.337c-.003.045.075.056.081.01zM37.81 299.267c.36-2.854 1.212-5.585 2.261-8.253 1.008-2.565 2.113-5.084 2.915-7.726 1.797-5.921 2.47-12.105 2.468-18.279-.001-6.54-.619-13.064-.904-19.594a336.25 336.25 0 01.005-29.413c.07-1.608.148-3.216.246-4.822.046-.749.094-1.504.245-2.241.128-.627.339-1.465.927-1.823.664-.404 1.267.154 1.579.718.04.072.14.009.108-.063-.342-.756-1.124-1.347-1.9-.752-.907.694-.997 2.216-1.082 3.255-.273 3.35-.359 6.728-.46 10.087a342.314 342.314 0 00-.007 20.316c.198 6.793.766 13.565.995 20.356.223 6.639-.102 13.283-1.715 19.749-.705 2.826-1.7 5.535-2.794 8.229-1.071 2.639-2.125 5.297-2.638 8.112-.129.71-.223 1.423-.286 2.143-.002.025.034.024.037.001z"/><path d="M48.145 211.45c-.146-.673-.709-1.274-1.38-.751-.788.615-.843 2.006-.893 2.913-.088 1.58-.043 3.173-.05 4.755-.008 1.629-.015 3.258-.019 4.887-.019 6.578-.001 13.156.14 19.732.138 6.411.508 12.815.612 19.227.101 6.258-.111 12.551-1.385 18.696-1.167 5.63-2.938 11.438-1.677 17.219.139.636.324 1.255.565 1.86.02.051.104.031.084-.023-.924-2.564-1.038-5.369-.856-8.066.198-2.938.858-5.81 1.505-8.673.633-2.801 1.161-5.609 1.462-8.468.309-2.945.434-5.907.459-8.867.051-6.044-.31-12.082-.5-18.121-.197-6.253-.263-12.51-.273-18.766-.006-3.514.006-7.027.023-10.541.008-1.693-.058-3.407.065-5.097.054-.733.135-1.613.54-2.251.183-.287.506-.574.873-.497.393.082.556.503.643.849.009.042.071.025.062-.017z"/><path d="M45.835 297.88c-.127-2.014-.317-4.026-.228-6.046.09-2.04.608-3.903 1.217-5.836 1.206-3.823 1.108-7.797.979-11.76-.262-8.047-.588-16.121.013-24.16.326-4.361.933-8.71 2.039-12.945.031-.118-.15-.168-.181-.05-2.018 7.563-2.377 15.482-2.364 23.274.007 4.095.137 8.189.271 12.282.133 4.03.467 8.231-.577 12.173-.546 2.061-1.308 4.004-1.486 6.15-.191 2.3-.007 4.633.261 6.919.003.034.058.036.056-.001zM50.22 263.224c-.836 4.115-1.332 8.308-1.116 12.512.104 2.038.402 4.043.898 6.021.548 2.183.857 4.332.82 6.588-.042 2.541-.403 5.057-.747 7.57-.011.078.108.113.12.033.628-4.168 1.218-8.543.298-12.712-.238-1.076-.548-2.134-.76-3.216a29.933 29.933 0 01-.439-3.168c-.183-2.112-.17-4.239-.025-6.353.168-2.439.493-4.875.956-7.275 0-.002-.004-.003-.005 0z"/><path d="M51.901 296.384c.334-1.648.672-3.296.99-4.948.294-1.525.577-3.015.39-4.575-.355-2.959-1.47-5.763-2.597-8.496-.029-.069-.142-.04-.114.032 1.077 2.728 2.187 5.528 2.527 8.465.186 1.605-.108 3.141-.404 4.713-.3 1.594-.581 3.192-.866 4.789-.009.048.064.069.074.02zM41.23 69.968c-.727 8.941-.37 17.868.029 26.814.195 4.371.364 8.746.314 13.122-.051 4.484-.308 8.961-.484 13.441-.172 4.376-.243 8.751-.036 13.127.209 4.402.618 8.79.893 13.187.272 4.361.368 8.73.25 13.098-.119 4.416-.533 8.802-.901 13.202-.406 4.869-.428 9.675.03 14.543.468 4.972 1.064 9.933 1.594 14.899a.083.083 0 00.165 0c.273-2.506.956-4.89 2.233-7.069 1.057-1.804 2.034-3.546 1.896-5.711-.008-.123-.199-.125-.193 0 .134 2.415-1.157 4.259-2.252 6.281-1.081 1.997-1.614 4.251-1.85 6.499h.165c-.492-4.436-.992-8.872-1.454-13.311-.46-4.42-.685-8.815-.414-13.256.262-4.294.768-8.568.984-12.866.224-4.463.236-8.937.036-13.401-.194-4.315-.588-8.617-.866-12.927a142.713 142.713 0 01-.242-13.341c.127-4.391.389-8.777.518-13.168.131-4.472.057-8.94-.128-13.409-.203-4.905-.496-9.807-.602-14.716-.108-5.018.032-10.032.35-15.041.004-.021-.033-.021-.035.003z"/><path d="M42.957 71.489c-1.029 7.86-.808 15.842-.398 23.738.417 8.025 1.106 16.038.73 24.08-.379 8.11-1.104 16.18-.718 24.308.189 3.974.696 7.918 1.044 11.879.349 3.98.451 7.975.385 11.969-.066 3.997-.293 7.99-.577 11.977-.256 3.588-.557 7.245-.018 10.822.125.829.296 1.651.535 2.455.023.077.141.103.181.024 1.527-3.06 2.208-6.495 2.38-9.895.007-.133-.199-.132-.206 0-.173 3.357-.846 6.768-2.345 9.795l.181.024c-1.051-3.497-.934-7.223-.713-10.83.24-3.918.547-7.828.675-11.753.131-3.997.125-8.002-.124-11.994-.248-3.961-.786-7.896-1.081-11.853-.599-8.024-.086-16.038.4-24.052.245-4.037.339-8.067.211-12.11-.127-4.014-.405-8.02-.638-12.029-.458-7.881-.781-15.798-.131-23.677.079-.96.173-1.92.277-2.878.004-.032-.046-.031-.05 0z"/><path d="M46.763 174.711a9.588 9.588 0 01-.393 2.437 6.758 6.758 0 01-.418 1.061c-.083.166-.174.362-.299.502-.103.116-.365.286-.547.219-.087-.032-.149-.25-.172-.316-.19-.557-.151-1.214-.102-1.793.072-.856.159-1.712.237-2.568l.944-10.363c.178-1.963.347-3.927.506-5.892.005-.065-.094-.064-.101 0-.41 4.02-.766 8.045-1.115 12.071-.173 1.997-.348 3.993-.514 5.991-.06.73-.146 1.469-.028 2.199.043.268.137.798.489.833.551.055.927-1.159 1.062-1.547.318-.91.457-1.872.483-2.833.002-.023-.031-.023-.032-.001z"/></g></g></g><g><path fill="#4D9929" d="M122.155 50.173c-15.833-17.306-37.854-27.772-60.348-34.267C52.412 13.194 42.715 6.258 32.926 0H0v126.833c12.564.028 24.624-8.107 30.325-19.416 2.092 7.088 9.09 12.408 16.453 12.509 7.363.101 14.502-5.026 16.786-12.055 15.462 7.465 36 1.803 45.497-12.542 6.427 4.111 15.634 1.867 20.585-3.948 4.951-5.816 6.002-14.284 4.094-21.691-1.909-7.406-6.43-13.882-11.585-19.517z"/></g><g><path fill="#35691C" d="M134.623 76.043c-.993 2.331-2.694 4.365-5.403 5.854-4.187 2.202-8.549 1.502-12.052-.484-4.936-2.664-8.202-8.15-8.651-13.665-.62 3.387-4.145 4.899-7.271 5.582-8.372 1.707-18.119-1.5-22.151-9.496 4.032 7.996-2.012 17.384-9.185 21.104-8.182 4.418-18.394 2.333-24.021-4.815-4.719 4.282-12.927 3.69-16.783-1.404-.518-.808-1.608-1.657-1.321-2.985-4.678 3.708-10.991 3.445-15.72-.171-4.007-2.986-4.06-7.613-4.903-11.911A54.932 54.932 0 010 68.501v58.333c12.564.028 24.624-8.107 30.325-19.416 2.092 7.088 9.09 12.408 16.453 12.509 7.363.101 14.502-5.026 16.786-12.055 15.462 7.465 36 1.803 45.497-12.542 6.427 4.111 15.634 1.867 20.585-3.949 3.572-4.197 5.113-9.775 4.977-15.338z"/></g><g><path fill="#4F1B11" d="M521.723 0c-4.133 81.402-12.945 244.792-16.678 319.173-.312 6.212-.765 12.836-4.488 17.808-1.667 2.226-4.016 4.381-5.835 6.617h49.991V0h-22.99z"/></g><g><path fill="#852D1C" d="M521.723 0c-4.133 81.402-12.945 244.792-16.678 319.173-.312 6.212-.765 12.836-4.488 17.808-1.667 2.226-4.016 4.381-5.835 6.617h7.252c1.067-1.142 2.12-2.282 2.988-3.441 3.723-4.972 4.176-11.596 4.488-17.808C513.232 246.986 522.228 80.254 526.289 0h-4.566z"/></g><g><defs><path id="c" d="M519.47 32.599c-3.886 93.872-9.66 185.056-13.546 278.928-.312 7.531-1.645 13.672-5.367 19.699-3.561 5.766-5.302 12.371-5.302 12.371h49.458V19.42"/></defs><clipPath id="d"><use overflow="visible" xlink:href="#c"/></clipPath><g fill="#702618" clip-path="url(#d)"><path d="M520.563 273.185c.178 6.017-.661 11.999-1.306 17.966-1.256 11.623-.902 23.281 1.692 34.706 1.063 4.682 2.465 9.412 6.101 12.752 2.106 1.935 4.608 3.35 6.922 4.989h.619c-3.708-2.73-7.92-4.689-10.323-8.881-2.78-4.848-3.69-10.989-4.482-16.448a101.095 101.095 0 01-.977-18.341c.228-6.008 1.147-11.95 1.662-17.933.503-5.843.325-11.515-.635-17.299-1.062-6.399-1.529-12.474-.759-18.938.746-6.257 1.919-12.467 2.835-18.701 1.744-11.873 3.393-23.823 4.278-35.795.445-6.018.586-12.071.077-18.09-.511-6.048-1.632-12.024-2.212-18.065-1.148-11.956.68-23.816 2.145-35.656.736-5.947 1.339-11.909 1.437-17.905.1-6.07-.216-12.137-.573-18.194-.714-12.14-.981-24.123-.29-36.272.687-12.08 1.689-24.215.713-36.309a100.942 100.942 0 00-.981-8.037c-.002-.01-.016-.006-.015.004 1.899 12.089 1.391 24.335.661 36.5-.725 12.098-1.316 24.098-.674 36.216.635 11.994 1.564 23.932.471 35.931-1.081 11.865-3.391 23.636-3.402 35.585-.011 12.12 3.086 23.95 2.868 36.1-.222 12.385-2.004 24.79-3.692 37.043a786.965 786.965 0 01-2.742 18.213c-.904 5.592-1.793 11.239-1.556 16.923.251 6.033 1.959 11.891 2.138 17.936zM544.714 179.314c-2.981-2.556-5.14-6.331-6.64-9.716-4.967-11.209-4.932-24.129-4.2-36.144.86-14.104 2.892-28.122 3.317-42.255.213-7.071.007-14.16-.938-21.176-.931-6.914-2.463-13.736-3.119-20.688-1.32-13.99.146-28.056-.716-42.065a98.404 98.404 0 00-.457-5.229c-.011-.098-.164-.1-.155 0 1.367 14.408-.115 28.862.747 43.285.422 7.062 1.741 13.968 2.854 20.94 1.161 7.272 1.643 14.585 1.541 21.948-.202 14.491-2.287 28.86-3.276 43.301-.836 12.212-1.085 25.201 3.493 36.773 1.645 4.158 4.018 8.532 7.549 11.438v-.412zM543.254 83.204c-.788 7.47-2.08 15.722 1.46 22.716v-.676c-1.255-2.708-1.818-5.751-2.012-8.704-.277-4.216.296-8.434.747-12.618.479-4.438.716-8.845.152-13.287-.545-4.29-1.607-8.488-2.458-12.722-1.714-8.531-2.009-17.221-2.308-25.893-.291-8.441-.612-16.955-2.48-25.222a36.965 36.965 0 00-.801-3.002c-.008-.026-.046-.015-.04.011.994 4.312 1.798 8.616 2.245 13.023.445 4.389.639 8.798.797 13.205.314 8.735.458 17.528 2.033 26.15.805 4.407 1.948 8.747 2.613 13.18.351 2.338.551 4.692.523 7.057-.026 2.268-.234 4.528-.471 6.782zM544.714 26.334c-.635-5.569-1.748-11.075-2.973-16.541-.358-1.6-.734-3.196-1.109-4.793-.014-.062-.108-.036-.095.026 1.504 6.709 3.042 13.426 3.88 20.259.113.922.211 1.846.296 2.771v-1.722z"/><path d="M544.714 162.082a46.384 46.384 0 01-.551-1.499c-1.259-3.615-2.25-7.336-3.053-11.078a105.166 105.166 0 01-2.312-23.284c.047-3.892.31-7.78.796-11.642.212-1.685.322-3.527.962-5.118.259-.642.674-1.376 1.394-1.559.909-.231 1.94.59 2.639 1.089.042.03.082.062.123.092v-.426l-.079-.058c-1.133-.794-2.659-1.683-3.754-.361-.939 1.133-1.099 2.785-1.299 4.186-.562 3.95-.896 7.935-1.01 11.923a106.317 106.317 0 002.002 23.842 97.66 97.66 0 003.035 11.551 47.144 47.144 0 001.106 3.033v-.691z"/><path d="M544.714 129.827c-.015.206-.031.411-.045.617-.234 3.542-.277 7.12.045 10.659v-11.276zM544.714 286.047a195.163 195.163 0 00-2.227-5.094c-2.646-5.781-5.992-11.204-8.644-16.982-2.839-6.183-4.392-12.683-4.877-19.467-.482-6.744-.091-13.515.382-20.248.5-7.112 1.008-14.226 1.702-21.322.345-3.525.706-7.057 1.22-10.562.485-3.306 1.143-6.733 2.674-9.732.336-.659.754-1.337 1.42-1.702.785-.43 1.662-.195 2.393.226 1.314.756 2.278 1.972 3.342 3.023a22.761 22.761 0 002.615 2.228v-.414a22.176 22.176 0 01-1.519-1.258c-1.127-1.02-2.091-2.217-3.269-3.18-.824-.675-1.878-1.359-2.996-1.181-1.321.21-2.02 1.496-2.519 2.605-.648 1.438-1.133 2.944-1.512 4.474-.818 3.299-1.195 6.695-1.578 10.067-.819 7.211-1.376 14.448-1.898 21.685-.972 13.45-2.408 27.606 2.359 40.537 2.275 6.17 5.714 11.795 8.665 17.645 1.558 3.089 2.924 6.264 4.267 9.449v-.797z"/><path d="M544.714 259.203a135.346 135.346 0 00-.944-3.893c-2.698-10.41-7.079-20.387-8.671-31.078-.84-5.638-.709-11.316.138-16.945.418-2.782.984-5.54 1.647-8.273.318-1.311.6-2.658 1.044-3.933.451-1.295 1.235-2.381 2.706-2.463 1.256-.07 2.57.393 3.746.785.111.037.222.077.333.115v-.37c-1.04-.365-2.095-.667-3.175-.811-1.004-.134-2.048-.011-2.814.713-.78.738-1.113 1.862-1.382 2.869a113.386 113.386 0 00-1.884 8.364c-1.039 5.555-1.543 11.218-1.02 16.861 1.009 10.897 5.325 21.052 8.299 31.481.753 2.641 1.389 5.313 1.976 7.997v-1.419z"/><path d="M544.714 233.919a164.012 164.012 0 01-1.831-4.597c-1.667-4.427-2.981-9.037-3.232-13.787-.124-2.355.018-4.732.539-7.035.464-2.05 1.227-4.114 2.562-5.76.547-.674 1.2-1.274 1.962-1.693v-.28a5.376 5.376 0 00-.893.558c-1.488 1.149-2.463 2.876-3.123 4.61-.788 2.068-1.162 4.298-1.279 6.502-.25 4.694.709 9.401 2.159 13.842.91 2.787 2.019 5.498 3.136 8.206v-.566zM530.72 323.838c-1.433-3.133-2.586-6.4-3.313-9.772-.815-3.776-1.108-7.645-1.165-11.502-.113-7.702.709-15.392.438-23.095-.131-3.71-.524-7.43-1.437-11.034-.906-3.575-3.015-7.325-1.984-11.097.208-.761.536-1.469 1.054-2.061 6.713 9.895 10.227 21.527 14.475 32.599 1.746 4.549 3.633 9.194 5.927 13.599v-.742c-4.693-9.124-7.693-19.048-11.508-28.555-2.402-5.986-5.121-11.903-8.729-17.264-.06-.09-.186-.117-.268-.035-2.516 2.559-1.41 6.709-.419 9.675.609 1.822 1.177 3.64 1.573 5.522.4 1.9.666 3.825.836 5.759.685 7.787-.121 15.601-.239 23.393-.058 3.812.04 7.638.558 11.42a45.95 45.95 0 002.708 10.419c2.44 6.273 6.08 11.958 9.65 17.626a238.878 238.878 0 013.022 4.905h.381c-.496-.833-1-1.662-1.512-2.486-3.512-5.658-7.27-11.199-10.048-17.274z"/><path d="M544.714 330.028c-3.46-7.6-6.829-15.259-9.107-23.311a81.581 81.581 0 01-1.897-8.261c-.51-2.935-.882-6.016-.084-8.931 3.815 4.535 6.895 9.666 9.238 15.112.683 1.588 1.264 3.214 1.85 4.838v-.935a74.59 74.59 0 00-.797-2.133c-2.21-5.594-5.178-10.886-8.881-15.621a60.064 60.064 0 00-1.372-1.687c-.077-.091-.221-.034-.252.067-.776 2.549-.627 5.244-.249 7.85.363 2.503.89 4.987 1.51 7.437 1.227 4.845 2.881 9.57 4.746 14.202 1.651 4.1 3.463 8.129 5.296 12.15v-.777z"/><path d="M544.714 323.55a79.923 79.923 0 01-1.731-3.466 88.515 88.515 0 01-4.306-11.138c2.215 2.053 4.176 4.336 6.037 6.707v-.482c-1.922-2.434-3.955-4.777-6.256-6.86-.111-.101-.31-.005-.263.153a86.093 86.093 0 006.518 15.748v-.662zM508.135 233.42c1.174-1.402 3.325-1.646 4.569-.185 1.357 1.593 1.339 4.078 1.507 6.05a304.389 304.389 0 01.644 42.702c-.263 4.762-.663 9.512-1.11 14.26-.447 4.738-.894 9.481-1.013 14.241-.221 8.882.976 17.696 4.445 25.918 1.058 2.508 2.348 4.872 3.732 7.191h.362c-.976-1.603-1.911-3.221-2.716-4.89-4.062-8.419-5.647-17.666-5.539-26.971.056-4.843.484-9.671.934-14.491.459-4.914.89-9.828 1.168-14.756.549-9.75.636-19.528.26-29.285a305.84 305.84 0 00-.919-14.669c-.154-1.774-.24-3.797-1.319-5.295-.831-1.154-2.302-1.661-3.653-1.183-.645.228-1.136.672-1.52 1.232-.07.1.089.225.168.131z"/><path d="M507.027 238.438c.301-.814 1.024-1.26 1.884-1.156.851.102 1.489.644 1.887 1.383.949 1.763.77 3.983.785 5.919.035 4.485.068 8.97.076 13.455.017 8.966-.061 17.935-.413 26.895-.338 8.617-1.139 17.219-1.244 25.845-.101 8.333.578 16.667 3.178 24.624.87 2.662 1.892 5.406 2.726 8.195h.251c-.505-1.681-1.083-3.343-1.659-4.998-1.455-4.183-2.698-8.372-3.369-12.76-.673-4.406-.897-8.871-.896-13.325.003-9.002.871-17.981 1.234-26.971.379-9.367.455-18.743.431-28.117-.012-4.689-.043-9.378-.087-14.066-.016-1.722-.004-3.751-1.055-5.214-.622-.866-1.817-1.371-2.837-.923-.515.226-.832.657-1.003 1.183-.021.071.086.098.111.031zM508.361 306.573c-.019 5.666-.298 11.327-.584 16.985-.273 5.404-.883 11.199 1.079 16.374.479 1.262 1.112 2.453 1.699 3.666h.299c-.23-.483-.468-.961-.702-1.442-.615-1.261-1.164-2.541-1.533-3.898-.383-1.41-.6-2.86-.715-4.315-.223-2.828-.073-5.669.07-8.496.567-11.234 1.255-22.564-.046-33.774-.701-6.041-2.015-12.028-4.333-17.662-.078-.191-.392-.108-.313.087 4.15 10.276 5.117 21.484 5.079 32.475zM503.838 332.569c-.375 1.47-.914 2.874-1.461 4.286a21.317 21.317 0 00-1.427 6.742h.223c.1-2.137.492-4.233 1.258-6.273.524-1.398 1.087-2.773 1.481-4.217a28.5 28.5 0 00.803-4.208c.345-2.956.269-5.953-.087-8.904-.397-3.291-1.178-6.497-2.165-9.656-.001-.005-.009-.003-.007.002 1.71 5.715 2.724 11.835 2.147 17.806a29.568 29.568 0 01-.765 4.422z"/><path d="M496.211 343.598c.131-.943.387-1.872.689-2.781.525-1.581 1.218-3.101 1.995-4.572.864-1.635 1.824-3.218 2.785-4.796.069-.113-.106-.214-.176-.103-1.787 2.817-3.552 5.668-4.7 8.82-.402 1.102-.767 2.258-.928 3.434h.335zM521.634 41.849c.613 6.077.93 12.18.83 18.289-.102 6.209-.599 12.402-1.043 18.593-.444 6.187-.828 12.384-.722 18.59.105 6.167.64 12.315 1.019 18.469.379 6.152.544 12.301.098 18.454-.435 6.003-1.283 11.966-1.867 17.954-.595 6.098-.82 12.219-.573 18.343.247 6.116 1.106 12.138 1.888 18.2.436 3.382.792 6.782.808 10.195.016 3.509-.357 7.003-.869 10.47-1.014 6.872-2.26 13.717-3.427 20.564h.269c-.555-3.439-1.942-6.673-4.216-9.319-2.086-2.428-4.881-4.883-4.562-8.399.019-.214-.311-.211-.332 0-.317 3.147 1.807 5.482 3.776 7.647 2.659 2.924 4.41 6.212 5.065 10.145.022.133.246.134.269 0 1.014-6.14 2.089-12.271 3.069-18.417.945-5.925 1.463-11.805.943-17.801-.527-6.076-1.659-12.079-2.148-18.161a127.54 127.54 0 01-.152-18.327c.391-6.131 1.253-12.216 1.874-18.324.63-6.201.841-12.381.576-18.609-.261-6.16-.827-12.303-1.113-18.462-.288-6.197-.134-12.377.242-18.567.376-6.195.916-12.381 1.173-18.583.254-6.133.17-12.272-.33-18.391a113.962 113.962 0 00-.482-4.552c-.004-.041-.067-.042-.063-.001z"/><path d="M517.914 43.975c1.872 10.931 1.551 22.011.661 33.022-.901 11.152-2.378 22.265-1.571 33.472.396 5.5 1.087 10.974 1.452 16.478.37 5.58.49 11.187.108 16.771-.385 5.635-1.477 11.167-2.241 16.754-.748 5.468-.987 10.981-.86 16.497.128 5.568.604 11.122 1.21 16.657.545 4.982 1.219 10.159.094 15.111a16.745 16.745 0 01-1.213 3.524h.293c-2.985-3.904-4.64-8.706-5.026-13.592-.018-.227-.372-.229-.355 0 .384 4.961 2.046 9.807 5.087 13.764.068.089.235.131.293 0 1.975-4.434 1.971-9.339 1.576-14.093-.45-5.422-1.165-10.811-1.478-16.247-.327-5.66-.364-11.347.128-16.999.49-5.638 1.653-11.183 2.331-16.797 1.353-11.215.285-22.409-.772-33.595-.529-5.601-.763-11.179-.505-16.803.261-5.688.865-11.352 1.369-17.021.969-10.888 1.699-21.936.195-32.812a71.453 71.453 0 00-.693-4.114c-.01-.056-.092-.032-.083.023z"/><path d="M509.799 187.368c.078 2.02.813 4.484 2.469 5.786.584.459 1.276.396 1.647-.271.399-.716.385-1.676.301-2.466-.295-2.773-.729-5.538-1.1-8.303-.373-2.781-.756-5.561-1.141-8.341a641.952 641.952 0 00-1.401-9.648c-.015-.096-.183-.074-.17.023.641 5.006 1.351 10.003 2.044 15.003.35 2.526.71 5.05 1.062 7.575.177 1.268.401 2.538.532 3.811.079.769.136 1.922-.441 2.528-.982 1.031-2.327-1.206-2.712-1.918-.629-1.162-.961-2.462-1.034-3.779-.002-.036-.058-.037-.056 0z"/></g></g><g><path fill="#4D9929" d="M56.275 307.835l-3.442-8.381c-.07-.17-.14-.363-.069-.533.063-.148.216-.233.358-.307l3.233-1.677c.914 2.021 1.83 4.045 2.905 5.984a46.822 46.822 0 00-2.616-10.317 48.973 48.973 0 018.923-3.123c-.146 1.31-.549 2.575-.95 3.83l-2.971 9.304a40.133 40.133 0 003.747-5.447l3.777 1.378a91.618 91.618 0 01-7.131 9.533M73.12 309.087a40.101 40.101 0 01-1.264-7.053 20.278 20.278 0 013.682-.819c.132 1.358.445 2.697.928 3.972a72.385 72.385 0 011.719-7.63l3.967.106a98.62 98.62 0 00-4.066 11.319M87.992 310.466a28.922 28.922 0 00-3.557-4.945l2.828-1.589 3.74 5.809-5.538-11.381a32.032 32.032 0 014.937-2.492 254.282 254.282 0 012.108 12.422l-.415-10.452 3.461.398a68.266 68.266 0 01-2.118 9.523l3.895-7.46a9.734 9.734 0 002.7 2.103l-6.596 8.372M103.293 309.531l-2.369-2.145 2.251-1.625 1.576 2.027-4.72-8.893a35.4 35.4 0 014.572-2.537l2.153 10.968-1.413-14.106a16.807 16.807 0 014.502-.34c.198.012.413.034.558.171.22.209.171.567.104.864l-2.816 12.544a135.791 135.791 0 012.646-9.668c1.303.296 2.586.686 3.834 1.164.204.078.431.184.494.393.058.193-.048.393-.151.565a58.86 58.86 0 01-6.03 8.36 67.904 67.904 0 005.337-5.643l2.878 1.374-5.61 6.686M116.7 308.836l.799-6.528c.026-.21.06-.437.214-.582.148-.139.368-.163.57-.179l2.807-.227a50.451 50.451 0 00-.751 6.781 98.19 98.19 0 016.222-10.793c.104-.156.218-.321.392-.392.177-.073.378-.033.564.01 1.58.362 3.134.84 4.646 1.428a37.607 37.607 0 00-10.315 12.279M40.973 310.511a13.394 13.394 0 01-3.038-2.845c-.098-.125-.199-.271-.177-.429.018-.128.113-.23.205-.321a7.27 7.27 0 011.459-1.099c.129-.074.273-.145.418-.116.171.035.283.196.377.344l1.656 2.629a86.22 86.22 0 00-3.104-7.613l3.575-1.768c.141-.07.294-.141.449-.114.275.048.401.365.477.634l2.255 7.945.887-3.552 2.279-.032a38.43 38.43 0 00-.962 4.729"/></g><g><path fill="#4F1B11" d="M514.679 134.847l-21.466-13.864c-1.091-.705-2.213-1.439-2.94-2.517-.593-.879-.88-1.924-1.149-2.951a194.885 194.885 0 01-5.159-27.709l-4.019.324 2.589 34.264c.073.966.154 1.961.597 2.822.414.805 1.11 1.422 1.789 2.018 9.588 8.416 19.18 17.387 28.767 25.803l.991-18.19z"/></g><g><path fill="#852D1C" d="M487.746 126.831c-.68-.597-1.375-1.213-1.789-2.018-.443-.86-.524-1.856-.597-2.822l-2.576-34.089-2.837.228 2.589 34.264c.073.966.154 1.961.597 2.822.414.805 1.11 1.422 1.79 2.018 9.588 8.416 19.18 17.387 28.767 25.803l.047-.592c-8.733-7.665-17.259-17.949-25.991-25.614z"/></g><g><path fill="#3B751F" d="M530.571 86.982c.705 5.667-4.014 11.25-9.647 12.049-5.633.799-11.416-2.795-13.8-7.981-.804 2.134-1.81 4.269-3.492 5.803-1.682 1.535-4.179 2.351-6.291 1.508-2.624-1.047-3.757-4.111-4.371-6.878-1.169 1.368-1.602 3.405-3.151 4.314-1.703 1-4.008.044-5.167-1.559-1.159-1.603-1.463-3.653-1.733-5.615-2.949 7.174-9.818 12.574-17.462 13.728-2.827.427-5.795.293-8.43-.821-4.168-1.763-7.143-6.07-7.326-10.607-2.868 5.347-8.627 9.004-14.667 9.341-6.04.337-12.155-2.646-15.648-7.604-3.411-4.842-4.158-11.715-1.054-16.76 3.104-5.045 10.286-7.394 15.395-4.419.449-3.068 2.96-5.418 5.6-7.028 6.435-3.923 14.579-4.893 21.75-2.591.854.274 1.725.596 2.619.531 1.924-.141 3.223-1.939 4.483-3.406 3.505-4.08 8.828-6.64 14.189-6.41 5.362.23 10.599 3.406 12.947 8.251.485 1 1.124 2.245 2.23 2.191.505-.025.944-.338 1.358-.63 4.193-2.956 9.238-4.865 14.359-4.718 5.122.147 9.644 3.048 13.211 6.741 6.104 6.322 5.506 18.351 4.098 22.57"/></g><g><path fill="#4D9929" d="M422.727 74.488c2.488-2.113 5.741-2.113 8.611-.576.957.384 2.488 1.345 2.679.961 2.488-4.611 5.932-8.838 10.908-10.183 2.296-.769 4.593-1.729 7.081-1.153 3.445.769 6.315 3.843 9.186 2.882 6.889-2.113 12.056-8.646 19.519-9.222 5.167-.384 10.908 1.345 13.396 6.34.574.769 1.531 1.729 2.105 1.537 7.249-3.164 15.537-7.37 23.259-5.859-1.942-.915-4.021-1.482-6.209-1.545-5.122-.147-10.166 1.762-14.359 4.718-.414.292-.853.605-1.358.63-1.106.054-1.746-1.191-2.23-2.191-2.348-4.845-7.586-8.021-12.947-8.251-5.362-.23-10.684 2.33-14.189 6.41-1.26 1.467-2.559 3.264-4.483 3.406-.894.066-1.765-.257-2.619-.531-7.171-2.302-15.315-1.332-21.75 2.591-2.64 1.61-5.151 3.96-5.6 7.028-5.109-2.975-12.291-.627-15.395 4.419-2.091 3.399-2.432 7.626-1.391 11.504-.003-4.825 1.925-9.92 5.786-12.915z"/></g><g><path fill="#2D5918" d="M531.373 82.67c-1.314 2.787-3.53 5.05-6.648 5.652-2.488.576-4.976-.961-5.358-3.458-1.148 1.729-3.253 2.69-5.167 3.074-4.019.769-7.846-1.345-10.525-4.227-1.722 1.921-3.636 3.843-6.506 3.458-2.105-.384-3.827-2.113-4.019-4.035-2.105 2.113-5.167 4.803-8.229 2.498-1.914-1.729-3.062-4.035-3.445-6.532-3.636 5.764-8.611 11.143-15.883 12.296-5.358.961-9.951-2.498-12.439-7.109-.383-.576-.957-.961-1.34-.769-3.253 1.345-6.315 5.38-10.334 3.65-1.531-.576-2.105-2.306-1.531-3.65-4.593 5.38-12.056 8.454-18.754 6.148-1.596-.534-3.109-1.481-4.369-2.706a16.68 16.68 0 002.558 5.699c3.493 4.959 9.608 7.941 15.648 7.604 6.04-.337 11.799-3.993 14.667-9.341.184 4.537 3.158 8.844 7.326 10.607 2.635 1.115 5.603 1.248 8.43.821 7.644-1.154 14.513-6.554 17.462-13.728.27 1.962.574 4.012 1.733 5.615 1.159 1.603 3.464 2.558 5.167 1.559 1.55-.909 1.983-2.946 3.151-4.314.614 2.767 1.747 5.831 4.371 6.878 2.112.843 4.609.026 6.291-1.508 1.682-1.535 2.688-3.669 3.492-5.803 2.384 5.186 8.167 8.781 13.8 7.981 5.633-.799 10.351-6.382 9.647-12.049.347-1.033.643-2.538.804-4.311z"/></g><g><path fill="#3B751F" d="M393.609 0c2.639 3.973 6.589 6.953 11.283 7.718-.442 6.226-.343 12.656 1.927 18.467 2.27 5.811 7.075 10.934 13.18 12.118 6.105 1.184 13.172-2.605 14.372-8.729 1.878 6.876 7.575 12.563 14.434 14.41 6.859 1.847 14.626-.216 19.678-5.226 3.168 2.305 7.886 2.049 10.876-.441-3.411 3.752-1.726 10.678 2.539 13.753 4.545 3.278 10.629 3.279 16.185 2.606 6.536-.792 13.5-2.652 17.576-7.843-.883 3.118 2.593 6.153 5.808 5.859 3.215-.293 5.796-2.829 7.513-5.574 2.85 4.27 8.784 5.674 13.721 4.309.689-.19 1.359-.426 2.013-.699V0H393.609z"/></g><g><path fill="#4D9929" d="M393.609 0c2.636 3.967 6.578 6.945 11.264 7.715a16.532 16.532 0 012.354-3.353c-2.612-1.017-5.09-2.511-7.282-4.362h-6.336z"/></g><g><path fill="#2D5918" d="M544.714 28.703a27.377 27.377 0 01-7.168-1.094c-4.784-1.537-9.76-4.803-10.908-9.991-2.488 9.798-7.846 19.789-18.754 21.71-8.037 1.345-17.223-1.921-18.562-10.759-4.976 4.419-13.778 6.532-18.371.769-1.531-1.729-.574-4.035-.191-6.148-6.315 7.301-17.414 13.449-26.6 7.877-5.358-3.266-7.846-9.222-10.142-14.794-4.784 5.187-12.056 8.838-19.328 7.109-4.085-.997-7.53-3.276-9.863-6.425.246 3.164.839 6.275 1.992 9.227 2.27 5.811 7.075 10.934 13.18 12.118 6.105 1.184 13.172-2.605 14.372-8.729 1.878 6.876 7.575 12.563 14.434 14.41 6.859 1.847 14.626-.216 19.678-5.226 3.168 2.305 7.886 2.049 10.876-.441.224-.247.47-.48.739-.697-.231.25-.479.481-.739.697-3.411 3.752-1.726 10.678 2.539 13.753 4.545 3.278 10.629 3.279 16.185 2.606 6.536-.792 13.5-2.652 17.576-7.843-.883 3.118 2.593 6.153 5.808 5.859 3.215-.293 5.796-2.829 7.513-5.574 2.85 4.27 8.784 5.674 13.721 4.309.689-.19 1.359-.426 2.013-.699V28.703z"/></g><g><path fill="#285215" d="M490.205 308.638c4.786 4.003 10.18 7.249 14.363 11.962 5.401 6.085 8.456 14.401 9.034 22.998h2.634l12.413-6.051c-1.064-14.734-8.584-28.394-19.922-36.19-4.765-3.276-10.095-5.53-15.237-8.116a134.964 134.964 0 01-13.491-7.805c-.14 2.494-.279 5.012.076 7.451.955 6.561 5.343 11.747 10.13 15.751z"/><path fill="#264D14" d="M519.703 331.082c2.156 4.306 4.569 8.464 7.15 12.516h12.829c.189-.35.372-.704.55-1.061 6.041-12.118 5.401-27.484.723-41.021-4.678-13.537-13.028-25.514-22.064-36.513-6.617 8.809-9.381 20.612-8.804 32.281.576 11.67 4.316 23.215 9.616 33.798z"/><path fill="#264D14" d="M484.21 334.909a56.785 56.785 0 0013.078 8.689h39.909c-2.75-8.573-8.487-16.263-15.867-20.993-9.097-5.831-19.813-7.049-30.072-8.983a194.852 194.852 0 01-25.609-6.668c.809 5.758 4.036 10.961 7.514 15.642 3.31 4.456 6.945 8.673 11.047 12.313z"/><path fill="#1C380E" d="M465.445 275.394a130.964 130.964 0 017.787 43.683c.024 4.176-.16 8.35-.535 12.508-.059.65.952.646 1.01 0a131.795 131.795 0 00-3.552-44.33 131.32 131.32 0 00-3.737-12.132c-.219-.608-1.196-.345-.973.271z"/><path fill="#1C380E" d="M467.054 278.548a16.283 16.283 0 01-9.091-.896c-1.565-.633-3.122-1.615-3.779-3.175-.315-.747-.359-1.707.209-2.284.33-.335.804-.479 1.265-.567a7.536 7.536 0 012.875.01c.59.117 1.243.295 1.757-.017.82-.498.604-1.733.933-2.637.386-1.059 1.882-1.611 2.735-.876.397.343.62.892 1.096 1.111.661.304 1.434-.213 1.797-.845.364-.632.489-1.381.863-2.007.78-1.305 2.687-1.764 3.971-.954 1.127.711 1.629 2.155 1.546 3.488-.083 1.334-.657 2.583-1.28 3.764-1.219 2.311-2.395 5.158-4.897 5.885"/><path fill="#1C380E" d="M464.061 264.674l2.249-.346-.653 4.175-.588.201zM459.262 264.245l1.553-.945 1.182 4.052-.267.229zM456.641 270.006l.733-2.162 3.386 2.511-.094.616zM469.271 284.432a12.17 12.17 0 012.123-5.162c.491-.683 1.093-1.342 1.892-1.6.115-.037.255-.061.346.02.086.076.086.209.077.324-.278 3.509-2.353 6.567-3.852 9.75M472.013 295.502c.511-1.438 1.029-2.888 1.838-4.18s1.945-2.431 3.371-2.962c.216-.08.5-.128.64.055.064.084.077.196.086.301.11 1.3-.021 2.62-.383 3.872-.323 1.118-.825 2.174-1.325 3.224-.989 2.077-1.983 4.163-3.273 6.066M474.24 313.224c.3-2.745 1.449-5.341 2.948-7.657 1.499-2.315 3.345-4.38 5.184-6.434.448-.501 1.214-1.028 1.703-.568.25.235.269.621.26.965-.083 3.165-1.108 6.256-2.631 9.029s-3.533 5.246-5.681 7.564c-.573.618-1.4 1.279-2.162.923M473.602 313.228c-.653-1.495-1.779-2.723-2.884-3.92-1.546-1.674-3.104-3.36-4.941-4.706-.585-.429-1.467-.798-1.96-.265-.23.249-.275.617-.269.957.018 1.005.382 1.971.82 2.875 1.904 3.926 5.369 7.062 9.456 8.557M472.234 301.387c-.995-2.515-3.09-4.398-5.115-6.183-.812-.716-1.691-1.463-2.763-1.602-.126-.016-.263-.022-.372.044-.195.118-.209.393-.186.62.151 1.517.882 2.915 1.733 4.178 1.918 2.846 4.534 5.227 7.584 6.788M469.696 288.222c-.382-.974-1.179-1.737-2.075-2.27-.897-.533-1.897-.861-2.888-1.184-.089-.029-.206-.05-.261.026-.034.046-.028.109-.02.165a8.104 8.104 0 002.368 4.68c.682.66 1.474 1.193 2.262 1.721.662.444 1.328.891 2.057 1.21M441.874 293.968a119.653 119.653 0 0123.898 32.477 118.911 118.911 0 014.72 10.708c.212.553 1.109.313.894-.247a120.83 120.83 0 00-20.869-35.12 119.765 119.765 0 00-7.988-8.475c-.43-.416-1.086.241-.655.657z"/><path fill="#1C380E" d="M444.454 295.889a14.946 14.946 0 01-7.843 2.964c-1.543.116-3.222-.058-4.393-1.074-.561-.487-.985-1.258-.75-1.964.136-.41.468-.722.812-.982a6.934 6.934 0 012.37-1.163c.532-.144 1.142-.263 1.439-.73.473-.744-.203-1.672-.298-2.55-.111-1.029.898-2.092 1.896-1.835.465.12.871.482 1.351.468.667-.019 1.094-.759 1.138-1.427.044-.668-.155-1.335-.1-2.003.114-1.392 1.499-2.546 2.882-2.402 1.215.126 2.211 1.11 2.681 2.241.47 1.131.503 2.393.467 3.619-.069 2.399.113 5.22-1.652 6.838"/><path fill="#1C380E" d="M436.386 285.69l1.711-1.2 1.149 3.701-.403.406zM432.264 287.291l.896-1.409 2.61 2.853-.128.297zM432.434 293.1l-.27-2.078 3.8.688.172.545zM448.655 299.828a11.189 11.189 0 01-.338-5.113c.128-.762.357-1.55.911-2.087.08-.077.185-.154.293-.125.102.028.155.137.194.236 1.189 3.001.717 6.362.769 9.592M455.383 307.821c-.16-1.391-.32-2.795-.176-4.188.144-1.393.619-2.793 1.577-3.81.145-.154.36-.309.549-.215.087.043.142.13.192.213a9.84 9.84 0 011.249 3.342c.186 1.051.199 2.125.212 3.193.025 2.112.05 4.233-.243 6.324M464.375 321.497c-.862-2.381-.966-4.985-.668-7.501.298-2.516.983-4.967 1.666-7.406.167-.595.583-1.34 1.172-1.161.301.092.473.402.604.688 1.21 2.638 1.616 5.6 1.482 8.501-.133 2.901-.788 5.756-1.619 8.537-.222.741-.635 1.623-1.406 1.64M463.852 321.76c-1.141-.964-2.563-1.516-3.957-2.052-1.948-.748-3.912-1.501-5.967-1.86-.655-.114-1.53-.059-1.72.58-.089.299.022.62.165.897.421.819 1.11 1.467 1.836 2.032 3.153 2.456 7.271 3.625 11.238 3.191M457.943 312.573c-1.834-1.665-4.319-2.361-6.707-3.005-.957-.258-1.983-.515-2.921-.194-.111.038-.225.089-.288.188-.113.176-.013.408.097.586.737 1.187 1.903 2.04 3.113 2.732 2.728 1.561 5.843 2.455 8.983 2.498M450.535 302.773c-.707-.646-1.672-.95-2.625-1.023-.953-.074-1.909.064-2.855.202-.085.012-.19.042-.205.127-.009.051.021.101.05.144a7.391 7.391 0 003.839 2.887c.828.266 1.695.381 2.557.496.724.096 1.452.192 2.182.158"/><g><path fill="#264D14" d="M441.803 343.598h7.745a67.447 67.447 0 00-6.622-18.788c-.531-1.001-1.502-2.152-2.55-1.731.805 5.443 1.612 10.912 1.595 16.415a55.133 55.133 0 01-.168 4.104z"/></g><g><path fill="#264D14" d="M447.25 343.598h17.997c-2.412-13.407-9.363-25.959-19.468-35.057a161.774 161.774 0 011.471 35.057z"/></g><g><path fill="#264D14" d="M430.45 343.598h15.558a20.71 20.71 0 00-1.223-2.354c-1.98-3.299-4.594-6.161-7.189-8.998l-6.773-7.405c-.788 5.417-1.561 10.922-.82 16.346.111.806.26 1.612.447 2.411z"/></g><g><path fill="#1C380E" d="M424.06 343.598c.926-2.614 1.752-5.317 1.502-8.063-.028-.309-.099-.661-.369-.811-.436-.241-.909.238-1.179.657l-3.885 6.033.371 2.184h3.56z"/></g><g><path fill="#1C380E" d="M420.401 343.598a50.245 50.245 0 001.347-19.756c-.652.285-.927 1.047-1.13 1.731a181.24 181.24 0 00-4.366 18.025h4.149z"/></g><g><path fill="#1C380E" d="M416.706 343.598c.202-4.282.086-8.571-.79-12.755-.742-3.545-2.028-7.027-2.018-10.65a52.554 52.554 0 00-3.322 12.712l3.853 10.692h2.277z"/></g><g><path fill="#1C380E" d="M414.041 343.598c-.335-5.829-2.668-11.547-6.587-15.87a70.719 70.719 0 00.22 15.87h6.367z"/></g><g><path fill="#1C380E" d="M401.289 343.598h6.099c-1.906-4.567-4.774-8.731-8.387-12.102.325 3.444.663 6.913 1.647 10.228.188.631.402 1.257.641 1.874z"/></g><g><path fill="#1C380E" d="M395.925 343.598h5.187a27.86 27.86 0 00-5.062-4.265c-.239-.156-.555-.31-.79-.148-.224.154-.21.485-.168.754.194 1.237.474 2.46.833 3.659z"/></g><g><path fill="#1C380E" d="M544.714 343.598v-12.309a43.351 43.351 0 00-1.738-6.555c-2.695-7.665-7.571-14.542-13.901-19.61 5.484 11.379 8.945 23.831 9.286 36.468.018.665.025 1.335.015 2.006h6.338z"/></g><g><path fill="#1C380E" d="M532.294 343.598h6.101c-1.184-6.469-4.157-12.609-8.278-17.748-5.176-6.456-12.089-11.387-19.592-14.842 1.89 2.414 3.223 5.21 4.645 7.929a120.625 120.625 0 0017.124 24.661z"/></g><g><path fill="#1C380E" d="M491.181 336.178c.66-2.592 2.183-4.934 2.57-7.58.335-2.291-.218-4.641-1.176-6.748-.957-2.106-2.305-4.006-3.644-5.891a156.95 156.95 0 00-2.816 21.845"/><path fill="#1C380E" d="M498.712 343.598c2.473-6.747 2.836-14.289.814-21.194-2.265 4.494-6.606 7.554-9.465 11.694-1.967 2.848-3.153 6.096-3.766 9.5h12.417z"/><path fill="#1C380E" d="M484.129 342.459l2.823 1.139h2.956c-.457-3.933-1.012-7.884-2.482-11.548-3.289-8.198-10.661-13.91-17.776-19.115-.013 5.768.856 11.604 3.189 16.875 2.334 5.27 6.212 9.952 11.29 12.649z"/><path fill="#1C380E" d="M470.452 339.709a32.664 32.664 0 004.272 3.889h11.643c-2.312-4.724-5.665-8.937-9.769-12.214a35.62 35.62 0 00-18.728-7.581 46.825 46.825 0 013.658 4.054c3.095 3.86 5.579 8.208 8.924 11.852z"/><path fill="#1C380E" d="M460.029 343.598h20.499c-3.945-2.892-8.679-4.898-13.412-6.197-2.221-.61-4.499-1.102-6.802-1.077-2.376.025-4.709.599-7.017 1.169 2.709 1.432 4.778 3.692 6.732 6.105z"/></g><g><path fill="#1C380E" d="M520.445 343.598h12.291c-7.325-6.675-16.141-11.703-25.619-14.554 4.146 5.092 8.398 10.274 13.328 14.554z"/></g></g><g><path fill="#2A5415" d="M107.87 343.598c-1.735-2.68-4.943-4.631-8.423-4.84-2.554-.154-5.115.527-7.659.276-5.025-.496-8.756-4.486-10.739-8.634-.638-1.335-1.207-2.781-2.462-3.704-1.899-1.398-4.77-1.118-6.984-.157-2.214.961-4.062 2.487-6.224 3.539-5.555 2.705-13.054 1.734-17.518-2.268-3.802-3.409-6.042-8.951-11.347-9.802-3.916-.628-7.596 1.75-10.469 4.205-4.331 3.701-8.115 7.911-11.225 12.486-1.085 1.597-2.109 3.262-3.613 4.56-1.504 1.298-3.615 2.197-5.673 1.855-1.966-.327-3.517-1.695-5.42-2.246L0 338.837v4.76h107.87z"/><path fill="#1C380E" d="M83.255 343.598a3.623 3.623 0 01-.91-.445c-.902-.621-1.363-1.617-2.112-2.383-1.905-1.946-5.293-2.051-8.091-1.382-2.798.669-5.416 1.95-8.289 2.279-6.733.771-12.624-3.707-18.995-5.798-4.173-1.369-8.874-1.703-13.065-.379-5.391 1.703-9.371 5.885-14.49 8.109h65.952zM89.216 343.598a9.968 9.968 0 00-.599 0h.599z"/><g><path fill="#1C380E" d="M508.802 343.598c1.582-1.118 3.028-2.389 4.11-3.988 2.954-4.368 2.547-10.142 1.684-15.35-2.173 4.239-7.095 6.309-9.942 10.125a12.57 12.57 0 00-2.382 5.907l1.741 3.307h4.789z"/></g><g><path fill="#1C380E" d="M521.785 343.598c2.187-2.246 3.802-5.056 4.594-8.096-5.903-1.055-12.159-.001-17.396 2.931-1.981 1.109-3.881 2.551-4.912 4.579a7.319 7.319 0 00-.264.587h17.978z"/></g></g><g><path fill="#3B751F" d="M0 324.276v9.591l.144.177c1.606-4.667 4.942-8.809 8.927-12.319 3.985-3.51 8.621-6.442 13.271-9.311C15.911 314.715 6.67 319.645 0 324.276zM11.343 343.598c5.382-9.914 14.402-19.185 22.868-27.183-10.407 5.17-26.343 18.434-33.693 27.183h10.825zM22.892 282.819c-8.391 4.2-16.105 9.355-22.892 15.267v8.728c5.75-9.211 13.245-17.565 22.892-23.995z"/><path fill="#3B751F" d="M36.136 288.284c-9.552 3.588-18.632 8.183-26.407 14.08-3.56 2.7-6.842 5.681-9.728 8.905v15.304c8.283-9.401 19.458-17.245 31.363-23.552C22.64 306.24 7.7 312.565.516 314.346c9.229-9.535 22.345-20.95 35.62-26.062z"/><path fill="#1C380E" d="M.343 343.598c7.77-12.534 19.913-23.115 34.528-30.054A179.336 179.336 0 009.964 323.77c-3.526 1.772-7.017 3.691-9.963 6.079v13.749h.342zM6.474 343.598a47.98 47.98 0 017.832-10.404c-4.954 3.048-9.52 6.543-13.6 10.404h5.768zM15.966 293.977c-4.931 2.267-10.583 6.05-15.966 10.412v21.73c5.224-11.04 14.094-20.851 25.402-27.954-9.683 3.562-18.012 9.415-24.887 16.18 3.716-7.469 8.968-14.392 15.451-20.368z"/></g></svg>