<?xml version="1.0" encoding="utf-8"?>
<!-- Generator: Adobe Illustrator 26.0.3, SVG Export Plug-In . SVG Version: 6.00 Build 0)  -->
<svg version="1.1" id="Layer_1" xmlns="http://www.w3.org/2000/svg" xmlns:xlink="http://www.w3.org/1999/xlink" x="0px" y="0px"
	 viewBox="0 0 141.653 125.665" enable-background="new 0 0 141.653 125.665" xml:space="preserve">
<g>
	<g>
		<path fill="#8E8E8E" d="M3.865,119.011c3.56,3.633,25.012,5.745,49.802,6.416c0.977,0.027,1.96,0.051,2.947,0.074
			c2.612,0.058,5.254,0.101,7.909,0.127c16.878,0.175,34.305-0.281,48.037-1.337c14.379-1.109,24.706-2.877,26.109-5.28
			c2.445-4.186,3.314-12.218,2.877-21.358c-0.155-3.245-0.474-6.63-0.947-10.031c-0.24-1.74-0.521-3.481-0.841-5.211
			c-0.078-0.425-0.159-0.85-0.242-1.275c-0.34-1.736-0.719-3.455-1.133-5.141c-0.168-0.68-0.342-1.353-0.52-2.023
			c-0.559-2.081-1.173-4.097-1.841-6.018c-2.445-7.032-4.573-11.923-6.866-15.422c-3.351-5.116-7.059-7.269-12.633-8.809
			c-9.388-2.596-18.054-19.904-28.886-31.588C76.802,0.451,82.82,6.077,69.1,2.183c-13.722-3.894-24.795-1.731-25.758,0
			c-0.962,1.729-11.795,9.086-23.349,19.039C14.048,26.34,10.27,37.187,8.002,46.514c-0.239,0.982-0.46,1.945-0.666,2.884
			c-0.623,2.838-1.099,5.447-1.451,7.591c-0.451,2.752-0.698,4.738-0.783,5.467c-0.023,0.199-0.034,0.304-0.034,0.304
			C4.88,64.052,4.383,66.625,3.771,70c-0.788,4.332-1.768,9.982-2.531,15.936C0.673,90.36,0.225,94.95,0.064,99.292
			C-0.257,107.965,0.565,115.645,3.865,119.011z"/>
		<path opacity="0.62" fill="#E2E2E2" d="M5.885,56.988c3.023-7.366,6.525-15.507,6.525-15.507s6.317-15.574,10.83-15.574
			s13.899-15.899,18.05-16.223c4.152-0.325,9.386-5.191,15.343-3.569c5.957,1.622,17.329,2.596,19.314,4.218
			c1.986,1.622,10.108,9.734,10.108,9.734s18.668,25.633,27.798,25.957c9.13,0.325,11.328,4.785,24.527,29.972
			c-0.492-1.999-1.035-3.95-1.628-5.827c-0.236-0.751-0.481-1.49-0.733-2.214c-6.018-17.308-10.11-21.635-19.498-24.231
			c-9.388-2.596-18.054-19.904-28.886-31.587s-4.814-6.058-18.536-9.952c-13.721-3.894-24.794-1.731-25.757,0
			c-0.963,1.731-11.795,9.087-23.35,19.039c-4.89,4.212-8.314,12.299-10.637,20.227C7.659,47.236,6.55,52.94,5.885,56.988z"/>
		<path fill="#545454" d="M3.864,119.012c8.907,9.087,129.748,8.654,134.804,0c2.445-4.186,3.314-12.22,2.877-21.359
			c-1.648-0.99-3.84-3.305-3.84-3.305s-3.852-5.625-7.944-4.76c-4.092,0.865-6.259,10.818-8.907,12.548
			c-2.648,1.731-7.222-6.923-10.11-9.519c-2.889-2.596-10.351,0.865-13.721,10.863c-3.37,9.999-7.944,2.983-16.047,0
			c-8.103-2.982-18.136-18.219-27.042-15.623c-8.907,2.596,1.444,22.5-2.889,24.664c-4.333,2.163-16.369-5.192-20.221-9.041
			c-3.852-3.848-11.073-3.94-19.017-0.479c-3.425,1.493-7.835-0.715-11.743-3.71C-0.257,107.965,0.564,115.645,3.864,119.012z"/>
		<path fill="#545454" d="M1.241,85.935c0.894,0.001,2.356,0.001,4.645-0.003c4.645-0.009,9.233-4.543,14.648-9.938
			c5.415-5.395,8.845-5.962,16.852-5.962c8.007,0,8.238,1.298,10.946-0.324c2.708-1.623,7.22-3.245,14.079-6.571
			c6.859-3.325,15.704,5.272,22.563,10.139c6.859,4.867,18.953,5.516,20.758,2.717c1.805-2.799,15.523,0.852,21.299,6.368
			c3.233,3.087,9.011,4.65,13.567,5.258c-0.241-1.738-0.522-3.48-0.841-5.209c-4.783-0.925-12.366-11.729-18.683-19.579
			c-6.317-7.849-13.718-1.235-15.343,0c-1.625,1.235-10.83,1.361-13.357,0c-2.527-1.36-9.206-6.427-12.997-9.671
			c-3.79-3.245-15.704-8.436-20.397-12.979c-4.693-4.542-16.426,2.92-16.426,2.92s-9.206,15.25-16.426,12.33
			C21.743,53.659,11.297,62.659,3.771,70C2.983,74.33,2.004,79.981,1.241,85.935z"/>
		<path fill="#5B5B5B" d="M39.403,21.961c0,0-4.604,0-5.507,0.974c-0.903,0.974-6.32,5.68-6.32,5.68l-1.896,6.329
			c0,0,2.528-2.11,2.799-1.785c0.271,0.325,2.618,3.408,2.618,3.408l1.986-8.114c0,0,2.347-1.298,4.243-0.811
			c1.896,0.487,5.507,0.325,5.507,0.325L39.403,21.961z"/>
		<polygon fill="#353535" points="31.218,25.411 31.218,25.411 31.218,25.411 		"/>
		<path fill="#E2E2E2" d="M28.479,33.158c0.271,0.325,2.618,3.408,2.618,3.408l1.986-8.114c0,0,2.347-1.298,4.243-0.811
			c1.896,0.487,5.507,0.325,5.507,0.325l-0.558-0.976l0.204,0.037h1.003v1.154l-0.542,0.147l-0.802,0.394l0.802,0.072l-0.742,0.829
			c0,0-0.522-0.18-0.923-0.359c-0.401-0.179-1.324-0.723-1.685-0.795c-0.361-0.072-1.123,0.072-2.146-0.108
			c-1.023-0.18-2.548,0.433-2.548,0.433s-0.782,0-0.903,0c-0.12,0-0.762,0.144-0.762,0.144s-0.481,2.596-0.522,2.777
			c-0.04,0.18-0.502,3.281-0.481,3.534c0.02,0.252,0.12,2.704,0.12,3.065c0,0.361-0.582,0.216-1.123-0.072
			c-0.542-0.288-0.722-0.829-0.722-0.829l-0.461-1.01l-0.622,0.164c0,0-0.221-1.174-0.281-1.39c-0.06-0.216-0.722-1.19-0.722-1.19
			s-0.702,0-0.782,0c-0.08,0-1.955,1.19-1.955,1.19v-0.232C25.681,34.943,28.208,32.834,28.479,33.158z"/>
		<ellipse fill="#5B5B5B" cx="74.827" cy="33.488" rx="2.698" ry="3.578"/>
		<path fill="#E2E2E2" d="M71.724,35.421c0.045-0.243,0.405-1.933,0.405-1.933c0,1.976,1.208,3.578,2.698,3.578
			c1.49,0,2.698-1.602,2.698-3.578v1.892l-0.405,1.94c0,0-1.394,0.485-1.484,0.485c-0.09,0-0.63-0.35-0.922,0.33
			c-0.292,0.68-1.416,0.317-1.551,0.276c-0.135-0.04-1.169-1.236-1.192-1.346C71.949,36.957,71.679,35.664,71.724,35.421z"/>
		<path fill="#5B5B5B" d="M68.526,36.224c0,0.618,0.378,1.119,0.844,1.119c0.466,0,0.844-0.501,0.844-1.119
			c0-0.618-0.378-1.119-0.844-1.119C68.904,35.105,68.526,35.606,68.526,36.224z"/>
		<path fill="#E2E2E2" d="M68.4,36.829c0.014-0.076,0.127-0.605,0.127-0.605c0,0.618,0.378,1.119,0.844,1.119
			c0.466,0,0.844-0.501,0.844-1.119v0.592l-0.127,0.607c0,0-0.436,0.152-0.464,0.152c-0.028,0-0.197-0.11-0.288,0.103
			c-0.091,0.213-0.443,0.099-0.485,0.086c-0.042-0.013-0.366-0.387-0.373-0.421C68.47,37.309,68.386,36.904,68.4,36.829z"/>
		<path fill="#5B5B5B" d="M97.625,50.212c0,0,2.407-0.433,7.944,0c5.537,0.433,3.129,4.327-2.768,6.058
			c-5.898,1.731-12.277-1.923-13.601-2.368c-1.324-0.445,1.083-3.882,1.083-3.882L97.625,50.212z"/>
		<path fill="#E2E2E2" d="M101.235,57.924c-0.451,0-2.488,0-3.119,0c-0.632,0-2.55-0.149-2.55-0.149s-1.51-0.099-2.594-0.336
			c-0.828-0.181-1.038-0.001-1.986-0.407c-0.948-0.406-1.857-0.301-1.857-0.301s-1.528-0.394-1.934-0.857
			c-0.406-0.463-1.173-1.518-1.173-1.924c0-0.406,0.271-0.575,0.271-0.575l3.629-2.904l-0.992,2.1c-0.2,0.63-0.203,1.171,0.27,1.33
			c1.324,0.445,7.703,4.099,13.601,2.368c3.893-1.142,6.264-3.227,5.835-4.637l0,0c0,0,0.584,0.534,0.584,0.858
			c0,0.325-0.09,1.541-0.09,1.541s-0.708,0.822-0.937,1.144c-0.792,1.114-3.034,1.992-3.169,2.154"/>
		<path fill="#E2E2E2" d="M104.481,57.44"/>
		<path fill="#3F3F3F" d="M58.271,60.117c-0.09-0.183-10.382-4.639-11.285-3.385c-0.903,1.255-2.708,5.312-2.708,5.312
			s2.438-1.298,2.708-1.136c0.271,0.162,3.34,2.261,3.34,2.261l2.528,1.309l6.451,0.128L58.271,60.117z"/>
		<path fill="#E2E2E2" d="M44.773,61.788c0.727-0.369,2.021-0.995,2.214-0.88c0.271,0.162,3.34,2.261,3.34,2.261l2.528,1.309
			l6.451,0.128l-0.439-1.904l1.474,0.467l-0.361,2.627c0,0-1.67,2.758-1.805,2.596c-0.135-0.162-1.078-0.404-1.078-0.404
			l-0.717-0.184c0,0-0.684-0.306-1.783-0.386c-0.6-0.043-1.507-0.038-2.026,0.195c-0.562,0.252-1.334,0.605-1.334,0.605
			l-1.863,0.909c0,0-0.497-3.98-0.633-4.062c-0.135-0.081-1.76-3.083-1.76-3.083s-0.903-0.568-1.399,0
			c-0.496,0.568-2.1,1.186-2.1,1.186L44.773,61.788z"/>
		<path opacity="0.27" fill="#353535" d="M3.865,119.011c3.56,3.633,25.012,5.745,49.802,6.416
			c-0.672-4.336-1.813-8.663-1.813-8.663s-6.981-8.222-12.036-7.638c-5.055,0.583-14.684,3.744-19.106,0
			c-4.421-3.744-0.393-13.13,0-13.564c0.393-0.433,3.364-1.298,3.364-1.298l4.149-12.549c0,0-2.851-6.922-7.513-12.114
			c-4.662-5.194-5.031-13.712-5.031-13.712v-5.328l-4.509-3.463l-3.836,2.298c-0.623,2.838-1.099,5.447-1.451,7.591
			c-0.451,2.752-0.698,4.738-0.783,5.467c-0.023,0.199-0.034,0.304-0.034,0.304C4.88,64.052,4.383,66.625,3.771,70
			c-0.788,4.332-1.768,9.982-2.531,15.936C0.673,90.36,0.225,94.95,0.064,99.292C-0.257,107.965,0.565,115.645,3.865,119.011z"/>
		<path opacity="0.58" fill="#353535" d="M95.497,77.279c-0.179-0.029-0.359-0.06-0.54-0.093
			C95.044,77.07,95.207,77.068,95.497,77.279z"/>
		<path fill="#E2E2E2" d="M105.731,75.995c0.541-0.84,2.156-1.099,4.306-0.901l0.226,2.487c0,0-0.481,1.298-1.043,1.298
			c-0.561,0-1.364,3.678-1.364,3.678l0.06,2.552l-2.106,1.126c0,0-4.694-0.757-5.236-1.126c-0.542-0.369-0.722-2.66-3.671-6.338
			c-0.651-0.811-1.099-1.27-1.405-1.492C100.335,78.065,104.703,77.589,105.731,75.995z"/>
		<path fill="#E2E2E2" d="M98.409,77.606c15.9,15.201-3.972,3.027-4.11,3.027c-0.241,0-2.993-1.105-2.993-1.105l-3.19-1.839
			c0,0-2.467-2.163-3.129-2.813c-0.662-0.649-2.227-0.904-2.227-0.904s-2.046-2.45-2.407-2.45c-0.361,0-3.19-1.355-3.19-1.355
			l-1.805-2.972l-0.449-1.302c3.515,2.271,6.989,5.202,10.064,7.384C87.779,75.269,94.913,76.974,98.409,77.606z"/>
		<path fill="#E2E2E2" d="M37.385,70.033c0.575,0,1.11,0.007,1.608,0.019c-2.329,0.133-4.934,0.726-5.368,2.659
			c-0.813,3.614-6.143,1.991-8.398,4.101c-2.255,2.11-5.505,2.511-6.498,2.716c-0.993,0.205-2.257,1.99-4.063,3.613
			c-1.806,1.623-3.942,1.947-5.311,2.596c-0.405,0.192-0.746,0.071-1.016-0.211c3.833-1.227,7.732-5.087,12.194-9.531
			C25.948,70.6,29.378,70.033,37.385,70.033z"/>
		<path opacity="0.27" fill="#353535" d="M54.897,113.819l1.717,11.682c2.612,0.058,5.253,0.101,7.909,0.128
			c34.551,0.354,71.402-1.921,74.146-6.618c2.445-4.186,3.314-12.22,2.877-21.359c-0.155-3.246-0.475-6.631-0.947-10.032
			c-0.241-1.738-0.522-3.48-0.841-5.209c-0.4-2.169-0.86-4.318-1.377-6.417c-0.167-0.68-0.341-1.354-0.52-2.022l-4.729,9.125
			c0,0-20.702-3.029-26.72-3.029c-6.018,0-12.758,0-15.888,3.029c-3.129,3.029-6.499,8.221-6.499,8.221l-3.048,4.327l-6.15-12.548
			h-6.3l-8.185,14.658L54.897,113.819z"/>
	</g>
	<path opacity="0.12" fill="#FFFFFF" d="M5.102,62.455c0.282,0.177,0.545,0.306,0.783,0.377c3.042,0.911,11.218-1.884,18.619-1.939
		c7.401-0.055,6.08-5.612,8.484-9.261c2.404-3.649,5.235-7.881,6.679-9.656c1.444-1.776,8.303-13.798,9.747-14.987
		c1.444-1.188,10.927,12.87,10.927,12.87l9.747-2.436l7.437,7.164l12.502,15.53l5.054-6.741l8.664-6.704
		c0,0,18.953,17.845,19.597,19.024c0.451,0.824,10.301,10.005,16.172,15.44c-0.34-1.736-0.719-3.455-1.134-5.142
		c-0.167-0.68-0.341-1.354-0.52-2.022c-0.558-2.081-1.173-4.098-1.841-6.019c-2.445-7.032-4.572-11.921-6.866-15.423
		c-3.352-5.116-7.059-7.267-12.633-8.809c-9.388-2.596-18.054-19.904-28.886-31.587s-4.814-6.058-18.536-9.952
		c-13.721-3.894-24.794-1.731-25.757,0c-0.963,1.731-11.795,9.087-23.35,19.039c-5.945,5.12-9.723,15.967-11.99,25.292
		c-0.96,3.947-1.649,7.621-2.117,10.474C5.433,59.74,5.187,61.727,5.102,62.455z"/>
</g>
</svg>
