<?xml version="1.0" encoding="utf-8"?>
<!-- Generator: Adobe Illustrator 26.0.3, SVG Export Plug-In . SVG Version: 6.00 Build 0)  -->
<svg version="1.1" id="Layer_1" xmlns="http://www.w3.org/2000/svg" xmlns:xlink="http://www.w3.org/1999/xlink" x="0px" y="0px"
	 viewBox="0 0 164.705 104.241" enable-background="new 0 0 164.705 104.241" xml:space="preserve">
<g>
	<path fill="#E9FFFE" d="M56.366,28.745c0,0-0.42-28.745,26.017-28.745s20.562,23.08,20.562,23.08s13.218-9.232,22.66,0.42
		s6.085,15.317,6.085,15.317s30.843-10.491,32.941,27.486s-41.754,28.745-52.454,26.437c0,0-24.758,25.598-53.503,0.42
		c0,0-48.887,21.401-58.119-10.701c0,0-5.455-21.611,17.834-24.339c0,0-1.839-17.207,7.553-25.388
		C38.952,21.401,56.366,28.745,56.366,28.745z"/>
	<path fill="none" stroke="#001C2F" stroke-width="2" stroke-linecap="round" stroke-miterlimit="10" d="M64.666,49.116
		c0,0-0.374,5.193,5.875,4.406c5.598-0.705,3.777-5.875,3.777-5.875"/>
	<path fill="none" stroke="#001C2F" stroke-width="2" stroke-linecap="round" stroke-miterlimit="10" d="M85.22,48.437
		c0,0-1.096,5.09,5.202,5.184c5.642,0.084,4.56-5.29,4.56-5.29"/>
	<circle fill="#EE95C4" cx="67.711" cy="62.844" r="3.999"/>
	<circle fill="#EE95C4" cx="96.933" cy="60.506" r="3.999"/>
</g>
</svg>
