<?xml version="1.0" encoding="utf-8"?>
<!-- Generator: Adobe Illustrator 26.0.3, SVG Export Plug-In . SVG Version: 6.00 Build 0)  -->
<svg version="1.1" id="Layer_1" xmlns="http://www.w3.org/2000/svg" xmlns:xlink="http://www.w3.org/1999/xlink" x="0px" y="0px"
	 viewBox="0 0 205.624 205.64" enable-background="new 0 0 205.624 205.64" xml:space="preserve">
<g>
	<g>
		<circle fill="#FFC136" cx="103.681" cy="103.395" r="40.33"/>
		<circle fill="#FBB03B" cx="103.681" cy="103.395" r="35.458"/>
	</g>
</g>
<path fill="#F15A24" d="M124.9,99.993c0,2.852-2.312,5.163-5.163,5.163c-2.852,0-5.163-2.312-5.163-5.163
	c0-2.852,1.698-6.907,4.55-6.907C121.974,93.086,124.9,97.141,124.9,99.993z"/>
<path fill="#F15A24" d="M93.915,102.294c-0.484,2.81-3.154,4.696-5.965,4.212c-2.81-0.484-4.696-3.154-4.212-5.965
	c0.484-2.81,2.846-6.518,5.656-6.034C92.204,94.991,94.399,99.484,93.915,102.294z"/>
<circle fill="#F7931E" cx="85.174" cy="115.482" r="3.362"/>
<circle fill="#F7931E" cx="127.57" cy="112.364" r="3.362"/>
</svg>
