<?xml version="1.0" encoding="utf-8"?>
<!-- Generator: Adobe Illustrator 26.0.3, SVG Export Plug-In . SVG Version: 6.00 Build 0)  -->
<svg version="1.1" id="Layer_1" xmlns="http://www.w3.org/2000/svg" xmlns:xlink="http://www.w3.org/1999/xlink" x="0px" y="0px"
	 viewBox="0 0 205.624 205.64" enable-background="new 0 0 205.624 205.64" xml:space="preserve">
<g>
	<g>
		<g>
			<path fill="#FFFFFF" d="M102.812,0c-29.048,0-5.418,86.982-5.418,86.982h5.418h5.418C108.23,86.982,131.86,0,102.812,0z
				 M106.827,75.72h-4.015h-4.015c0,0-17.511-64.459,4.015-64.459S106.827,75.72,106.827,75.72z"/>
			<path fill="#F2F2F2" d="M102.812,11.262c-21.527,0-4.015,64.459-4.015,64.459h4.015h4.015
				C106.827,75.72,124.338,11.262,102.812,11.262z"/>
		</g>
		<g>
			<path fill="#FFFFFF" d="M163.76,20.011c-23.395-17.219-55.923,66.842-55.923,66.842l4.364,3.212l4.364,3.212
				C116.563,93.276,187.155,37.23,163.76,20.011z M122.109,83.375l-3.234-2.38l-3.234-2.38c0,0,24.106-62.294,41.443-49.534
				S122.109,83.375,122.109,83.375z"/>
			<path fill="#F2F2F2" d="M157.084,29.081c-17.337-12.76-41.443,49.534-41.443,49.534l3.234,2.38l3.234,2.38
				C122.109,83.375,174.421,41.841,157.084,29.081z"/>
		</g>
		<g>
			<path fill="#FFFFFF" d="M201.182,72.899c-8.453-27.791-84.794,20.128-84.794,20.128l1.577,5.184l1.577,5.184
				C119.541,103.395,209.635,100.691,201.182,72.899z M129.907,98.775l-1.168-3.841l-1.168-3.841c0,0,56.574-35.511,62.838-14.916
				S129.907,98.775,129.907,98.775z"/>
			<path fill="#F2F2F2" d="M190.408,76.176c-6.264-20.595-62.838,14.916-62.838,14.916l1.168,3.841l1.168,3.841
				C129.907,98.775,196.672,96.771,190.408,76.176z"/>
		</g>
		<g>
			<path fill="#FFFFFF" d="M198.75,139.802c10.448-27.104-79.212-36.341-79.212-36.341l-1.949,5.055l-1.949,5.055
				C115.641,113.572,188.302,166.907,198.75,139.802z M126.653,116.313l1.444-3.746l1.444-3.746c0,0,66.444,6.845,58.701,26.931
				S126.653,116.313,126.653,116.313z"/>
			<path fill="#F2F2F2" d="M188.243,135.752c7.743-20.086-58.701-26.931-58.701-26.931l-1.444,3.746l-1.444,3.746
				C126.653,116.313,180.5,155.838,188.243,135.752z"/>
		</g>
		<g>
			<path fill="#FFFFFF" d="M159.708,188.463c24.196-16.074-43.619-75.449-43.619-75.449l-4.513,2.998l-4.513,2.998
				C107.063,119.01,135.512,204.537,159.708,188.463z M114.463,127.614l3.344-2.222l3.344-2.222c0,0,50.255,44.001,32.324,55.912
				C135.546,190.995,114.463,127.614,114.463,127.614z"/>
			<path fill="#F2F2F2" d="M153.476,179.083c17.93-11.912-32.324-55.912-32.324-55.912l-3.344,2.222l-3.344,2.222
				C114.463,127.614,135.546,190.995,153.476,179.083z"/>
		</g>
		<g>
			<path fill="#FFFFFF" d="M102.812,205.64c29.048,0,5.418-86.982,5.418-86.982h-5.418h-5.418
				C97.394,118.658,73.764,205.64,102.812,205.64z M98.797,129.919h4.015h4.015c0,0,17.511,64.459-4.015,64.459
				S98.797,129.919,98.797,129.919z"/>
			<path fill="#F2F2F2" d="M102.812,194.378c21.527,0,4.015-64.459,4.015-64.459h-4.015h-4.015
				C98.797,129.919,81.285,194.378,102.812,194.378z"/>
		</g>
		<g>
			<path fill="#FFFFFF" d="M41.864,185.628c23.395,17.219,55.923-66.842,55.923-66.842l-4.364-3.212l-4.364-3.212
				C89.06,112.364,18.469,168.41,41.864,185.628z M83.515,122.265l3.234,2.38l3.234,2.38c0,0-24.106,62.294-41.443,49.534
				C31.202,163.799,83.515,122.265,83.515,122.265z"/>
			<path fill="#F2F2F2" d="M48.539,176.559c17.337,12.76,41.443-49.534,41.443-49.534l-3.234-2.38l-3.234-2.38
				C83.515,122.265,31.202,163.799,48.539,176.559z"/>
		</g>
		<g>
			<path fill="#FFFFFF" d="M4.442,132.74c8.453,27.791,84.794-20.128,84.794-20.128l-1.577-5.184l-1.577-5.184
				C86.083,102.245-4.011,104.949,4.442,132.74z M75.717,106.864l1.168,3.841l1.168,3.841c0,0-56.574,35.511-62.838,14.916
				S75.717,106.864,75.717,106.864z"/>
			<path fill="#F2F2F2" d="M15.216,129.463c6.264,20.595,62.838-14.916,62.838-14.916l-1.168-3.841l-1.168-3.841
				C75.717,106.864,8.952,108.868,15.216,129.463z"/>
		</g>
		<g>
			<path fill="#FFFFFF" d="M6.873,65.837c-10.448,27.104,79.212,36.341,79.212,36.341l1.949-5.055l1.949-5.055
				C89.983,92.068,17.321,38.733,6.873,65.837z M78.97,89.326l-1.444,3.746l-1.444,3.746c0,0-66.444-6.845-58.701-26.931
				S78.97,89.326,78.97,89.326z"/>
			<path fill="#F2F2F2" d="M17.381,69.888C9.638,89.974,76.082,96.819,76.082,96.819l1.444-3.746l1.444-3.746
				C78.97,89.326,25.124,49.802,17.381,69.888z"/>
		</g>
		<g>
			<path fill="#FFFFFF" d="M45.916,17.177C21.72,33.251,89.535,92.626,89.535,92.626l4.513-2.998l4.513-2.998
				C98.561,86.63,70.111,1.103,45.916,17.177z M91.161,78.026l-3.344,2.222l-3.344,2.222c0,0-50.255-44.001-32.324-55.912
				C70.078,14.645,91.161,78.026,91.161,78.026z"/>
			<path fill="#F2F2F2" d="M52.147,26.557c-17.93,11.912,32.324,55.912,32.324,55.912l3.344-2.222l3.344-2.222
				C91.161,78.026,70.078,14.645,52.147,26.557z"/>
		</g>
	</g>
	<g>
		<g>
			<path fill="#FFFFFF" d="M134.055,4.862c-27.675-8.827-31.593,81.223-31.593,81.223l5.162,1.646l5.162,1.646
				C112.786,89.377,161.73,13.689,134.055,4.862z M114.872,78.222l-3.825-1.22l-3.825-1.22c0,0,2.903-66.732,23.412-60.191
				C151.142,22.132,114.872,78.222,114.872,78.222z"/>
			<path fill="#F2F2F2" d="M130.633,15.591c-20.509-6.541-23.412,60.191-23.412,60.191l3.825,1.22l3.825,1.22
				C114.872,78.222,151.142,22.132,130.633,15.591z"/>
		</g>
		<g>
			<path fill="#FFFFFF" d="M186.041,42.447c-17.056-23.513-73.59,46.688-73.59,46.688l3.181,4.386l3.181,4.386
				C118.813,97.906,203.097,65.96,186.041,42.447z M127.105,90.158l-2.358-3.25l-2.358-3.25c0,0,41.895-52.023,54.535-34.598
				S127.105,90.158,127.105,90.158z"/>
			<path fill="#F2F2F2" d="M176.925,49.059c-12.64-17.425-54.535,34.598-54.535,34.598l2.358,3.25l2.358,3.25
				C127.105,90.158,189.565,66.484,176.925,49.059z"/>
		</g>
		<g>
			<path fill="#FFFFFF" d="M205.622,104.205c0.391-29.046-86.901-6.59-86.901-6.59l-0.073,5.417l-0.073,5.417
				C118.575,108.451,205.231,133.251,205.622,104.205z M129.855,107.2l0.054-4.015l0.054-4.015c0,0,64.689-16.641,64.399,4.883
				S129.855,107.2,129.855,107.2z"/>
			<path fill="#F2F2F2" d="M194.362,104.054c0.29-21.525-64.399-4.883-64.399-4.883l-0.054,4.015l-0.054,4.015
				C129.855,107.2,194.072,125.578,194.362,104.054z"/>
		</g>
		<g>
			<path fill="#FFFFFF" d="M182.976,167.206c18.19-22.648-64.424-58.693-64.424-58.693l-3.393,4.224l-3.393,4.224
				C111.767,116.962,164.786,189.854,182.976,167.206z M121.426,122.92l2.514-3.13l2.514-3.13c0,0,61.222,26.711,47.742,43.495
				C160.716,176.937,121.426,122.92,121.426,122.92z"/>
			<path fill="#F2F2F2" d="M174.196,160.154c13.48-16.783-47.742-43.495-47.742-43.495l-2.514,3.13l-2.514,3.13
				C121.426,122.92,160.716,176.937,174.196,160.154z"/>
		</g>
		<g>
			<path fill="#FFFFFF" d="M130.993,201.702c27.936-7.962-18.63-85.136-18.63-85.136l-5.211,1.485l-5.211,1.485
				C101.942,119.536,103.058,209.664,130.993,201.702z M106.378,129.982l3.861-1.1l3.861-1.1c0,0,34.508,57.191,13.806,63.091
				C107.205,196.772,106.378,129.982,106.378,129.982z"/>
			<path fill="#F2F2F2" d="M127.907,190.872c20.702-5.9-13.806-63.091-13.806-63.091l-3.861,1.1l-3.861,1.1
				C106.378,129.982,107.205,196.772,127.907,190.872z"/>
		</g>
		<g>
			<path fill="#FFFFFF" d="M71.568,200.778c27.675,8.827,31.593-81.223,31.593-81.223l-5.162-1.646l-5.162-1.646
				C92.837,116.262,43.894,191.951,71.568,200.778z M90.752,127.418l3.825,1.22l3.825,1.22c0,0-2.903,66.732-23.412,60.191
				C54.482,183.508,90.752,127.418,90.752,127.418z"/>
			<path fill="#F2F2F2" d="M74.99,190.049c20.509,6.541,23.412-60.191,23.412-60.191l-3.825-1.22l-3.825-1.22
				C90.752,127.418,54.482,183.508,74.99,190.049z"/>
		</g>
		<g>
			<path fill="#FFFFFF" d="M19.583,163.193c17.056,23.513,73.59-46.688,73.59-46.688l-3.181-4.386l-3.181-4.386
				C86.81,107.734,2.527,139.679,19.583,163.193z M78.518,115.482l2.358,3.25l2.358,3.25c0,0-41.895,52.023-54.535,34.598
				C16.059,139.156,78.518,115.482,78.518,115.482z"/>
			<path fill="#F2F2F2" d="M28.699,156.58c12.64,17.425,54.535-34.598,54.535-34.598l-2.358-3.25l-2.358-3.25
				C78.518,115.482,16.059,139.156,28.699,156.58z"/>
		</g>
		<g>
			<path fill="#FFFFFF" d="M0.001,101.434c-0.391,29.046,86.901,6.59,86.901,6.59l0.073-5.417l0.073-5.417
				C87.049,97.189,0.393,72.389,0.001,101.434z M75.769,98.44l-0.054,4.015l-0.054,4.015c0,0-64.689,16.641-64.399-4.883
				C11.552,80.061,75.769,98.44,75.769,98.44z"/>
			<path fill="#F2F2F2" d="M11.262,101.586c-0.29,21.525,64.399,4.883,64.399,4.883l0.054-4.015l0.054-4.015
				C75.769,98.44,11.552,80.061,11.262,101.586z"/>
		</g>
		<g>
			<path fill="#FFFFFF" d="M22.647,38.434C4.457,61.081,87.071,97.126,87.071,97.126l3.393-4.224l3.393-4.224
				C93.857,88.678,40.837,15.786,22.647,38.434z M84.198,82.72l-2.514,3.13l-2.514,3.13c0,0-61.222-26.711-47.742-43.495
				S84.198,82.72,84.198,82.72z"/>
			<path fill="#F2F2F2" d="M31.428,45.486c-13.48,16.783,47.742,43.495,47.742,43.495l2.514-3.13l2.514-3.13
				C84.198,82.72,44.908,28.702,31.428,45.486z"/>
		</g>
		<g>
			<path fill="#FFFFFF" d="M74.63,3.938c-27.936,7.962,18.63,85.136,18.63,85.136l5.211-1.485l5.211-1.485
				C103.681,86.104,102.566-4.024,74.63,3.938z M99.246,75.658l-3.861,1.1l-3.861,1.1c0,0-34.508-57.191-13.806-63.091
				C98.419,8.868,99.246,75.658,99.246,75.658z"/>
			<path fill="#F2F2F2" d="M77.717,14.768c-20.702,5.9,13.806,63.091,13.806,63.091l3.861-1.1l3.861-1.1
				C99.246,75.658,98.419,8.868,77.717,14.768z"/>
		</g>
	</g>
</g>
</svg>
